<?xml version="1.0" encoding="utf-8"?>
<!-- Generator: Adobe Illustrator 26.0.3, SVG Export Plug-In . SVG Version: 6.00 Build 0)  -->
<svg version="1.1" id="Layer_1" xmlns="http://www.w3.org/2000/svg" xmlns:xlink="http://www.w3.org/1999/xlink" x="0px" y="0px"
	 viewBox="0 0 2000 2000" style="enable-background:new 0 0 2000 2000;" xml:space="preserve">
<style type="text/css">
	.st0{fill:none;}
	.st1{fill:#FFFFFF;}
</style>
<g>
	<g>
		<path class="st0" d="M1708.65,1000c0,391.38-317.27,708.65-708.65,708.65S291.35,1391.38,291.35,1000S608.62,291.35,1000,291.35
			S1708.65,608.62,1708.65,1000z"/>
		<g>
			<g>
				<g>
					<path class="st1" d="M620.68,461.51c-3.09,2.11-6.07,4.39-9.11,6.58c-3.03,2.21-6.07,4.39-9.02,6.71l-8.92,6.84l-8.76,7.05
						c-1.45,1.18-2.93,2.33-4.37,3.54l-4.29,3.63c-2.85,2.44-5.75,4.8-8.56,7.29l-8.41,7.46l-2.1,1.86l-2.06,1.92l-4.11,3.83
						l-68.2-73.14l4.74-4.41l2.37-2.2l2.42-2.15l9.68-8.59c3.23-2.86,6.57-5.59,9.85-8.39l4.94-4.18c1.65-1.38,3.35-2.72,5.02-4.08
						l10.09-8.11l10.27-7.88c3.4-2.66,6.9-5.18,10.38-7.72c3.5-2.52,6.94-5.13,10.49-7.57L620.68,461.51z"/>
					<path d="M563.85,375.58c-15.02,10.56-29.76,21.53-43.96,33.18c-14.21,11.62-28.14,23.61-41.45,36.25l72.6,77.23
						c11.47-10.9,23.48-21.21,35.71-31.23c12.22-10.05,24.93-19.47,37.86-28.58L563.85,375.58z M487.08,445.16l4.44-4.13l4.52-4.03
						l9.06-8.04l9.24-7.83l4.63-3.91l4.71-3.81l9.44-7.6l9.61-7.38l4.81-3.68l4.89-3.58l9.79-7.14l54.52,76.58l-8.57,6.26
						l-4.28,3.13l-4.21,3.23l-8.42,6.46l-8.27,6.66l-4.13,3.33l-4.05,3.43l-8.1,6.86l-7.94,7.05l-3.96,3.53l-3.88,3.62
						L487.08,445.16z"/>
				</g>
				<g>
					<path class="st1" d="M553.32,449.88L553.32,449.88L553.32,449.88z"/>
				</g>
			</g>
			<g>
				<g>
					<path class="st1" d="M1652.17,1092.36l0.78-5.56l0.39-2.78l0.32-2.79l1.28-11.17l0.32-2.79l0.25-2.8l0.5-5.6
						c0.3-3.74,0.73-7.46,0.92-11.21l0.71-11.22c0.14-1.87,0.22-3.74,0.28-5.62l0.21-5.62c0.37-7.49,0.39-15,0.49-22.5l100,0.4
						c-0.11,8.62-0.15,17.24-0.56,25.85l-0.25,6.46c-0.07,2.15-0.16,4.31-0.32,6.46l-0.82,12.91c-0.23,4.31-0.7,8.6-1.05,12.9
						l-0.57,6.44l-0.29,3.22l-0.36,3.22l-1.47,12.86l-0.37,3.21l-0.45,3.21l-0.9,6.41L1652.17,1092.36z"/>
					<path d="M1753.74,1109.76c0.63-4.55,1.29-9.09,1.89-13.65l1.57-13.68c0.57-4.56,0.92-9.13,1.34-13.71l0.61-6.86l0.3-3.43
						l0.22-3.43l0.87-13.74c0.28-4.58,0.38-9.17,0.58-13.75l0.26-6.88c0.08-2.29,0.07-4.59,0.12-6.88l0.17-13.76h-106l-0.15,11.88
						c-0.03,1.98-0.02,3.96-0.09,5.94l-0.23,5.93c-0.17,3.95-0.25,7.91-0.49,11.86l-0.75,11.84l-0.19,2.96l-0.26,2.95l-0.53,5.91
						c-0.36,3.94-0.65,7.88-1.15,11.81l-1.34,11.78l-1.63,11.75L1753.74,1109.76z M1755.57,1006.18
						c-0.31,32.27-2.46,64.57-6.91,96.59l-93.14-12.67c3.91-28.03,5.78-56.34,6.06-84.67L1755.57,1006.18z"/>
				</g>
				<g>
					<path class="st1" d="M1706.79,1051.22L1706.79,1051.22L1706.79,1051.22z"/>
				</g>
				<g>
					<path d="M1704.07,1044.73l-0.39,6.13c-0.12,2.04-0.26,4.09-0.46,6.13l-1.09,12.24l9.95,0.97l1.1-12.41
						c0.2-2.07,0.34-4.14,0.46-6.21l0.39-6.22l13.17,0.82c-0.51,9.59-1.46,19.14-2.31,28.7l9.95,1.02c0.62-6.85,1.26-13.7,1.8-20.56
						l0.65-10.3c0.2-3.43,0.48-6.86,0.57-10.3l-58.25-2.7c-0.09,3.72-0.42,7.42-0.63,11.13L1704.07,1044.73z"/>
				</g>
			</g>
			<g>
				<g>
					<path class="st1" d="M1633.69,1180.24c8.05-28.84,14.41-58.18,18.48-87.88l99.03,13.89c-4.7,34.2-12,68.04-21.31,101.29
						L1633.69,1180.24z"/>
					<path d="M1731.9,1211.35c10.14-35.33,17.8-71.37,22.71-107.78l-105.03-14.29c-4.22,31.34-10.82,62.33-19.53,92.7
						L1731.9,1211.35z M1747.8,1108.9l-0.84,6l-0.98,5.98l-1.98,11.96c-0.72,3.98-1.5,7.94-2.26,11.91
						c-0.76,3.97-1.5,7.94-2.39,11.88l-2.58,11.85c-0.85,3.95-1.88,7.86-2.82,11.79c-1.84,7.87-4.01,15.66-6.12,23.46l-90.53-25.29
						c1.84-6.83,3.76-13.63,5.35-20.52c0.82-3.44,1.73-6.86,2.47-10.31l2.26-10.36c0.79-3.45,1.43-6.93,2.09-10.4
						c0.66-3.47,1.35-6.94,1.98-10.42l1.73-10.47l0.87-5.23l0.73-5.26L1747.8,1108.9z"/>
				</g>
				<g>
					<path class="st1" d="M1693.35,1146.94L1693.35,1146.94L1693.35,1146.94z"/>
				</g>
				<g>
					<path d="M1698.88,1120.49c-8.78-1.5-16.65-0.18-22.84,3.34c-3.1,1.76-5.74,4.09-7.79,6.94c-2.05,2.85-3.48,6.24-4.36,10.1
						c-0.86,3.96-0.82,7.71-0.02,11.18c0.81,3.48,2.23,6.65,4.37,9.49c4.22,5.67,10.94,9.97,19.04,12.02
						c9,2.27,17.15,1.48,23.59-2.04c3.19-1.76,6.06-4.18,8.18-7.24c2.15-3.05,3.74-6.71,4.65-10.87c0.95-4.18,0.86-8.18,0.07-11.85
						c-0.8-3.66-2.36-6.99-4.57-9.86C1714.78,1125.94,1707.61,1121.98,1698.88,1120.49z M1713.67,1151.38
						c-1.04,4.79-3.85,8.28-7.92,10.17c-4.06,1.9-9.5,2.19-15.63,0.75c-5.82-1.37-10.26-4-13.14-7.4
						c-2.85-3.39-4.02-7.51-3.06-11.92c1.01-4.43,3.63-7.75,7.63-9.69c3.98-1.94,9.27-2.51,15.28-1.38
						c6.01,1.13,10.71,3.6,13.67,7.01C1713.44,1142.32,1714.74,1146.68,1713.67,1151.38z"/>
				</g>
			</g>
			<g>
				<g>
					<path class="st1" d="M1603.25,1264.7c12.13-27.4,22.15-55.69,30.44-84.47l96.2,27.3c-9.54,33.19-21.12,65.81-35.09,97.39
						L1603.25,1264.7z"/>
					<path d="M1696.3,1309c14.94-33.58,27.38-68.26,37.3-103.65l-102.09-28.52c-8.53,30.43-19.22,60.25-32.07,89.13L1696.3,1309z
						 M1726.13,1209.69c-9.04,31.04-19.85,61.59-32.83,91.2l-86.21-37.46c11.37-25.91,20.81-52.63,28.72-79.78L1726.13,1209.69z"/>
				</g>
				<g>
					<path d="M1638.56,1230.01c-0.38,1.07-0.71,2.22-0.98,3.41c-0.29,1.18-0.52,2.41-0.65,3.66c-0.26,2.5-0.14,5.11,0.55,7.65
						c1.4,5.07,5.07,9.89,12.7,12.92l36.73,14.57c1.5-3.74,2.89-7.53,4.33-11.3l-36.97-13.96c-3.29-1.24-5.42-2.96-6.41-5.19
						c-1-2.23-0.83-4.94,0.32-8.29c2.34-6.66,6.65-8.76,13.31-6.48l37.38,12.82l1-2.85l0.94-2.88l1.87-5.76l-37.58-12.2
						c-7.84-2.54-13.71-1.16-17.95,1.88C1642.86,1221.03,1640.07,1225.71,1638.56,1230.01z"/>
				</g>
			</g>
			<g>
				<g>
					<path class="st1" d="M1561.59,1344.27c7.78-12.8,15.32-25.76,22.19-39.08l2.62-4.97l2.51-5.03l4.99-10.06
						c3.13-6.8,6.43-13.53,9.35-20.43l91.55,40.23c-3.38,7.95-7.16,15.71-10.78,23.54l-5.75,11.6l-2.9,5.79l-3.02,5.73
						c-7.93,15.34-16.59,30.28-25.57,45.02L1561.59,1344.27z"/>
					<path d="M1647.7,1400.83c9.66-15.62,18.86-31.53,27.32-47.84l3.21-6.09l3.07-6.17c2.03-4.12,4.13-8.21,6.08-12.36l5.83-12.49
						c1.96-4.16,3.72-8.4,5.58-12.6l-97.22-42.25c-1.61,3.61-3.11,7.26-4.8,10.84l-5.01,10.74c-1.68,3.58-3.5,7.09-5.24,10.63
						l-2.64,5.31l-2.77,5.24c-7.27,14.04-15.19,27.73-23.51,41.18L1647.7,1400.83z M1690.82,1306.57
						c-1.59,3.72-3.31,7.37-5.02,11.03c-1.72,3.66-3.4,7.33-5.15,10.97l-5.39,10.86c-0.91,1.8-1.78,3.63-2.72,5.42l-2.83,5.36
						l-5.68,10.71l-5.91,10.58c-0.99,1.76-1.96,3.53-2.97,5.28l-3.08,5.22l-6.18,10.42l-80.29-48.88l5.41-9.13l2.7-4.57
						c0.89-1.53,1.73-3.08,2.6-4.62l5.18-9.26l4.96-9.38l2.48-4.69c0.82-1.57,1.58-3.16,2.38-4.74l4.72-9.5
						c1.54-3.18,3-6.4,4.51-9.6c1.5-3.2,3.01-6.4,4.39-9.65L1690.82,1306.57z"/>
				</g>
				<g>
					<path class="st1" d="M1628.07,1328.4L1628.07,1328.4L1628.07,1328.4z"/>
				</g>
				<g>
					<path d="M1607.27,1328.73c-4.78-2.59-6.46-3.16-9.61-3.27l-5.84,10.44l1.88,1.07c1.74-0.98,3.11-0.98,5.34,0.28
						c15.13,8.18,15.96,8.32,22.27,3.59c-0.85,6.76,1.69,11.89,7.88,15.41c2.82,1.6,6.62,2.87,10.49,2.35
						c3.85-0.53,7.88-2.82,10.88-8.4l7.36-13.95l7.02-14.12l-52.46-25.46l-4.96,9.98l20.63,10.43c-1.91,3.97-4.06,7.82-6.09,11.73
						c-2.33,4.42-5.16,5.33-9.45,3C1610.44,1330.62,1611.07,1330.79,1607.27,1328.73z M1633.5,1345.1
						c-5.94-3.25-5.17-6.73-2.92-11.01l3.29-6.24l1.64-3.12l1.57-3.16l13.56,6.86l-1.6,3.22l-1.68,3.19l-3.36,6.37
						C1641.66,1345.67,1639.2,1348.23,1633.5,1345.1z"/>
				</g>
			</g>
			<g>
				<g>
					<path class="st1" d="M1509.46,1417.45l7.05-8.76l1.76-2.19l1.71-2.23l3.42-4.46c4.63-5.9,8.95-12.02,13.39-18.06l6.41-9.23
						l3.2-4.62l3.09-4.7c2.05-3.14,4.15-6.24,6.15-9.4l5.95-9.53l85.2,52.35l-6.86,10.98c-2.31,3.64-4.72,7.22-7.08,10.83l-3.56,5.4
						l-3.68,5.33l-7.39,10.62c-5.1,6.96-10.09,14-15.41,20.79l-3.94,5.13l-1.97,2.57l-2.02,2.52l-8.12,10.08L1509.46,1417.45z"/>
					<path d="M1587.12,1485.2c11.65-14.19,22.87-28.74,33.56-43.67c10.6-15,20.74-30.32,30.33-45.98l-90.54-55.12
						c-8.26,13.48-16.99,26.67-26.11,39.59c-9.21,12.86-18.87,25.39-28.9,37.62L1587.12,1485.2z M1642.6,1397.67l-6.43,10.27
						l-6.66,10.12c-1.12,1.68-2.21,3.38-3.35,5.05l-3.45,4.98l-6.92,9.95l-7.14,9.79c-1.2,1.63-2.37,3.27-3.59,4.88l-3.68,4.81
						l-7.39,9.6l-7.6,9.44l-72.91-59.33l6.66-8.27l6.47-8.42l3.23-4.21c1.07-1.41,2.09-2.85,3.14-4.28l6.26-8.57l6.06-8.72
						l3.03-4.36c1-1.46,1.95-2.95,2.93-4.43l5.84-8.86l5.63-9L1642.6,1397.67z"/>
				</g>
			</g>
			<g>
				<g>
					<path class="st1" d="M1447.85,1482.89c22.02-20.35,42.54-42.31,61.61-65.44l77.31,63.43c-21.94,26.63-45.56,51.89-70.9,75.31
						L1447.85,1482.89z"/>
					<path d="M1515.63,1560.52c27.02-24.87,52.25-51.67,75.42-80.16l-82.22-66.9c-19.96,24.54-41.7,47.64-64.98,69.06
						L1515.63,1560.52z M1582.49,1481.37l-7.82,9.25c-1.31,1.54-2.59,3.1-3.93,4.61l-4.02,4.53c-2.69,3.01-5.34,6.06-8.06,9.04
						l-8.25,8.87c-1.38,1.47-2.74,2.97-4.15,4.42l-4.23,4.34c-2.83,2.88-5.63,5.8-8.48,8.65c-5.8,5.62-11.48,11.36-17.45,16.81
						l-64.22-68.64c5.24-4.76,10.2-9.81,15.3-14.72c2.5-2.5,4.95-5.06,7.43-7.58l3.71-3.8c1.24-1.26,2.42-2.58,3.63-3.87l7.24-7.77
						c2.38-2.62,4.7-5.29,7.06-7.93l3.53-3.97c1.17-1.32,2.29-2.7,3.44-4.04l6.86-8.11L1582.49,1481.37z"/>
				</g>
				<g>
					<path class="st1" d="M1516.18,1485.47L1516.18,1485.47L1516.18,1485.47z"/>
				</g>
			</g>
			<g>
				<g>
					<path class="st1" d="M1301.14,1585.92c6.62-3.51,13.28-6.93,19.78-10.66c6.58-3.58,12.98-7.47,19.44-11.27
						c3.21-1.93,6.36-3.96,9.55-5.93l4.77-2.97l4.7-3.09l9.38-6.19l9.24-6.41l57.46,81.84l-10.64,7.37l-10.8,7.13l-5.41,3.55
						l-5.49,3.43c-3.67,2.27-7.3,4.6-11,6.82c-7.43,4.39-14.82,8.85-22.4,12.99c-7.49,4.28-15.16,8.25-22.8,12.28L1301.14,1585.92z"
						/>
					<path d="M1345.52,1678.92c16.33-8.41,32.42-17.29,48.14-26.79c15.68-9.57,31.08-19.59,46.07-30.19l-61.27-86.5
						c-12.91,9.13-26.18,17.75-39.67,26c-13.54,8.17-27.39,15.81-41.43,23.06L1345.52,1678.92z M1431.19,1620.56
						c-13.21,9.31-26.86,17.98-40.63,26.43c-6.97,4.09-13.86,8.31-20.96,12.18c-3.53,1.96-7.04,3.97-10.6,5.88l-10.72,5.66
						l-43.39-83.39l9.38-4.95c3.12-1.67,6.18-3.44,9.27-5.15c6.22-3.38,12.24-7.09,18.35-10.66c12.05-7.41,24.01-14.98,35.58-23.15
						L1431.19,1620.56z"/>
				</g>
				<g>
					<path class="st1" d="M1366.24,1606.78L1366.24,1606.78z"/>
				</g>
				<g>
					<path d="M1342.03,1588.28c-3.18,1.93-6.44,3.7-9.68,5.52l28.53,50.86c3.52-1.97,7.06-3.91,10.51-5.99l-19.97-34.28
						c6.49,3.84,13.08,7.63,19.75,11.37c6.67,3.73,13.35,7.28,20.17,10.85c3.51-2.2,7.04-4.35,10.48-6.66l-31.76-48.9
						c-3.08,2.08-6.25,4.01-9.4,5.98l21.4,34.16c-6.84-3.67-13.54-7.34-20.23-11.18
						C1355.14,1596.14,1348.54,1592.24,1342.03,1588.28z"/>
				</g>
			</g>
			<g>
				<g>
					<path class="st1" d="M1376.65,1540.34l4.62-3.2l4.54-3.31c3.02-2.22,6.07-4.39,9.07-6.64c5.93-4.58,11.94-9.06,17.73-13.83
						c5.89-4.64,11.56-9.54,17.3-14.37c2.85-2.43,5.62-4.96,8.43-7.44l4.21-3.73l4.12-3.83l67.84,73.47l-4.74,4.4l-4.84,4.3
						c-3.24,2.85-6.43,5.75-9.71,8.56c-6.59,5.57-13.13,11.19-19.9,16.54c-6.67,5.48-13.57,10.65-20.41,15.91
						c-3.45,2.59-6.96,5.1-10.44,7.65l-5.23,3.81l-5.32,3.69L1376.65,1540.34z"/>
					<path d="M1433.07,1626.56c7.6-5.16,14.96-10.64,22.39-16.05c7.28-5.59,14.64-11.09,21.73-16.92
						c7.21-5.69,14.15-11.69,21.17-17.61c6.86-6.1,13.8-12.11,20.46-18.43l-72.23-77.59c-5.73,5.46-11.72,10.62-17.62,15.89
						c-6.06,5.09-12.03,10.28-18.24,15.17c-6.1,5.03-12.45,9.75-18.72,14.58c-6.4,4.64-12.73,9.38-19.28,13.81L1433.07,1626.56z
						 M1510.2,1557.38c-11.96,10.86-24.14,21.48-36.77,31.55c-6.24,5.13-12.69,9.99-19.1,14.91c-1.59,1.24-3.22,2.44-4.86,3.62
						l-4.89,3.57c-3.28,2.36-6.49,4.81-9.84,7.07l-54.14-76.84c2.93-1.98,5.74-4.13,8.62-6.2l4.29-3.13
						c1.44-1.03,2.86-2.08,4.25-3.17c5.61-4.31,11.27-8.56,16.73-13.06c11.08-8.81,21.74-18.13,32.22-27.64L1510.2,1557.38z"/>
				</g>
				<g>
					<path class="st1" d="M1443.96,1552.31L1443.96,1552.31L1443.96,1552.31z"/>
				</g>
				<g>
					<path d="M1424.87,1529.06c-1.77,1.43-3.54,3.19-5.04,5.23c-1.52,2.01-2.8,4.27-3.53,6.79c-1.47,5.03-0.84,11.05,4.11,17.64
						l23.78,31.56l9.6-7.36l-24.29-31.16c-2.16-2.78-3.08-5.35-2.77-7.76c0.29-2.44,1.8-4.74,4.56-6.95
						c2.75-2.22,5.32-3.2,7.76-2.97c2.45,0.24,4.74,1.66,6.99,4.38l25.22,30.42l9.24-7.81l-25.72-30
						c-5.37-6.25-11.11-8.15-16.34-7.79c-2.63,0.17-5.08,0.96-7.4,1.98C1428.74,1526.28,1426.64,1527.63,1424.87,1529.06z"/>
				</g>
				<g>
					<path d="M1506.49,1493.03l-18.97-18.47c-2.61,2.64-5.16,5.35-7.82,7.94l41.11,41.35c2.91-2.83,5.69-5.79,8.54-8.67
						l-15.65-15.23c5.31-5.32,10.35-10.89,15.49-16.38l16.12,14.73c2.75-2.95,5.38-6.01,8.07-9.01l-43.67-38.64
						c-2.48,2.76-4.89,5.59-7.43,8.31l19.54,17.86C1516.74,1482.25,1511.75,1487.76,1506.49,1493.03z"/>
				</g>
			</g>
			<g>
				<g>
					<path class="st1" d="M1218.67,1621.44c28.28-9.86,55.8-21.88,82.47-35.52l45.79,88.9c-30.73,15.73-62.46,29.56-95.07,40.95
						L1218.67,1621.44z"/>
					<path d="M1249.91,1719.64c34.73-12.04,68.56-26.65,101.15-43.6l-48.92-94.03c-28.05,14.59-57.14,27.15-87,37.5L1249.91,1719.64
						z M1342.8,1673.57c-7.25,3.57-14.43,7.29-21.79,10.63c-3.67,1.7-7.31,3.44-11,5.1l-11.11,4.86c-1.85,0.8-3.7,1.64-5.56,2.41
						l-5.61,2.3l-11.23,4.57l-11.33,4.31l-5.67,2.14l-5.72,2.02l-31.57-88.54l5-1.76l4.96-1.88l9.92-3.77l9.82-4l4.91-2
						c1.63-0.67,3.24-1.41,4.87-2.11l9.72-4.25c3.22-1.45,6.41-2.98,9.62-4.47c6.45-2.91,12.72-6.19,19.07-9.3L1342.8,1673.57z"/>
				</g>
				<g>
					<g>
						<path d="M1288.35,1616.41c-3.2,1.48-6.38,3.02-9.6,4.45l-9.7,4.24c-3.76,1.69-6.68,3.42-8.84,5.49
							c-2.16,2.08-3.57,4.5-4.4,7.38c-1.98,6.72-1.35,14.91,1.94,23.33c3.25,8.34,8.41,14.9,14.75,18.24
							c2.69,1.45,5.52,2.11,8.72,1.98c3.2-0.13,6.79-1.03,10.91-2.87l10.53-4.61c3.5-1.56,6.95-3.22,10.43-4.83L1288.35,1616.41z
							 M1282.33,1630.21l15.68,34.96l-9.84,4.31c-4.11,1.83-7.85,1.63-11.12-0.48c-3.28-2.1-6.11-6.13-8.55-12.09
							c-2.42-5.92-3.23-10.75-2.48-14.5c0.76-3.74,3.1-6.38,6.98-8.12L1282.33,1630.21z"/>
					</g>
				</g>
			</g>
			<g>
				<g>
					<g>
						<path class="st1" d="M1132.14,1645.39c29.32-6.09,58.3-13.92,86.53-23.95l33.19,94.33c-32.55,11.56-65.96,20.61-99.77,27.61
							L1132.14,1645.39z"/>
					</g>
					<g>
						<path d="M1149.62,1746.91c36.03-7.21,71.57-16.97,106.18-29.35l-35.6-99.84c-29.76,10.65-60.31,19.03-91.3,25.24
							L1149.62,1746.91z M1247.94,1713.97l-5.72,2.01l-5.77,1.88l-11.53,3.74l-11.62,3.47l-5.81,1.73c-1.94,0.56-3.9,1.07-5.85,1.6
							l-11.71,3.17c-3.91,1.01-7.85,1.94-11.77,2.91c-7.83,2-15.76,3.6-23.65,5.35l-19.13-92.03c6.9-1.54,13.84-2.92,20.69-4.68
							c3.43-0.85,6.88-1.65,10.3-2.54l10.24-2.77c1.7-0.47,3.42-0.91,5.12-1.4l5.08-1.51l10.17-3.03l10.09-3.28l5.04-1.63l5-1.76
							L1247.94,1713.97z"/>
					</g>
				</g>
				<g>
					<g>
						<path class="st1" d="M1189.13,1683.08L1189.13,1683.08z"/>
					</g>
				</g>
				<g>
					<g>
						<path d="M1174.67,1668.1c-1.37-5.26-2.11-6.89-4.17-9.23l-11.61,2.84l0.5,2.1c1.91,0.6,2.84,1.61,3.45,4.1
							c4.36,16.64,4.83,17.35,12.6,18.74c-5.52,3.98-7.54,9.33-5.88,16.25c0.76,3.15,2.42,6.8,5.45,9.28
							c1.51,1.24,3.37,2.19,5.62,2.64c1.12,0.22,2.35,0.33,3.67,0.28c1.32-0.07,2.74-0.31,4.27-0.72
							c5.07-1.39,10.16-2.71,15.21-4.16l15.12-4.5l-17.26-55.7l-10.68,3.17l6.48,22.19c-4.21,1.3-8.47,2.42-12.72,3.57
							c-4.82,1.31-7.42-0.15-8.65-4.87C1175.45,1671.7,1175.76,1672.28,1174.67,1668.1z M1180.63,1698.47
							c-1.69-6.59,1.37-8.41,6.04-9.67c4.54-1.23,9.08-2.42,13.58-3.81l4.26,14.59c-4.59,1.42-9.23,2.63-13.87,3.89
							C1185.79,1704.78,1182.24,1704.74,1180.63,1698.47z"/>
					</g>
				</g>
			</g>
			<g>
				<g>
					<g>
						<path class="st1" d="M1043.08,1657.21c29.94-1.83,59.68-5.96,89.06-11.82l19.95,97.99c-33.86,6.77-68.13,11.5-102.57,13.62
							L1043.08,1657.21z"/>
					</g>
					<g>
						<path d="M1046.6,1760.19c36.65-2.16,73.15-7.1,109.14-14.51l-21.57-103.78c-30.96,6.37-62.36,10.64-93.96,12.49
							L1046.6,1760.19z M1148.45,1741.03l-11.91,2.28l-2.98,0.56l-2.99,0.5l-5.98,0.99c-3.99,0.64-7.96,1.38-11.97,1.92l-12,1.68
							c-4,0.6-8.01,1.03-12.03,1.49l-12.04,1.36l-12.07,1.07l-6.03,0.53l-6.04,0.4l-6.43-93.78l5.3-0.34l5.29-0.47l10.57-0.94
							l10.55-1.19c3.51-0.4,7.03-0.77,10.53-1.3l10.51-1.47c3.51-0.47,6.98-1.13,10.48-1.68l5.23-0.87l2.62-0.43l2.6-0.5l10.42-2
							L1148.45,1741.03z"/>
					</g>
				</g>
				<g>
					<g>
						<path class="st1" d="M1094.42,1702.37L1094.42,1702.37z"/>
					</g>
				</g>
				<g>
					<g>
						<path d="M1101.98,1698.16c-4.44,0.61-8.87,1.27-13.32,1.83l-13.36,1.53l1.06,9.94l13.54-1.55c4.51-0.57,9-1.24,13.51-1.86
							l1.89,13.06c-4.95,0.67-9.89,1.44-14.86,2.02l-14.9,1.7l1.02,9.95l10.56-1.2c3.52-0.41,7.04-0.77,10.55-1.3
							c7.01-1.01,14.05-1.87,21.02-3.1l-9.3-57.56l-4.99,0.83c-1.66,0.27-3.34,0.48-5.01,0.72l-10.02,1.4
							c-3.34,0.51-6.7,0.81-10.05,1.22l-10.06,1.14l1.01,9.95l14.79-1.68c2.47-0.26,4.92-0.61,7.38-0.96l7.37-1.03L1101.98,1698.16z
							"/>
					</g>
				</g>
			</g>
			<g>
				<g>
					<g>
						<path class="st1" d="M864.17,1644.6c14.67,3.01,29.41,5.71,44.27,7.68c7.41,1.13,14.87,1.87,22.31,2.75
							c3.72,0.43,7.46,0.68,11.19,1.04c3.73,0.32,7.46,0.71,11.21,0.9l-7,99.75c-4.31-0.23-8.6-0.66-12.9-1.03
							c-4.29-0.4-8.6-0.71-12.88-1.2c-8.57-0.99-17.16-1.88-25.69-3.16c-17.11-2.29-34.11-5.38-51.01-8.86L864.17,1644.6z"/>
					</g>
					<g>
						<path d="M839.99,1744.75l6.73,1.46l6.77,1.3c4.51,0.85,9.02,1.77,13.54,2.55l13.59,2.25l3.4,0.56l3.41,0.48l6.82,0.96
							c9.08,1.37,18.22,2.28,27.34,3.35l13.71,1.24c2.29,0.19,4.57,0.42,6.86,0.59l6.87,0.44l7-105.77l-5.92-0.37
							c-1.97-0.14-3.94-0.34-5.91-0.51l-11.82-1.06c-7.85-0.94-15.72-1.7-23.54-2.89l-5.87-0.82l-2.94-0.41l-2.92-0.49l-11.7-1.94
							c-3.9-0.66-7.76-1.47-11.65-2.19l-5.82-1.11l-5.79-1.26L839.99,1744.75z M943.27,1753.53c-32.21-2.42-64.29-6.91-95.97-13.34
							l18.9-92.08c27.72,5.61,55.8,9.55,84.03,11.68L943.27,1753.53z"/>
					</g>
				</g>
			</g>
			<g>
				<g>
					<g>
						<path class="st1" d="M953.15,1656.97l11.22,0.71c3.74,0.23,7.49,0.3,11.24,0.47c7.49,0.38,15,0.35,22.5,0.47
							c15-0.06,30.01-0.35,44.97-1.42l6.44,99.79c-17.21,1.21-34.46,1.57-51.69,1.62c-8.62-0.13-17.24-0.12-25.85-0.54
							c-4.31-0.18-8.62-0.28-12.92-0.54l-12.91-0.82L953.15,1656.97z"/>
					</g>
					<g>
						<path d="M942.82,1759.52c9.16,0.57,18.32,1.25,27.49,1.51l6.88,0.26l3.44,0.12l3.44,0.05l13.76,0.17
							c4.59,0.05,9.17-0.08,13.76-0.12l6.88-0.09c2.29-0.03,4.58-0.16,6.88-0.23l13.75-0.53l13.74-0.87l-7.25-105.75l-11.84,0.75
							l-11.86,0.45c-1.98,0.06-3.95,0.18-5.93,0.2l-5.94,0.07c-3.96,0.03-7.92,0.15-11.88,0.1l-11.88-0.15l-2.97-0.04l-2.97-0.11
							l-5.93-0.23c-7.91-0.21-15.8-0.82-23.7-1.29L942.82,1759.52z M1046.24,1754.2c-8.06,0.6-16.13,0.77-24.19,1.1
							c-2.02,0.09-4.03,0.12-6.05,0.14l-6.05,0.08c-4.03,0.03-8.07,0.15-12.1,0.1l-12.1-0.15c-2.02-0.04-4.04-0.03-6.05-0.1
							l-6.05-0.23l-12.1-0.46l-12.09-0.75l6.2-93.8l10.6,0.67l10.61,0.4l5.31,0.2c1.77,0.06,3.54,0.05,5.31,0.08l10.63,0.14
							c3.54,0.05,7.08-0.07,10.63-0.09l5.31-0.07c1.77-0.02,3.54-0.04,5.31-0.12c7.07-0.31,14.16-0.43,21.22-0.97L1046.24,1754.2z"
							/>
					</g>
				</g>
				<g>
					<g>
						<path class="st1" d="M997.97,1708.62L997.97,1708.62z"/>
					</g>
				</g>
				<g>
					<g>
						<path d="M1019.16,1680.12c-3.53,0.13-7.06,0.11-10.59,0.17c-3.53,0.02-7.06,0.14-10.59,0.08c-8.25-0.13-13.47,1.95-17.28,6.54
							c-4.49,5.27-7.17,13.09-7.51,22.13c-0.34,8.95,1.79,16.96,6.27,22.65c3.78,4.85,9.32,6.86,18.35,6.99
							c3.83,0.06,7.66-0.06,11.48-0.09c3.83-0.07,7.66-0.06,11.48-0.19L1019.16,1680.12z M1008.13,1690.3l0.44,38.31
							c-3.58,0.02-7.16,0.14-10.74,0.08c-9.01-0.11-13.33-6.49-13.03-19.36c0.29-12.79,4.65-19.06,13.15-18.95
							C1001.34,1690.44,1004.73,1690.32,1008.13,1690.3z"/>
					</g>
				</g>
			</g>
			<g>
				<g>
					<g>
						<path class="st1" d="M777.77,1620.18l10.59,3.73l10.68,3.47l5.34,1.73l5.38,1.6c3.59,1.06,7.17,2.16,10.77,3.18
							c7.24,1.92,14.43,4.01,21.73,5.69c3.64,0.86,7.26,1.83,10.92,2.62l10.98,2.39l-20.51,97.87l-12.65-2.76
							c-4.22-0.91-8.4-2.01-12.59-3.01c-8.41-1.96-16.71-4.34-25.05-6.57c-4.15-1.18-8.28-2.44-12.42-3.66l-6.21-1.85l-6.16-1.99
							l-12.31-4.01l-12.22-4.3L777.77,1620.18z"/>
					</g>
					<g>
						<path d="M740.08,1716.11c17.27,6.28,34.8,11.84,52.46,16.92c17.7,4.96,35.57,9.28,53.55,13.05l21.32-103.83
							c-15.47-3.25-30.83-6.97-46.05-11.22c-15.18-4.38-30.25-9.15-45.1-14.55L740.08,1716.11z M841.25,1738.88l-11.85-2.58
							l-11.78-2.87l-5.89-1.44l-5.86-1.57l-11.7-3.17c-15.52-4.51-30.99-9.24-46.2-14.72l31.35-88.62
							c13.3,4.81,26.84,8.93,40.41,12.88l10.24,2.77l5.12,1.38l5.15,1.25l10.3,2.52l10.37,2.25L841.25,1738.88z"/>
					</g>
				</g>
				<g>
					<g>
						<path class="st1" d="M806.95,1682.02L806.95,1682.02L806.95,1682.02z"/>
					</g>
				</g>
				<g>
					<g>
						<path d="M815.57,1681.12c-8.67-2.25-17.24-4.91-25.82-7.46l-2.98,9.54c8.71,2.59,17.39,5.28,26.19,7.57l-3.44,12.74
							c-4.83-1.3-9.66-2.58-14.44-4.05l-7.19-2.14c-2.4-0.72-4.8-1.41-7.17-2.2l-3.01,9.54c3.36,1.13,6.78,2.06,10.17,3.1
							l10.19,3.02l10.26,2.78c3.42,0.91,6.83,1.89,10.28,2.7l14.27-56.54c-3.29-0.76-6.53-1.71-9.79-2.57l-9.76-2.65l-9.7-2.89
							c-3.23-0.96-6.47-1.9-9.67-2.98l-3.02,9.53l3.54,1.15l3.57,1.07l7.13,2.12c2.38,0.69,4.75,1.45,7.14,2.09l7.18,1.94
							L815.57,1681.12z"/>
					</g>
				</g>
			</g>
			<g>
				<g>
					<g>
						<path class="st1" d="M695.52,1584.16l4.97,2.62l5.03,2.5c3.36,1.65,6.69,3.36,10.07,4.97c6.8,3.15,13.54,6.41,20.44,9.33
							l5.15,2.25l2.57,1.12l2.6,1.06l10.4,4.25c3.46,1.42,6.99,2.68,10.48,4.03c3.5,1.34,6.99,2.68,10.54,3.89l-33.74,94.14
							c-4.09-1.4-8.12-2.94-12.15-4.48c-4.03-1.55-8.09-3.02-12.08-4.65l-11.99-4.9l-3-1.23l-2.97-1.29l-5.93-2.59
							c-7.94-3.38-15.73-7.12-23.55-10.76c-3.9-1.86-7.74-3.82-11.61-5.73l-5.8-2.88l-5.73-3.01L695.52,1584.16z"/>
					</g>
					<g>
						<path d="M645.07,1674c8.08,4.37,16.36,8.36,24.58,12.46c8.33,3.87,16.6,7.87,25.06,11.47c8.38,3.77,16.92,7.16,25.42,10.64
							l12.88,4.91c4.28,1.67,8.62,3.18,12.95,4.71l35.35-99.93c-3.73-1.31-7.46-2.6-11.14-4.05l-11.07-4.22
							c-7.31-3.01-14.66-5.9-21.86-9.16c-7.28-3.08-14.39-6.54-21.56-9.86c-7.06-3.54-14.19-6.96-21.14-10.73L645.07,1674z
							 M742.13,1710.47c-15.16-5.6-30.24-11.47-45.01-18.04c-7.44-3.17-14.74-6.64-22.06-10.06l-2.74-1.29l-2.71-1.35l-5.43-2.7
							l-5.43-2.7l-2.71-1.35l-2.68-1.41l43.18-83.5l2.35,1.24l2.38,1.18l4.75,2.36l4.75,2.36l2.37,1.18l2.4,1.12
							c6.41,2.98,12.79,6.04,19.3,8.8c12.92,5.75,26.11,10.88,39.37,15.78L742.13,1710.47z"/>
					</g>
				</g>
				<g>
					<g>
						<path class="st1" d="M715.98,1649.38L715.98,1649.38z"/>
					</g>
				</g>
				<g>
					<g>
						<path d="M698.44,1674.53l11.09,4.85l22.95-53.61l-10.21-4.46L698.44,1674.53z"/>
					</g>
				</g>
			</g>
			<g>
				<g>
					<g>
						<path class="st1" d="M618.9,1537.26c6.18,4.23,12.26,8.62,18.57,12.67c3.14,2.04,6.23,4.17,9.42,6.14l9.53,5.95
							c1.58,1.01,3.19,1.96,4.81,2.91l4.84,2.86c3.23,1.9,6.43,3.84,9.72,5.63l9.81,5.48l9.93,5.25l-46.3,88.64l-11.44-6.06
							l-11.3-6.31c-3.79-2.07-7.49-4.29-11.2-6.49l-5.57-3.3c-1.86-1.09-3.71-2.2-5.54-3.35l-10.98-6.85
							c-3.67-2.27-7.23-4.71-10.85-7.06c-7.26-4.67-14.27-9.7-21.38-14.59L618.9,1537.26z"/>
					</g>
					<g>
						<path d="M556.71,1619.39c1.84,1.37,3.73,2.68,5.62,3.98l5.66,3.92l5.66,3.92l5.74,3.8c3.84,2.51,7.65,5.08,11.53,7.54
							l11.68,7.29c1.94,1.23,3.91,2.4,5.89,3.56l5.93,3.51l5.93,3.5l6,3.38c4.02,2.23,8,4.51,12.05,6.68l12.19,6.43l48.69-94.15
							l-10.49-5.53c-3.48-1.87-6.91-3.84-10.36-5.76l-5.17-2.9l-5.1-3.02l-5.1-3.02c-1.7-1-3.41-2-5.07-3.07l-10.06-6.28
							c-3.34-2.11-6.61-4.33-9.92-6.49l-4.95-3.27l-4.87-3.38l-4.87-3.38c-1.63-1.12-3.25-2.24-4.84-3.43L556.71,1619.39z
							 M647.87,1668.69l-5.36-2.83l-2.68-1.42l-2.65-1.48l-10.58-5.91c-3.55-1.93-6.98-4.07-10.47-6.1l-5.22-3.09
							c-1.74-1.02-3.48-2.06-5.18-3.14c-6.85-4.28-13.74-8.51-20.45-13.01l-5.06-3.33c-1.69-1.1-3.37-2.22-5.02-3.39l-9.96-6.9
							l54.14-76.84l8.72,6.05c1.44,1.02,2.92,2,4.4,2.97l4.43,2.92c5.87,3.96,11.91,7.64,17.9,11.4c1.49,0.95,3.01,1.86,4.54,2.75
							l4.57,2.7c3.06,1.78,6.06,3.66,9.17,5.34l9.26,5.18l2.32,1.29l2.35,1.24l4.69,2.47L647.87,1668.69z"/>
					</g>
				</g>
				<g>
					<g>
						<path class="st1" d="M630.29,1604.65L630.29,1604.65L630.29,1604.65z"/>
					</g>
				</g>
				<g>
					<g>
						<path d="M612.17,1607l-9.27-6.09c-2.72,5.39-3.1,11.01-1.28,16.27c0.9,2.65,2.39,5.15,4.41,7.46
							c2.01,2.32,4.55,4.46,7.56,6.34c0.9,0.56,1.81,1.07,2.72,1.53c0.92,0.44,1.85,0.82,2.78,1.16c1.86,0.67,3.73,1.13,5.59,1.38
							c3.71,0.52,7.38,0.22,10.85-0.85c6.99-2.21,13.19-7.52,17.62-15.44c4.33-7.71,5.65-15.71,4.4-22.64
							c-1.2-7.05-5.02-12.96-11.25-16.75c-6.15-3.87-11.81-4.01-18.88-0.81l3.05-7.19l-5.59-3.68l-17.4,26.28
							c3.16,2.07,6.31,4.18,9.49,6.22l9.63,6.01l5.25-8.51l-10.78-6.75c6.82-8.71,16.45-5,18.8-3.52c0.97,0.6,1.83,1.3,2.59,2.07
							c0.77,0.76,1.44,1.59,2,2.49c1.13,1.81,1.84,3.89,2.12,6.16c0.56,4.54-0.58,9.81-3.6,14.99c-3.16,5.42-6.99,9.01-11.15,10.58
							c-2.08,0.79-4.24,1.07-6.42,0.83c-2.19-0.23-4.4-0.99-6.53-2.35C611.84,1617.83,610.89,1612.05,612.17,1607z"/>
					</g>
				</g>
			</g>
			<g>
				<g>
					<g>
						<path class="st1" d="M549.38,1480.31l8.24,7.65l8.41,7.46c2.77,2.52,5.67,4.91,8.52,7.33l4.29,3.63l2.14,1.82l2.19,1.76
							l8.76,7.05c2.92,2.35,5.93,4.58,8.9,6.87l4.46,3.42c1.49,1.14,3.02,2.21,4.53,3.33l9.08,6.62l-57.93,81.51l-10.46-7.62
							c-1.74-1.28-3.5-2.53-5.21-3.83l-5.14-3.93c-3.41-2.64-6.88-5.21-10.24-7.92l-10.08-8.12l-2.52-2.03l-2.47-2.09l-4.94-4.18
							c-3.29-2.79-6.61-5.54-9.81-8.44l-9.68-8.59l-9.48-8.8L549.38,1480.31z"/>
					</g>
					<g>
						<path d="M476.61,1553.29l10.08,9.38c3.38,3.1,6.85,6.11,10.27,9.17c1.72,1.52,3.42,3.06,5.16,4.55l5.26,4.45l5.26,4.44
							c1.75,1.49,3.51,2.96,5.31,4.39l10.73,8.64c3.6,2.84,7.27,5.6,10.91,8.41c1.83,1.39,3.63,2.81,5.48,4.17l5.56,4.06l5.56,4.06
							l2.78,2.03l2.83,1.97l61.05-86.65l-2.44-1.69l-2.39-1.75l-4.79-3.5l-4.79-3.49c-1.59-1.17-3.14-2.4-4.72-3.59
							c-3.13-2.42-6.29-4.79-9.4-7.24l-9.24-7.44c-1.55-1.22-3.07-2.49-4.57-3.78l-4.53-3.83l-4.53-3.83
							c-1.5-1.29-2.96-2.62-4.45-3.93c-2.95-2.64-5.94-5.22-8.85-7.9l-8.68-8.08L476.61,1553.29z M560.2,1614.51
							c-6.53-4.76-13.09-9.47-19.45-14.45l-4.81-3.69c-1.61-1.22-3.2-2.46-4.76-3.74l-9.44-7.6l-2.36-1.9l-2.32-1.95l-4.63-3.91
							l-4.62-3.91l-2.31-1.96l-2.27-2.01l-9.06-8.04l-2.26-2.01l-2.22-2.06l-4.43-4.13l64.05-68.8l3.88,3.62l1.94,1.81l1.99,1.76
							l7.94,7.05l1.98,1.76l2.03,1.71l4.05,3.43l4.05,3.43l2.03,1.71l2.07,1.66l8.27,6.66c1.37,1.12,2.76,2.21,4.17,3.28l4.21,3.23
							c5.57,4.37,11.33,8.49,17.04,12.66L560.2,1614.51z"/>
					</g>
				</g>
				<g>
					<g>
						<path class="st1" d="M551.51,1548.66L551.51,1548.66z"/>
					</g>
				</g>
				<g>
					<g>
						<path d="M543.98,1540.08l17.09-20.22l-4.26-3.6l-2.13-1.8l-2.08-1.85l-38.36,43.92l2.28,2.02l2.32,1.97l4.65,3.93l14.09-16.68
							l4.3,3.64l2.15,1.82l2.19,1.77l8.78,7.07l-13.57,17.11c3.11,2.56,6.37,4.94,9.55,7.42l35.47-46.28
							c-2.93-2.28-5.94-4.47-8.8-6.84l-16.45,20.75l-8.69-6.99l-2.17-1.75l-2.13-1.8L543.98,1540.08z"/>
					</g>
				</g>
			</g>
			<g>
				<g>
					<g>
						<path class="st1" d="M488.17,1414.51l3.52,4.38l3.63,4.29c2.43,2.85,4.82,5.74,7.27,8.57c4.99,5.59,9.89,11.27,15.06,16.69
							c5.05,5.54,10.34,10.85,15.57,16.22c2.63,2.67,5.35,5.25,8.02,7.88l4.02,3.93l4.11,3.84l-68.44,72.91l-4.73-4.42l-4.63-4.52
							c-3.07-3.02-6.2-6-9.23-9.07c-6.03-6.17-12.1-12.3-17.92-18.67c-5.94-6.26-11.6-12.77-17.33-19.22
							c-2.83-3.26-5.58-6.57-8.38-9.86l-4.17-4.94l-4.06-5.04L488.17,1414.51z"/>
					</g>
					<g>
						<path d="M406.21,1476.95c5.69,7.21,11.68,14.16,17.61,21.18c6.09,6.86,12.1,13.81,18.42,20.47
							c6.19,6.78,12.67,13.28,19.08,19.86c6.57,6.41,13.07,12.9,19.85,19.09l72.23-77.58c-5.85-5.32-11.43-10.93-17.11-16.44
							c-5.51-5.68-11.11-11.26-16.43-17.11c-5.45-5.73-10.62-11.73-15.88-17.63c-5.09-6.05-10.27-12.03-15.16-18.25L406.21,1476.95z
							 M480.73,1548.93c-11.69-11.15-23.15-22.54-34.1-34.42c-5.56-5.86-10.87-11.94-16.24-17.98c-2.7-3-5.24-6.14-7.87-9.21
							c-2.59-3.1-5.26-6.13-7.76-9.3l72.77-59.5c2.18,2.78,4.53,5.44,6.8,8.15c2.31,2.68,4.52,5.44,6.9,8.07
							c4.71,5.29,9.35,10.63,14.23,15.76c9.58,10.42,19.64,20.39,29.88,30.17L480.73,1548.93z"/>
					</g>
				</g>
				<g>
					<g>
						<path class="st1" d="M481.05,1482.5L481.05,1482.5L481.05,1482.5z"/>
					</g>
				</g>
				<g>
					<g>
						<path d="M462.05,1491.54c-3.82-4.16-7.52-8.43-11.28-12.64l-7.53,6.57c5.21,5.87,10.37,11.78,15.78,17.47
							c2.69,2.85,5.31,5.78,8.07,8.57l8.22,8.42l7.1-7.04l-6.14-6.29c-2.05-2.09-4.1-4.18-6.08-6.35l35.12-33.17l-7.59-8.16
							L462.05,1491.54z"/>
					</g>
				</g>
			</g>
			<g>
				<g>
					<g>
						<path class="st1" d="M436.42,1341.06l5.94,9.54l2.98,4.76l3.09,4.69c2.07,3.12,4.09,6.28,6.21,9.37l6.4,9.24
							c8.69,12.21,17.61,24.27,27.12,35.85l-77.67,62.99c-10.94-13.34-21.23-27.21-31.22-41.27l-7.37-10.64
							c-2.44-3.56-4.77-7.19-7.15-10.79l-3.56-5.41l-3.44-5.48l-6.84-10.99L436.42,1341.06z"/>
					</g>
					<g>
						<path d="M346.76,1391.79c2.3,3.98,4.81,7.82,7.22,11.73c2.43,3.9,4.85,7.8,7.41,11.61c2.53,3.83,5.03,7.68,7.59,11.49
							l7.85,11.32l1.96,2.83l2.02,2.79l4.06,5.56l4.06,5.56c1.35,1.86,2.78,3.65,4.16,5.48c2.8,3.64,5.57,7.3,8.4,10.91l8.64,10.73
							l82.06-67.1l-7.44-9.24c-2.44-3.11-4.82-6.27-7.23-9.4c-1.19-1.58-2.43-3.12-3.59-4.72l-3.49-4.79l-3.5-4.79l-1.75-2.4
							l-1.69-2.44l-6.76-9.75l-6.53-9.9c-2.21-3.28-4.29-6.64-6.37-10c-2.07-3.37-4.25-6.67-6.21-10.1L346.76,1391.79z
							 M410.89,1473.19c-20.32-25.13-38.85-51.68-55.78-79.2l80.17-49.08c14.84,24.09,31.06,47.36,48.86,69.37L410.89,1473.19z"/>
					</g>
				</g>
				<g>
					<g>
						<path class="st1" d="M420.16,1407.44L420.16,1407.44L420.16,1407.44z"/>
					</g>
				</g>
				<g>
					<g>
						<path d="M421.86,1398.23c-6.7,1.04-13.52,2.06-20.24,2.94c-6.74,0.88-13.53,1.7-20.36,2.46c2.5,3.76,4.92,7.57,7.5,11.29
							c9.23-1.76,18.38-3.62,27.46-5.59c-4.85,8.14-9.49,16.29-14.08,24.57l3.97,5.44l1.99,2.72l2.05,2.67
							c2.88-6.25,5.92-12.52,8.98-18.7c3.06-6.19,6.17-12.31,9.33-18.36l17.57-12.56c-2.18-3.01-4.25-6.1-6.38-9.14L421.86,1398.23z
							"/>
					</g>
				</g>
			</g>
			<g>
				<g>
					<g>
						<path class="st1" d="M365.32,1176.59c0.93,3.63,2.05,7.2,3.11,10.79l1.6,5.38c0.53,1.8,1.06,3.59,1.66,5.37l3.47,10.68
							c0.56,1.79,1.17,3.56,1.81,5.32l1.87,5.3c2.4,7.09,5.17,14.05,7.81,21.06c1.37,3.49,2.82,6.94,4.23,10.41l2.12,5.2l2.25,5.15
							l-91.78,39.7l-2.58-5.94l-2.45-5.99c-1.62-4-3.29-7.98-4.87-12c-3.05-8.08-6.22-16.11-9.01-24.28l-2.15-6.11
							c-0.73-2.03-1.43-4.07-2.08-6.13l-4-12.32c-0.68-2.05-1.3-4.12-1.91-6.19l-1.85-6.21c-1.22-4.14-2.5-8.27-3.58-12.44
							L365.32,1176.59z"/>
					</g>
					<g>
						<path d="M265.26,1201.13l1.8,6.65c0.62,2.21,1.3,4.41,1.94,6.61c1.32,4.4,2.59,8.82,3.96,13.2c2.84,8.74,5.61,17.5,8.74,26.14
							c2.97,8.7,6.35,17.24,9.61,25.83c3.49,8.5,6.86,17.05,10.63,25.43l97.11-42.49c-3.25-7.2-6.13-14.56-9.15-21.87
							c-2.78-7.39-5.72-14.73-8.25-22.22c-2.71-7.42-5.07-14.96-7.52-22.47c-1.17-3.77-2.26-7.57-3.4-11.35
							c-0.56-1.89-1.14-3.78-1.68-5.68l-1.54-5.72L265.26,1201.13z M304.97,1296.92l-1.21-2.78l-1.15-2.81l-2.29-5.61l-2.29-5.61
							c-0.77-1.87-1.53-3.74-2.23-5.64c-2.87-7.56-5.81-15.09-8.42-22.74c-5.48-15.21-10.21-30.68-14.7-46.21l90.47-25.52
							c3.94,13.58,8.06,27.11,12.86,40.42c2.27,6.7,4.86,13.28,7.36,19.89c0.61,1.66,1.27,3.3,1.95,4.93l2.01,4.91l2,4.91l1,2.46
							l1.06,2.43L304.97,1296.92z"/>
					</g>
				</g>
				<g>
					<g>
						<path class="st1" d="M331.69,1236.08L331.69,1236.08L331.69,1236.08z"/>
					</g>
				</g>
				<g>
					<g>
						<path d="M313.2,1219.78c-7.58,2.42-10.98,7.12-12.1,12.36c-1.18,5.26,0.17,10.92,1.66,15.23c2.3,6.69,5.87,11.32,10.07,13.77
							c4.21,2.45,9.09,2.7,14.38,0.63c8.44-3.3,10.9-9.03,9.03-20.47l-1.1-7.95c-0.56-3.88-0.55-6.66,0.18-8.66
							c0.76-2.01,2.19-3.23,4.43-3.98c2.32-0.77,4.49-0.38,6.38,1c1.91,1.37,3.53,3.73,4.67,6.95c1.28,3.61,1.44,6.72,0.62,9.24
							c-0.8,2.51-2.65,4.45-5.5,5.72l3.95,10.4c5.69-2.59,9.4-6.39,11.09-11.12c0.85-2.36,1.18-4.96,1.01-7.76
							c-0.19-2.8-0.75-5.87-1.91-9.11c-1.15-3.28-2.62-6.08-4.31-8.4c-1.64-2.33-3.55-4.16-5.68-5.48
							c-4.26-2.63-9.41-3.2-15.05-1.42c-8.76,2.76-11.99,8.48-10.66,19.15l1.29,8.97c1.16,8.46,0.51,11.31-3.47,12.78
							c-2.06,0.77-4.09,0.49-5.88-0.71c-1.78-1.2-3.25-3.34-4.28-6.23c-2.51-7.16-0.91-12.16,4.62-14.42L313.2,1219.78z"/>
					</g>
				</g>
			</g>
			<g>
				<g>
					<g>
						<path class="st1" d="M395.23,1261.24l4.51,10.29l4.75,10.18c1.55,3.41,3.24,6.75,4.91,10.1c1.69,3.34,3.28,6.74,5.05,10.04
							l5.24,9.94c0.86,1.67,1.77,3.3,2.69,4.93l2.74,4.9c3.58,6.58,7.51,12.97,11.29,19.43l-85.5,51.86
							c-4.37-7.44-8.87-14.81-13.01-22.38l-3.16-5.65c-1.06-1.88-2.11-3.77-3.1-5.68l-6.04-11.45c-2.03-3.81-3.88-7.71-5.82-11.56
							c-1.92-3.87-3.86-7.72-5.65-11.65l-5.48-11.73l-5.21-11.86L395.23,1261.24z"/>
					</g>
					<g>
						<path d="M299.45,1299.28l5.52,12.63c1.87,4.2,3.86,8.34,5.79,12.5l2.93,6.24l3.06,6.17c2.07,4.1,4.04,8.25,6.19,12.31
							c8.41,16.34,17.52,32.3,27.04,48l90.41-55.34c-8.19-13.52-16.04-27.25-23.27-41.31c-1.86-3.49-3.54-7.07-5.32-10.59
							l-2.64-5.31l-2.51-5.37c-1.65-3.59-3.38-7.14-4.98-10.75l-4.75-10.86L299.45,1299.28z M351.9,1388.7l-6.17-10.43
							c-2.07-3.47-3.97-7.04-5.97-10.55c-4.01-7.02-7.72-14.2-11.49-21.34c-7.35-14.39-14.42-28.94-20.83-43.78l86.12-37.68
							c5.6,12.99,11.8,25.71,18.22,38.31c3.31,6.25,6.54,12.54,10.06,18.68c1.75,3.07,3.4,6.2,5.22,9.24l5.4,9.13L351.9,1388.7z"/>
					</g>
				</g>
				<g>
					<g>
						<path class="st1" d="M370.03,1324.8L370.03,1324.8L370.03,1324.8z"/>
					</g>
				</g>
			</g>
			<g>
				<g>
					<g>
						<path class="st1" d="M347.3,1088.62l1.55,11.13l1.82,11.09l0.91,5.54l1.05,5.52l2.11,11.03l2.39,10.98
							c0.4,1.83,0.78,3.66,1.21,5.49l1.33,5.46c0.9,3.63,1.74,7.28,2.69,10.91l2.94,10.84l-96.36,26.75l-3.38-12.5
							c-1.09-4.18-2.07-8.38-3.1-12.57l-1.53-6.29c-0.49-2.1-0.93-4.21-1.4-6.32L256.8,1153l-2.44-12.72l-1.21-6.36l-1.06-6.39
							l-2.1-12.78l-1.8-12.82L347.3,1088.62z"/>
					</g>
					<g>
						<path d="M244.79,1099.25c2.37,18.22,5.48,36.33,9.07,54.35c3.77,17.98,8.07,35.86,13.03,53.55l102.02-28.77
							c-4.26-15.22-7.95-30.59-11.21-46.05c-3.07-15.5-5.76-31.08-7.8-46.77L244.79,1099.25z M271.05,1199.55
							c-1.05-3.9-2.13-7.8-3.14-11.71l-2.88-11.78l-1.42-5.89l-1.29-5.92l-2.58-11.85c-3.1-15.86-6.03-31.77-8.14-47.79l93.11-12.9
							c1.83,14.03,4.42,27.95,7.12,41.83l2.26,10.36l1.13,5.18l1.25,5.15l2.51,10.3c0.88,3.42,1.84,6.83,2.75,10.24L271.05,1199.55z
							"/>
					</g>
				</g>
				<g>
					<g>
						<path class="st1" d="M305.78,1142.96L305.78,1142.96L305.78,1142.96z"/>
					</g>
				</g>
				<g>
					<g>
						<path d="M310.55,1150.2c-0.96-4.38-1.93-8.75-2.73-13.16c-0.83-4.4-1.71-8.8-2.5-13.21l-9.84,1.74
							c0.8,4.47,1.69,8.93,2.54,13.39c0.81,4.47,1.8,8.91,2.77,13.35l-12.9,2.8l-1.59-7.33c-0.52-2.45-0.96-4.91-1.44-7.36
							l-1.41-7.37l-0.7-3.68l-0.62-3.7l-9.85,1.71c0.54,3.5,1.26,6.97,1.92,10.45l2,10.44l2.24,10.39
							c0.78,3.46,1.45,6.94,2.32,10.37l56.77-13.29c-0.82-3.27-1.46-6.59-2.2-9.88c-0.7-3.3-1.47-6.59-2.12-9.89l-1.9-9.94
							l-0.95-4.97c-0.31-1.66-0.56-3.33-0.84-4.99l-9.85,1.69c0.75,4.91,1.78,9.76,2.69,14.64l1.41,7.31l1.58,7.27L310.55,1150.2z"
							/>
					</g>
				</g>
			</g>
			<g>
				<g>
					<g>
						<path class="st1" d="M341.37,998.92c0.1,15,0.38,30.01,1.48,44.97c0.38,7.49,1.19,14.94,1.81,22.41
							c0.37,3.73,0.84,7.45,1.25,11.17l0.64,5.58c0.21,1.86,0.51,3.71,0.76,5.57l-99.11,13.32c-0.29-2.14-0.62-4.27-0.87-6.41
							l-0.74-6.43c-0.48-4.29-1.01-8.57-1.44-12.86c-0.73-8.59-1.64-17.18-2.09-25.79c-1.24-17.21-1.59-34.46-1.69-51.69
							L341.37,998.92z"/>
					</g>
					<g>
						<path d="M238.41,995.64c-0.04,18.34,0.36,36.69,1.66,55.01l0.44,6.87c0.15,2.29,0.39,4.57,0.58,6.86l1.23,13.72
							c1.07,9.12,1.97,18.26,3.34,27.34l105-14.55c-1.19-7.82-1.94-15.69-2.88-23.54l-1.05-11.82c-0.16-1.97-0.38-3.94-0.5-5.91
							l-0.37-5.92c-1.13-15.78-1.46-31.62-1.44-47.46L238.41,995.64z M250.74,1098.48c-4.18-32.05-6.21-64.35-6.37-96.63l94-0.23
							c0.15,28.34,1.92,56.65,5.58,84.71L250.74,1098.48z"/>
					</g>
				</g>
				<g>
					<g>
						<path class="st1" d="M292.95,1047.16L292.95,1047.16L292.95,1047.16z"/>
					</g>
				</g>
				<g>
					<g>
						<path d="M320.83,1040.61c-19.87-5.03-39.41-10.61-59.13-16.71l0.46,12.16c14.79,3.57,29.74,6.87,44.58,9.93
							c-14.35,5.04-28.7,10.34-42.86,15.89l1.08,12.13c9.38-4.26,18.77-8.38,28.17-12.38c9.43-4,18.76-7.86,28.3-11.61
							L320.83,1040.61z"/>
					</g>
				</g>
			</g>
			<g>
				<g>
					<g>
						<path class="st1" d="M347.6,909.24c-1.13,7.41-1.83,14.87-2.73,22.31c-0.38,3.73-0.67,7.46-1.02,11.2l-0.5,5.6
							c-0.17,1.87-0.25,3.74-0.38,5.61l-0.71,11.22c-0.19,3.74-0.29,7.49-0.45,11.24l-0.22,5.62c-0.07,1.87-0.06,3.75-0.09,5.63
							l-0.14,11.25l-100-0.16l0.16-12.93c0.04-2.15,0.03-4.31,0.11-6.46l0.24-6.46c0.17-4.31,0.3-8.62,0.52-12.92l0.82-12.91
							c0.15-2.15,0.25-4.31,0.44-6.45l0.57-6.44c0.39-4.3,0.74-8.6,1.18-12.89c1.01-8.57,1.85-17.16,3.14-25.69L347.6,909.24z"/>
					</g>
					<g>
						<path d="M246,892.09c-5.24,36.37-7.63,73.1-7.63,109.77l106-0.25c0.01-31.67,2.06-63.32,6.57-94.62L246,892.09z M244.4,995.67
							l0.15-12.1l0.04-3.03l0.11-3.03l0.23-6.05c0.17-4.03,0.27-8.07,0.51-12.1l0.76-12.09c0.14-2.01,0.24-4.03,0.4-6.04l0.53-6.03
							l1.07-12.07l1.36-12.04c0.45-4.01,0.9-8.03,1.5-12.03l93.17,12.45c-0.53,3.5-0.91,7.02-1.31,10.53l-1.2,10.55l-0.94,10.57
							l-0.47,5.29c-0.14,1.76-0.23,3.53-0.35,5.3l-0.67,10.6c-0.22,3.53-0.29,7.08-0.44,10.61l-0.2,5.31l-0.1,2.65l-0.03,2.66
							l-0.13,10.63L244.4,995.67z"/>
					</g>
				</g>
				<g>
					<g>
						<path class="st1" d="M293.1,950.51L293.1,950.51L293.1,950.51z"/>
					</g>
				</g>
				<g>
					<g>
						<path d="M295.71,958.76l0.86-13.41l1.19-13.39l-9.95-0.95l-1.21,13.58l-0.87,13.6l-13.18-0.76c0.33-4.99,0.6-9.98,0.99-14.96
							l1.33-14.94l-9.95-0.98c-1.32,14.1-2.4,28.23-2.93,42.38l58.26,2.41c0.17-6.75,0.72-13.48,1.12-20.22
							c0.17-3.37,0.52-6.73,0.81-10.09l0.89-10.08l-9.95-1l-1.32,14.83c-0.42,4.95-0.66,9.91-0.99,14.86L295.71,958.76z"/>
					</g>
				</g>
			</g>
			<g>
				<g>
					<g>
						<path class="st1" d="M365.89,821.32c-1.94,7.23-3.98,14.44-5.67,21.73l-1.33,5.46l-0.67,2.73l-0.6,2.74l-2.39,10.98
							c-2.96,14.68-5.68,29.42-7.62,44.28l-99.06-13.65c2.25-17.11,5.36-34.11,8.79-51.03l2.75-12.65l0.69-3.16l0.76-3.15l1.53-6.29
							c1.96-8.41,4.3-16.72,6.55-25.06L365.89,821.32z"/>
					</g>
					<g>
						<path d="M267.57,790.44c-1.25,4.42-2.42,8.86-3.63,13.3c-0.59,2.22-1.21,4.43-1.78,6.66l-1.64,6.69
							c-1.06,4.47-2.23,8.91-3.2,13.4l-2.93,13.47c-0.51,2.24-0.93,4.5-1.36,6.75l-1.3,6.77l-1.29,6.77
							c-0.42,2.26-0.77,4.53-1.15,6.79l-2.24,13.6l-1.91,13.64L350.2,912.3l1.64-11.74l1.93-11.7c0.33-1.95,0.62-3.9,0.99-5.84
							l1.12-5.82l1.11-5.82c0.37-1.94,0.73-3.88,1.17-5.81l2.52-11.58c0.83-3.86,1.85-7.68,2.76-11.53l1.4-5.76
							c0.49-1.91,1.03-3.81,1.54-5.72c1.04-3.81,2.04-7.63,3.12-11.43L267.57,790.44z M251.94,892.94
							c1.04-8.01,2.46-15.97,3.76-23.95c0.31-2,0.68-3.98,1.07-5.97l1.14-5.95l1.14-5.95c0.37-1.99,0.76-3.97,1.21-5.94
							c1.74-7.89,3.36-15.81,5.35-23.65c0.97-3.92,1.88-7.86,2.91-11.77l3.17-11.7l90.6,25.07l-2.77,10.24
							c-0.9,3.42-1.69,6.87-2.54,10.3c-1.76,6.85-3.16,13.78-4.69,20.69c-0.39,1.72-0.73,3.46-1.05,5.2l-1,5.21l-1,5.21
							c-0.34,1.73-0.67,3.47-0.94,5.22c-1.13,6.98-2.4,13.94-3.29,20.96L251.94,892.94z"/>
					</g>
				</g>
				<g>
					<g>
						<path class="st1" d="M306.28,854.76L306.28,854.76L306.28,854.76z"/>
					</g>
				</g>
				<g>
					<g>
						<path d="M336.29,849.64c0.75-3.64,1.7-7.23,2.56-10.84l-56.66-13.77c-0.94,3.92-1.96,7.83-2.78,11.78l38.7,8.73
							c-7.23,2.14-14.49,4.38-21.76,6.72l-5.46,1.78l-5.4,1.83c-3.6,1.23-7.21,2.49-10.82,3.77l-1.17,6.1
							c-0.39,2.03-0.78,4.07-1.1,6.11l57.44,10.05c0.28-1.84,0.63-3.66,0.99-5.48l1.05-5.47l-39.59-7.6
							c3.66-1.25,7.32-2.48,10.97-3.68l5.47-1.78l5.53-1.73C321.62,853.87,328.97,851.7,336.29,849.64z"/>
					</g>
				</g>
			</g>
			<g>
				<g>
					<g>
						<path class="st1" d="M396.1,736.77c-3.08,6.83-5.81,13.8-8.67,20.72c-1.38,3.48-2.67,7-4.01,10.49l-2,5.25l-1.87,5.3
							l-3.72,10.6l-3.47,10.68c-0.57,1.78-1.19,3.55-1.71,5.35l-1.6,5.38c-1.05,3.59-2.18,7.16-3.16,10.78l-96.27-27.07
							c1.14-4.16,2.43-8.28,3.64-12.43l1.85-6.21c0.61-2.07,1.31-4.11,1.97-6.17l4-12.32l4.29-12.22l2.16-6.1l2.3-6.05
							c1.55-4.03,3.04-8.08,4.63-12.09c3.28-7.99,6.45-16.02,9.99-23.89L396.1,736.77z"/>
					</g>
					<g>
						<path d="M302.95,692.71c-7.5,16.78-14.2,33.9-20.41,51.2c-6.27,17.28-11.67,34.86-16.63,52.55l102.16,28.27
							c4.27-15.21,8.9-30.33,14.3-45.18c5.34-14.87,11.09-29.6,17.55-44.02L302.95,692.71z M273.34,792.08l3.46-11.62
							c0.58-1.93,1.14-3.88,1.75-5.81l1.87-5.77l3.75-11.53l4.03-11.44l2.02-5.72l2.15-5.67l4.31-11.33l4.58-11.23l2.3-5.61
							l2.41-5.56l86.3,37.25l-2.12,4.86l-2,4.91l-4.01,9.82l-3.77,9.92l-1.89,4.96l-1.76,5l-3.53,10l-3.28,10.09l-1.64,5.04
							c-0.53,1.69-1.01,3.39-1.52,5.08l-3.03,10.17L273.34,792.08z"/>
					</g>
				</g>
				<g>
					<g>
						<path class="st1" d="M332.46,761.72L332.46,761.72L332.46,761.72z"/>
					</g>
				</g>
			</g>
			<g>
				<g>
					<g>
						<path class="st1" d="M437.55,657.1c-15.56,25.61-29.54,52.19-41.45,79.67l-91.65-40.01c13.75-31.68,29.84-62.32,47.77-91.81
							L437.55,657.1z"/>
					</g>
					<g>
						<path d="M351.31,600.75c-19.28,31.26-36.31,63.93-50.86,97.68l97.32,42.01c12.51-29.02,27.16-57.13,43.76-84.04L351.31,600.75
							z M308.44,695.13l2.43-5.55c0.83-1.84,1.7-3.67,2.55-5.5l5.13-10.98l5.37-10.87l2.7-5.43c0.9-1.81,1.87-3.58,2.81-5.37
							l5.66-10.72c1.93-3.55,3.93-7.06,5.89-10.59c3.87-7.1,8.1-13.98,12.19-20.95l80.41,48.68c-3.56,6.11-7.29,12.13-10.67,18.35
							c-1.72,3.09-3.47,6.16-5.16,9.27l-4.95,9.38c-0.82,1.57-1.67,3.12-2.46,4.7l-2.36,4.75l-4.71,9.51l-4.49,9.61
							c-0.74,1.6-1.51,3.2-2.23,4.81l-2.12,4.86L308.44,695.13z"/>
					</g>
				</g>
				<g>
					<g>
						<path class="st1" d="M371.12,673.14L371.12,673.14L371.12,673.14z"/>
					</g>
				</g>
				<g>
					<g>
						<path d="M356.27,658.28c2.59-5.02,5.38-9.94,8.13-14.87l-8.72-4.9c-1.91,3.43-3.85,6.84-5.72,10.29l-5.5,10.42
							c-0.91,1.74-1.85,3.46-2.73,5.22l-2.62,5.27l-5.23,10.55l9.01,4.33l7.81-15.75l43.02,21.98l5.19-9.86L356.27,658.28z"/>
					</g>
				</g>
			</g>
			<g>
				<g>
					<g>
						<path class="st1" d="M489.53,583.81l-7.05,8.75c-2.32,2.94-4.57,5.94-6.86,8.91l-3.42,4.46l-3.31,4.54
							c-2.2,3.03-4.44,6.04-6.61,9.09c-4.25,6.17-8.6,12.27-12.65,18.58c-4.19,6.21-8.1,12.61-12.07,18.96l-85.33-52.14
							c4.57-7.32,9.09-14.67,13.9-21.84c4.67-7.26,9.67-14.29,14.57-21.39c2.5-3.52,5.07-6.98,7.6-10.47l3.82-5.23l3.93-5.14
							c2.63-3.42,5.23-6.86,7.9-10.25l8.12-10.08L489.53,583.81z"/>
					</g>
					<g>
						<path d="M411.7,516.24c-11.65,14.2-22.77,28.81-33.45,43.75c-10.6,15-20.64,30.39-30.21,46.06l90.68,54.9
							c8.25-13.49,16.89-26.74,26.01-39.66c9.2-12.86,18.78-25.46,28.81-37.69L411.7,516.24z M356.42,603.9l6.42-10.28
							c2.18-3.4,4.43-6.76,6.64-10.14c4.37-6.8,9.09-13.36,13.67-20.01c9.44-13.11,19.05-26.1,29.3-38.59l73.06,59.15
							c-8.99,10.94-17.4,22.33-25.67,33.81c-4,5.84-8.15,11.57-11.97,17.53c-1.94,2.96-3.91,5.9-5.82,8.88l-5.62,9L356.42,603.9z"/>
					</g>
				</g>
				<g>
					<g>
						<path class="st1" d="M421.49,590.65L421.49,590.65L421.49,590.65z"/>
					</g>
				</g>
				<g>
					<g>
						<path d="M429.55,582.55l21.35,15.65l3.28-4.5c1.09-1.5,2.25-2.95,3.37-4.43l-46.46-35.24c-1.23,1.62-2.49,3.21-3.68,4.85
							l-3.59,4.92l17.61,12.91c-2.21,3.04-4.45,6.06-6.62,9.12l-6.42,9.26l-18.01-12.35c-1.14,1.66-2.31,3.3-3.43,4.98l-3.33,5.05
							l48.62,32.19l3.06-4.65c1.02-1.55,2.11-3.06,3.16-4.59l-21.84-14.97l6.35-9.17C425.15,588.55,427.36,585.56,429.55,582.55z"/>
					</g>
				</g>
				<g>
					<g>
						<path d="M572.53,473.04c1.78-1.43,3.54-3.19,5.04-5.22c0.75-1.02,1.43-2.11,2.01-3.26c0.59-1.14,1.1-2.33,1.46-3.59
							c1.46-5.02,0.81-11.03-4.17-17.59l-23.94-31.44l-9.59,7.38l24.45,31.04c4.35,5.54,3.79,10.3-1.71,14.73
							c-5.53,4.39-10.19,4.09-14.74-1.32l-25.37-30.29l-9.24,7.81l25.86,29.87c5.4,6.22,11.16,8.11,16.4,7.74
							C564.22,478.53,568.94,475.86,572.53,473.04z"/>
					</g>
				</g>
			</g>
			<g>
				<g>
					<g>
						<path class="st1" d="M550.96,518.21c-5.55,5.04-10.83,10.37-16.21,15.58l-7.86,8.03l-3.92,4.03l-3.83,4.12
							c-10.31,10.88-20.08,22.27-29.61,33.84l-77.46-63.24c10.96-13.32,22.22-26.41,34.08-38.94l4.41-4.73l4.51-4.64l9.05-9.24
							c6.18-6.01,12.28-12.12,18.65-17.94L550.96,518.21z"/>
					</g>
					<g>
						<path d="M483,440.76c-13.53,12.41-26.5,25.43-39.05,38.82c-3.11,3.38-6.29,6.68-9.34,10.12l-9.14,10.3
							c-3.04,3.44-5.95,6.99-8.93,10.48l-4.44,5.26l-4.32,5.36l82.39,66.7l3.72-4.62l3.83-4.53c2.57-3.01,5.07-6.07,7.69-9.03
							l7.87-8.87c2.62-2.96,5.37-5.8,8.05-8.72c10.82-11.53,21.99-22.76,33.65-33.45L483,440.76z M416.33,520.06
							c2.57-3.11,5.2-6.18,7.8-9.27l3.91-4.62c1.31-1.54,2.67-3.03,4-4.55l8.04-9.06c2.72-2.98,5.49-5.92,8.24-8.88l4.13-4.43
							c1.38-1.47,2.81-2.9,4.22-4.35l8.47-8.67l8.65-8.48l4.34-4.23c1.45-1.4,2.95-2.76,4.42-4.14l64.38,68.49
							c-1.29,1.21-2.6,2.4-3.88,3.63l-3.8,3.71l-7.59,7.43l-7.42,7.6c-1.23,1.27-2.49,2.52-3.7,3.81l-3.62,3.89l-7.22,7.78
							l-7.04,7.94c-1.17,1.33-2.37,2.63-3.51,3.98l-3.43,4.05c-2.28,2.71-4.59,5.39-6.84,8.12L416.33,520.06z"/>
					</g>
				</g>
				<g>
					<g>
						<path class="st1" d="M482.64,515.8L482.64,515.8L482.64,515.8z"/>
					</g>
				</g>
				<g>
					<g>
						<path d="M464.17,535.52c6.71,5.81,14.22,8.86,21.31,9.03c3.55,0.08,6.99-0.55,10.2-1.95c3.25-1.36,6.31-3.44,9.01-6.35
							c1.38-1.49,2.54-3.04,3.49-4.65c0.97-1.59,1.76-3.22,2.33-4.9c1.15-3.35,1.51-6.87,1.15-10.41
							c-0.73-7.1-4.16-14.16-10.05-20.13c-6.5-6.58-13.98-10.22-21.25-10.49c-3.64-0.15-7.26,0.51-10.72,1.97
							c-1.72,0.73-3.42,1.65-5.03,2.8c-1.59,1.16-3.13,2.52-4.58,4.08c-2.91,3.14-5,6.53-6.23,10.06
							c-1.19,3.57-1.56,7.23-1.15,10.85C453.48,522.68,457.46,529.7,464.17,535.52z M467.57,501.47c1.67-1.79,3.55-3.08,5.57-3.85
							c2.05-0.75,4.24-0.99,6.49-0.73c4.5,0.51,9.25,3.04,13.76,7.46c4.26,4.17,6.74,8.78,7.4,13.13c0.33,2.18,0.2,4.29-0.41,6.26
							c-0.58,2-1.62,3.86-3.16,5.52c-3.09,3.33-7.17,4.71-11.59,4.3c-4.39-0.39-9.2-2.63-13.75-6.72c-4.56-4.08-7.3-8.64-8.09-13.1
							C463.03,509.29,464.29,505.01,467.57,501.47z"/>
					</g>
				</g>
			</g>
			<g>
				<g>
					<g>
						<path class="st1" d="M697.44,414.83l-9.94,5.24c-3.31,1.76-6.55,3.64-9.83,5.45l-4.91,2.74c-1.63,0.92-3.23,1.9-4.84,2.85
							l-9.67,5.72c-6.33,4-12.77,7.85-18.98,12.05c-3.11,2.08-6.29,4.07-9.36,6.22l-9.24,6.4l-57.66-81.7l10.64-7.37
							c3.54-2.47,7.19-4.78,10.78-7.17c7.16-4.82,14.55-9.27,21.86-13.87l11.14-6.6c1.86-1.09,3.71-2.21,5.58-3.28l5.65-3.16
							c3.78-2.09,7.51-4.25,11.32-6.28l11.45-6.04L697.44,414.83z"/>
					</g>
					<g>
						<path d="M652.81,321.93c-16.32,8.43-32.35,17.42-48.08,26.91c-15.66,9.59-31,19.71-46,30.31l61.48,86.35
							c12.92-9.12,26.12-17.83,39.6-26.1c13.55-8.16,27.34-15.89,41.38-23.16L652.81,321.93z M567.29,380.49l9.96-6.9l10.12-6.67
							l5.06-3.33l5.13-3.22l10.28-6.42l10.43-6.18l5.22-3.08l5.28-2.97l10.58-5.91l10.71-5.67l43.59,83.28l-9.38,4.96l-9.26,5.18
							l-4.63,2.59l-4.57,2.7l-9.13,5.4l-9,5.62l-4.5,2.81l-4.43,2.92l-8.86,5.84l-8.72,6.05L567.29,380.49z"/>
					</g>
				</g>
				<g>
					<g>
						<path class="st1" d="M632.27,394.12L632.27,394.12L632.27,394.12z"/>
					</g>
				</g>
				<g>
					<g>
						<path d="M644.44,372.71c-7.84-13.95-21.33-9.29-29.16-4.57c-6,3.74-9.86,8.09-11.41,12.66c-1.51,4.65-0.74,9.51,2.37,14.26
							c4.95,7.58,11.01,8.73,21.9,4.65c2.51-0.92,4.99-1.89,7.51-2.77c7.41-2.62,10.97-2.12,13.35,1.95
							c2.46,4.22,0.33,8.91-5.55,12.39c-6.5,4.04-11.96,3.41-15.63-1.66c-1.57,0.99-3.16,1.94-4.71,2.96l-4.64,3.06
							c3.7,5.03,8.17,7.86,13.11,8.51c5,0.72,10.5-0.7,16.34-4.35c5.99-3.55,9.85-7.87,11.53-12.63c1.71-4.69,1.23-9.81-1.68-14.97
							c-4.5-8-10.82-10.09-20.91-6.47c-2.84,1.01-5.71,1.99-8.55,3.04c-7.96,2.99-10.93,2.86-13.19-0.72
							c-2.35-3.72-0.53-8.16,4.68-11.41c6.48-3.94,11.78-3.28,15.1,1.61C638.08,376.38,641.22,374.47,644.44,372.71z"/>
					</g>
				</g>
			</g>
			<g>
				<g>
					<g>
						<path class="st1" d="M779.81,379.1l-5.3,1.86c-1.77,0.62-3.5,1.32-5.26,1.97l-10.5,3.99l-10.4,4.24l-5.2,2.13l-5.14,2.25
							c-13.78,5.88-27.25,12.45-40.58,19.28l-46.01-88.79c15.36-7.87,30.89-15.43,46.77-22.22l5.93-2.59l5.99-2.47l11.99-4.89
							l12.1-4.6c2.02-0.75,4.03-1.56,6.06-2.27l6.11-2.15L779.81,379.1z"/>
					</g>
					<g>
						<path d="M748.33,280.98l-6.5,2.29c-2.17,0.76-4.33,1.52-6.47,2.36l-12.88,4.9c-4.29,1.65-8.52,3.45-12.78,5.17l-6.38,2.61
							l-6.31,2.76c-16.89,7.25-33.43,15.26-49.72,23.76l49.15,93.91c14.01-7.31,28.24-14.22,42.77-20.44l5.43-2.38l5.49-2.24
							c3.66-1.48,7.3-3.03,10.99-4.45l11.08-4.21c1.84-0.72,3.7-1.38,5.57-2.03l5.59-1.97L748.33,280.98z M655.55,327.26l10.85-5.41
							l5.43-2.69c1.82-0.88,3.66-1.72,5.48-2.58l10.99-5.13l11.1-4.88l5.55-2.43c1.85-0.81,3.74-1.54,5.6-2.32l11.22-4.58
							c3.76-1.49,7.55-2.89,11.32-4.34c3.78-1.44,7.55-2.9,11.37-4.2l31.78,88.46c-3.35,1.14-6.64,2.42-9.95,3.68
							c-3.3,1.27-6.62,2.49-9.91,3.79l-9.82,4.01c-1.63,0.68-3.28,1.31-4.9,2.02l-4.86,2.13l-9.71,4.26l-9.61,4.49
							c-1.6,0.75-3.21,1.48-4.8,2.25l-4.75,2.36l-9.5,4.73L655.55,327.26z"/>
					</g>
				</g>
				<g>
					<g>
						<path class="st1" d="M718.11,349.69L718.11,349.69L718.11,349.69z"/>
					</g>
				</g>
				<g>
					<g>
						<path d="M734.4,360.67l7.82,9.51l5.29-2.16c1.76-0.73,3.53-1.45,5.32-2.11c-6.46-7.98-12.98-15.73-19.66-23.53
							c-6.67-7.77-13.46-15.5-20.38-23.17l-12.27,5.36c0.38,5.14,0.78,10.26,1.23,15.38c0.46,5.15,0.95,10.28,1.47,15.4
							c1.04,10.24,2.21,20.42,3.49,30.54l10.3-4.81l-1.54-12.25l9.45-4.13C728.06,363.32,731.2,361.93,734.4,360.67z M727.65,352.62
							c-4.47,1.9-8.9,3.88-13.35,5.81c-0.87-7.91-1.67-15.86-2.4-23.83C717.22,340.58,722.46,346.55,727.65,352.62z"/>
					</g>
				</g>
			</g>
			<g>
				<g>
					<g>
						<path class="st1" d="M955.31,342.9l-5.61,0.35l-5.6,0.49l-11.2,0.99L921.73,346l-5.58,0.63l-5.56,0.78l-11.13,1.56
							l-11.08,1.84c-1.85,0.31-3.7,0.6-5.54,0.93l-5.52,1.06c-3.68,0.72-7.36,1.38-11.03,2.13L846.09,257
							c4.23-0.87,8.47-1.64,12.71-2.47l6.36-1.22c2.12-0.38,4.26-0.72,6.38-1.08l12.77-2.11l12.82-1.8l6.41-0.89l6.43-0.74
							l12.86-1.46l12.89-1.15l6.45-0.56l6.46-0.41L955.31,342.9z"/>
					</g>
					<g>
						<path d="M951.54,239.93l-6.87,0.44l-3.43,0.23l-3.43,0.3l-13.72,1.22c-4.57,0.43-9.13,1.01-13.69,1.51l-6.84,0.79l-6.82,0.94
							c-18.22,2.36-36.3,5.67-54.3,9.37l21.83,103.73c15.48-3.17,31.03-6.04,46.72-8.06l5.87-0.81l5.89-0.67
							c3.93-0.43,7.85-0.94,11.79-1.31l11.82-1.05l2.95-0.26l2.96-0.19l5.92-0.37L951.54,239.93z M849.73,259.32
							c7.94-1.49,15.86-3.15,23.84-4.38l11.96-1.96l12-1.68l6-0.84l6.02-0.7l12.04-1.37c4.02-0.42,8.04-0.74,12.07-1.1
							c4.02-0.34,8.04-0.76,12.07-0.97l6.66,93.76c-3.54,0.18-7.06,0.56-10.58,0.86c-3.52,0.33-7.05,0.6-10.57,0.96l-10.54,1.21
							l-5.27,0.61l-5.25,0.74l-10.51,1.47l-10.47,1.72c-6.99,1.07-13.91,2.54-20.87,3.83L849.73,259.32z"/>
					</g>
				</g>
				<g>
					<g>
						<path class="st1" d="M903.86,297.87L903.86,297.87L903.86,297.87z"/>
					</g>
				</g>
				<g>
					<g>
						<path d="M886.8,329.02c3.48-0.57,6.96-1.18,10.45-1.71l10.48-1.47c2.04-0.29,3.88-0.67,5.53-1.18
							c1.66-0.46,3.14-1.04,4.46-1.75c2.64-1.42,4.65-3.36,6.22-5.91c3.72-5.91,5.3-14.05,4.4-23.02
							c-0.89-8.93-4.09-16.55-9.31-21.5c-2.2-2.12-4.75-3.52-7.87-4.26c-1.56-0.37-3.26-0.57-5.13-0.62
							c-1.87-0.01-3.91,0.15-6.14,0.47l-11.38,1.59c-3.79,0.58-7.56,1.24-11.34,1.85L886.8,329.02z M896.3,317.34l-5.71-37.89
							l10.64-1.49c2.23-0.31,4.22-0.19,5.99,0.36c1.77,0.59,3.3,1.62,4.6,3.07c2.59,2.91,4.24,7.56,4.98,13.95
							c0.74,6.36,0.23,11.23-1.51,14.62c-0.87,1.7-2.04,3.03-3.53,4c-1.48,1.01-3.27,1.66-5.38,1.95L896.3,317.34z"/>
					</g>
				</g>
			</g>
			<g>
				<g>
					<g>
						<path class="st1" d="M866.28,354.94c-7.31,1.63-14.66,3.09-21.91,4.95c-3.63,0.91-7.29,1.72-10.9,2.71l-10.84,2.93
							c-14.4,4.09-28.73,8.47-42.82,13.57l-33.42-94.25c16.25-5.86,32.76-10.93,49.37-15.64l12.5-3.38
							c4.17-1.13,8.38-2.08,12.57-3.13c8.37-2.14,16.83-3.84,25.26-5.7L866.28,354.94z"/>
					</g>
					<g>
						<path d="M848.55,253.44c-4.51,0.88-8.98,1.92-13.48,2.88l-6.73,1.47l-6.7,1.62c-4.46,1.1-8.93,2.15-13.38,3.31l-13.3,3.6
							l-3.33,0.9l-3.3,0.98l-6.61,1.96c-4.4,1.31-8.81,2.6-13.17,4.05l-13.11,4.27l-13,4.58l35.84,99.76l11.18-3.94l11.27-3.66
							c3.74-1.26,7.54-2.36,11.33-3.48l5.68-1.69l2.84-0.84l2.86-0.77l11.44-3.1c3.82-1,7.67-1.89,11.51-2.84l5.76-1.4l5.79-1.26
							c3.86-0.82,7.71-1.73,11.59-2.48L848.55,253.44z M750.31,286.65c30.49-10.77,61.74-19.34,93.36-26.06l19.36,91.99
							c-27.66,5.88-55,13.36-81.67,22.79L750.31,286.65z"/>
					</g>
				</g>
				<g>
					<g>
						<rect x="809.2" y="317.37" class="st1" width="0" height="0"/>
					</g>
				</g>
				<g>
					<g>
						<path d="M827.53,341.66c1.79-0.5,3.59-0.95,5.39-1.38l5.41-1.32l-13.81-56.65l-5.88,1.44c-1.96,0.47-3.92,0.96-5.86,1.5
							l10.03,38.39c-10.43-10.85-21.31-21.72-32.48-32.11c-3.96,1.2-7.95,2.32-11.89,3.59l17.47,55.63
							c3.53-1.15,7.11-2.14,10.66-3.22l-11.44-38.66C806.3,319.48,817.14,330.57,827.53,341.66z"/>
					</g>
				</g>
			</g>
			<g>
				<g>
					<g>
						<polygon class="st1" points="1045.24,342.93 1034.02,342.22 1022.78,341.79 1017.16,341.57 1011.53,341.5 1000.28,341.36 
							989.02,341.5 983.4,341.56 977.77,341.77 966.53,342.19 955.31,342.9 948.63,243.12 961.54,242.32 974.46,241.82 
							980.93,241.59 987.39,241.51 1000.32,241.36 1013.24,241.52 1019.71,241.61 1026.17,241.85 1039.09,242.35 1052,243.16 						
							"/>
					</g>
					<g>
						<path d="M1055.32,240.36l-13.74-0.87c-4.58-0.29-9.17-0.39-13.75-0.59l-6.88-0.26c-2.29-0.09-4.59-0.08-6.88-0.12l-13.76-0.17
							l-13.76,0.16c-2.29,0.04-4.59,0.04-6.88,0.11l-6.88,0.26c-4.58,0.19-9.17,0.31-13.75,0.57l-13.74,0.87l7.51,105.73l11.84-0.75
							c3.95-0.23,7.91-0.32,11.86-0.49l5.93-0.23c1.98-0.06,3.96-0.06,5.94-0.09l11.88-0.15l11.88,0.15
							c1.98,0.04,3.96,0.02,5.94,0.1l5.93,0.23c3.95,0.18,7.91,0.24,11.86,0.5l11.84,0.75L1055.32,240.36z M951.92,245.92
							c16.12-1.11,32.26-1.44,48.4-1.56c16.14,0.14,32.28,0.47,48.4,1.6l-5.98,93.81c-14.12-1-28.3-1.27-42.46-1.41
							c-14.17,0.12-28.34,0.39-42.46,1.38L951.92,245.92z"/>
					</g>
				</g>
			</g>
			<g>
				<g>
					<g>
						<path class="st1" d="M1658.61,997.3c-0.11-7.5-0.12-15.01-0.49-22.5l-0.21-5.62c-0.06-1.87-0.14-3.75-0.28-5.62l-0.71-11.22
							c-0.19-3.75-0.61-7.47-0.92-11.21l-0.5-5.6l-0.25-2.8l-0.32-2.79l-1.28-11.17l-0.32-2.79l-0.39-2.78l-0.78-5.56l99.03-13.89
							l0.9,6.41l0.45,3.21l0.37,3.21l1.47,12.86l0.36,3.22l0.29,3.22l0.57,6.44c0.35,4.3,0.83,8.59,1.05,12.9l0.82,12.91
							c0.15,2.15,0.25,4.3,0.32,6.46l0.25,6.46c0.41,8.61,0.45,17.23,0.56,25.85L1658.61,997.3z"/>
					</g>
					<g>
						<path d="M1761.65,1000l-0.17-13.76c-0.04-2.29-0.04-4.59-0.12-6.88l-0.26-6.88c-0.2-4.58-0.3-9.17-0.58-13.75l-0.87-13.74
							l-0.22-3.43l-0.3-3.43l-0.61-6.86c-0.42-4.57-0.77-9.15-1.34-13.71l-1.57-13.68c-0.59-4.55-1.26-9.1-1.89-13.65l-104.91,15.15
							l1.63,11.75l1.34,11.78c0.5,3.92,0.79,7.87,1.15,11.81l0.53,5.91l0.26,2.95l0.19,2.96l0.75,11.84
							c0.24,3.95,0.32,7.91,0.49,11.86l0.23,5.93c0.07,1.98,0.06,3.96,0.09,5.94l0.15,11.88H1761.65z M1748.66,897.23
							c4.45,32.02,6.61,64.32,6.91,96.59l-94,0.76c-0.28-28.33-2.15-56.64-6.06-84.67L1748.66,897.23z"/>
					</g>
				</g>
			</g>
			<g>
				<g>
					<g>
						<path class="st1" d="M1134.25,355.05c-3.66-0.78-7.35-1.43-11.03-2.15l-5.52-1.06c-1.84-0.36-3.69-0.62-5.54-0.94l-11.08-1.84
							l-11.13-1.57l-5.56-0.78l-5.58-0.65l-11.17-1.28l-11.2-1l-5.6-0.5l-5.61-0.36l6.76-99.77l6.45,0.42l6.44,0.57l12.89,1.16
							l12.86,1.47l6.43,0.75l6.41,0.89c4.27,0.61,8.55,1.18,12.82,1.82l12.77,2.11c2.13,0.37,4.26,0.68,6.38,1.09l6.36,1.22
							c4.24,0.83,8.49,1.59,12.71,2.48L1134.25,355.05z"/>
					</g>
					<g>
						<path d="M1158.18,254.85c-17.99-3.74-36.08-7.03-54.29-9.42l-6.82-0.95l-6.84-0.79c-4.56-0.51-9.12-1.07-13.69-1.53
							c-9.14-0.8-18.28-1.71-27.45-2.2l-6.74,105.79c7.9,0.41,15.77,1.22,23.65,1.89c3.93,0.39,7.86,0.89,11.79,1.32l5.89,0.67
							l5.87,0.83c15.68,2.04,31.24,4.89,46.71,8.1L1158.18,254.85z M1054.89,246.35c4.03,0.21,8.05,0.66,12.07,0.99
							c4.02,0.38,8.05,0.67,12.06,1.12l12.04,1.37c2.01,0.24,4.02,0.44,6.02,0.71l6,0.84l12,1.68l11.96,1.98l5.98,0.99
							c1.99,0.35,3.97,0.75,5.96,1.12l11.91,2.28l-18.68,92.13l-10.42-1.99c-1.74-0.33-3.47-0.68-5.21-0.99l-5.23-0.86l-10.47-1.74
							l-10.51-1.47l-5.25-0.74c-1.75-0.24-3.51-0.41-5.27-0.62l-10.54-1.21c-3.52-0.4-7.05-0.64-10.57-0.98
							c-3.53-0.29-7.04-0.69-10.58-0.87L1054.89,246.35z"/>
					</g>
				</g>
				<g>
					<g>
						<path class="st1" d="M1096.73,297.95L1096.73,297.95z"/>
					</g>
				</g>
				<g>
					<g>
						<path d="M1111.94,289.73l11.07,1.83c0.62-6.55-1.13-12.09-4.77-16.28c-1.82-2.08-4.1-3.87-6.79-5.2
							c-2.69-1.3-5.78-2.22-9.18-2.69c-8.24-1.23-15.32,1.01-20.48,5.74c-5.17,4.74-8.43,12.08-9.38,21.47
							c-0.94,9.31,0.71,17.17,4.38,22.9c3.68,5.75,9.39,9.26,16.82,10.38c3.32,0.46,6.44,0.37,9.3-0.24
							c2.86-0.57,5.46-1.6,7.75-3.14c4.58-3.06,7.93-8.02,9.41-14.54l-11.01-1.83c-0.92,3.63-2.63,6.26-4.99,7.95
							c-2.35,1.68-5.33,2.33-8.8,1.85c-8.6-1.27-12.81-9.2-11.35-21.86c1.47-12.77,8-19.87,17.34-18.49
							c4.93,0.69,7.58,2.96,8.99,5.43C1111.67,285.53,1111.86,288.22,1111.94,289.73z"/>
					</g>
				</g>
			</g>
			<g>
				<g>
					<g>
						<path class="st1" d="M1220.71,379.28c-14.08-5.11-28.41-9.48-42.81-13.6l-10.84-2.93c-1.8-0.51-3.62-0.96-5.44-1.39
							l-5.46-1.33c-7.25-1.86-14.6-3.35-21.91-4.97l20.27-97.92c8.43,1.85,16.89,3.59,25.26,5.72l6.29,1.54
							c2.1,0.5,4.19,1.02,6.27,1.61l12.5,3.38c16.6,4.74,33.12,9.8,49.36,15.68L1220.71,379.28z"/>
					</g>
					<g>
						<path d="M1258.16,283.27l-13-4.58c-4.35-1.46-8.73-2.85-13.1-4.28c-2.19-0.7-4.36-1.44-6.56-2.1l-6.6-1.97l-6.61-1.96
							c-2.2-0.66-4.4-1.31-6.63-1.89l-13.3-3.6c-4.44-1.19-8.92-2.21-13.38-3.32l-6.7-1.63l-6.73-1.48
							c-4.49-0.96-8.97-1.99-13.47-2.89l-21.06,103.89c3.87,0.78,7.72,1.67,11.59,2.49l5.79,1.26l5.76,1.41
							c3.83,0.96,7.69,1.82,11.5,2.85l11.44,3.1c1.91,0.49,3.81,1.06,5.7,1.63l5.68,1.69l5.68,1.69c1.89,0.57,3.76,1.21,5.64,1.81
							l11.27,3.68l11.18,3.94L1258.16,283.27z M1156.94,260.73c31.62,6.72,62.86,15.35,93.34,26.13l-31.13,88.7
							c-26.66-9.44-53.98-16.97-81.65-22.86L1156.94,260.73z"/>
					</g>
				</g>
				<g>
					<g>
						<path class="st1" d="M1191.38,317.53L1191.38,317.53L1191.38,317.53z"/>
					</g>
				</g>
				<g>
					<g>
						<path d="M1196.01,337.86c-1.54,5.22-1.75,6.99-1.2,10.08c3.82,1.14,7.65,2.23,11.43,3.51l0.65-2.06
							c-1.31-1.52-1.6-2.87-0.83-5.32c4.86-16.5,4.84-17.4-1.13-22.49c6.82-0.68,11.28-4.14,13.44-10.93
							c0.98-3.09,1.44-7.08,0.13-10.79c-1.31-3.68-4.43-7.01-10.5-8.82c-5.03-1.55-10.11-2.89-15.19-4.26l-7.61-2.06l-7.66-1.89
							l-13.97,56.61c3.61,0.87,7.22,1.74,10.8,2.75l5.91-22.35l12.75,3.46c4.79,1.43,6.26,4.03,4.87,8.71
							C1197.2,334.38,1197.23,333.72,1196.01,337.86z M1206.57,308.79c-1.95,6.51-5.51,6.46-10.14,5.08
							c-4.52-1.28-9.07-2.47-13.6-3.71l3.88-14.69c4.63,1.27,9.28,2.48,13.89,3.79C1205.42,300.69,1208.43,302.59,1206.57,308.79z"
							/>
					</g>
				</g>
			</g>
			<g>
				<g>
					<g>
						<path class="st1" d="M1303.05,415.09c-13.32-6.85-26.79-13.42-40.56-19.31l-5.14-2.25c-1.71-0.76-3.46-1.43-5.19-2.15
							l-10.4-4.25l-10.5-3.99l-5.25-1.99l-5.3-1.86l33.5-94.22l6.11,2.15l6.06,2.29l12.1,4.61l11.99,4.9
							c1.99,0.83,4.01,1.61,5.98,2.48l5.93,2.59c15.87,6.81,31.41,14.36,46.75,22.26L1303.05,415.09z"/>
					</g>
					<g>
						<path d="M1353.27,325.13l-6.09-3.21l-6.16-3.08c-4.12-2.03-8.21-4.12-12.36-6.09l-12.49-5.83c-2.07-0.99-4.18-1.91-6.28-2.83
							l-6.31-2.76l-6.31-2.76c-2.11-0.91-4.25-1.75-6.37-2.63c-4.26-1.73-8.49-3.5-12.77-5.18l-12.88-4.9l-3.22-1.22l-3.25-1.15
							l-6.5-2.29l-35.1,100.02l5.59,1.97l2.79,0.99l2.77,1.06l11.08,4.21c3.68,1.45,7.32,2.98,10.98,4.46
							c1.83,0.75,3.67,1.47,5.48,2.26l5.43,2.38l5.43,2.37c1.81,0.78,3.62,1.58,5.4,2.43l10.74,5.01c3.57,1.69,7.08,3.5,10.63,5.24
							l5.31,2.64l5.24,2.77L1353.27,325.13z M1256.12,288.92c3.83,1.3,7.58,2.79,11.37,4.22c3.77,1.45,7.57,2.83,11.32,4.35
							c7.47,3.08,15,6.03,22.38,9.34c14.87,6.35,29.4,13.45,43.83,20.73l-42.97,83.6c-12.63-6.36-25.34-12.59-38.35-18.14
							c-6.45-2.91-13.04-5.47-19.57-8.18c-3.27-1.33-6.6-2.53-9.9-3.8c-3.31-1.24-6.59-2.56-9.94-3.69L1256.12,288.92z"/>
					</g>
				</g>
				<g>
					<g>
						<path class="st1" d="M1282.43,349.93L1282.43,349.93L1282.43,349.93z"/>
					</g>
				</g>
				<g>
					<g>
						<path d="M1257.65,339.16c-3.22,8.27-3.53,16.3-1.34,23.08c2.21,6.79,7.03,12.07,14.25,15.32c3.71,1.64,7.41,2.29,10.95,2.25
							c3.54-0.03,6.96-0.86,10.17-2.36c6.42-3.02,11.98-8.74,15.62-16.27c4.04-8.36,4.9-16.49,2.73-23.49
							c-1.08-3.49-2.91-6.7-5.44-9.48c-2.54-2.76-5.82-5-9.72-6.72c-7.82-3.51-15.66-3.11-22.18,0.05
							C1266.18,324.71,1260.87,330.89,1257.65,339.16z M1290.87,330.92c4.48,1.98,7.36,5.37,8.38,9.79
							c1.02,4.43,0.23,9.75-2.42,15.49c-2.5,5.41-6.01,9.29-9.88,11.35c-3.88,2.06-8.17,2.44-12.3,0.62
							c-2.08-0.91-3.79-2.21-5.11-3.82c-1.32-1.61-2.29-3.48-2.83-5.63c-1.1-4.28-0.6-9.57,1.72-15.23c2.32-5.66,5.68-9.78,9.62-12
							c1.96-1.1,4.08-1.78,6.24-1.87C1286.44,329.54,1288.66,329.96,1290.87,330.92z"/>
					</g>
				</g>
			</g>
			<g>
				<g>
					<g>
						<path class="st1" d="M1379.77,461.82l-9.24-6.4l-2.31-1.6l-2.35-1.54l-4.69-3.09c-6.21-4.19-12.63-8.06-18.97-12.06
							c-3.2-1.94-6.45-3.82-9.66-5.73l-4.84-2.86l-4.91-2.74c-3.28-1.82-6.53-3.68-9.82-5.46l-9.94-5.24l46.08-88.75l11.45,6.04
							c3.79,2.05,7.54,4.19,11.32,6.29l5.65,3.16l5.57,3.29c3.71,2.2,7.44,4.37,11.13,6.61c7.31,4.58,14.69,9.06,21.85,13.88
							l5.4,3.56l2.7,1.78l2.66,1.84l10.64,7.37L1379.77,461.82z"/>
					</g>
					<g>
						<path d="M1441.78,379.51c-14.99-10.61-30.3-20.76-45.97-30.35c-15.72-9.5-31.73-18.52-48.06-26.95l-48.46,94.27
							c14.05,7.25,27.82,15.03,41.36,23.19c13.49,8.26,26.67,17,39.58,26.13L1441.78,379.51z M1350.49,330.45
							c3.57,1.89,7.16,3.75,10.71,5.68l10.58,5.91c1.76,1,3.54,1.95,5.28,2.98l5.22,3.08c3.47,2.06,6.97,4.09,10.42,6.19l10.28,6.42
							c1.71,1.08,3.44,2.12,5.13,3.23l5.06,3.33c3.37,2.23,6.76,4.43,10.11,6.68l9.96,6.9l-53.95,76.97l-8.72-6.05
							c-2.93-1.98-5.91-3.9-8.86-5.85l-4.43-2.92c-1.48-0.97-3-1.88-4.49-2.82l-9-5.62c-3.02-1.83-6.09-3.61-9.13-5.42l-4.57-2.7
							c-1.52-0.9-3.08-1.73-4.62-2.61l-9.26-5.18c-3.11-1.69-6.25-3.31-9.37-4.97L1350.49,330.45z"/>
					</g>
				</g>
				<g>
					<g>
						<path class="st1" d="M1368.23,394.43L1368.23,394.43L1368.23,394.43z"/>
					</g>
				</g>
				<g>
					<g>
						<path d="M1392.83,395.41c2.17-3.33,3.18-6.45,3.34-9.34c0.16-2.9-0.53-5.55-1.77-7.89c-2.47-4.71-7.01-8.37-10.88-10.79
							c-6.08-3.6-11.72-5.03-16.51-4.3c-4.8,0.75-8.78,3.71-11.57,8.64c-2.23,3.93-2.91,7.4-1.94,10.82
							c0.96,3.44,3.52,6.91,7.86,10.77c1.98,1.8,3.98,3.55,5.9,5.41c5.73,5.37,6.93,8.76,4.41,12.74
							c-2.62,4.12-7.77,4.39-13.56,0.77c-6.55-3.96-8.52-9.05-5.69-14.65l-4.79-2.83l-4.85-2.72c-2.77,5.61-3.21,10.84-1.54,15.57
							c1.65,4.78,5.46,8.97,11.37,12.51c5.9,3.7,11.54,5.11,16.52,4.44c4.94-0.62,9.28-3.42,12.53-8.37
							c2.52-3.85,3.51-7.38,2.91-10.91c-0.59-3.55-2.84-6.99-6.76-10.65l-6.62-6.21c-6.31-5.7-7.57-8.38-5.42-12.04
							c2.22-3.8,7-4.22,12.29-1.09c6.45,3.99,8.32,8.95,5.5,14.16l4.67,2.92L1392.83,395.41z"/>
					</g>
				</g>
			</g>
			<g>
				<g>
					<g>
						<path class="st1" d="M1449.44,518.59c-21.87-20.51-45.23-39.41-69.67-56.77l57.73-81.65c28.14,19.98,55.02,41.74,80.19,65.34
							L1449.44,518.59z"/>
					</g>
					<g>
						<path d="M1522.03,445.44c-26.73-25.17-55.27-48.43-85.35-69.5l-60.84,86.8c25.9,18.15,50.49,38.18,73.53,59.87L1522.03,445.44
							z M1438.3,384.4c26.23,18.86,51.45,39.16,75.08,61.19l-63.88,68.96c-20.7-19.32-42.81-37.09-65.78-53.62L1438.3,384.4z"/>
					</g>
				</g>
				<g>
					<g>
						<path class="st1" d="M1447.14,450.25L1447.14,450.25L1447.14,450.25z"/>
					</g>
				</g>
				<g>
					<g>
						<path d="M1471.42,454.51c5.21-6.01,5.64-11.78,3.85-16.82c-0.89-2.52-2.33-4.84-3.98-6.91c-1.64-2.08-3.58-3.79-5.34-5.24
							c-5.51-4.43-10.85-6.67-15.75-6.51c-4.88,0.11-9.18,2.46-12.63,6.97c-2.74,3.59-3.89,6.94-3.41,10.48
							c0.49,3.54,2.63,7.22,6.35,11.71l5.11,6.17c2.54,2.98,3.9,5.45,4.32,7.54c0.41,2.1-0.17,3.89-1.69,5.69
							c-1.57,1.87-3.65,2.68-5.97,2.48c-2.32-0.2-4.89-1.42-7.57-3.55c-5.96-4.8-7.16-10.19-3.61-15.34l-8.82-6.77
							c-3.51,5.17-4.69,10.34-3.66,15.24c1.07,4.85,4.2,9.63,9.57,13.94c1.35,1.1,2.72,2.03,4.06,2.86c1.33,0.84,2.65,1.54,3.97,2.1
							c2.63,1.12,5.23,1.68,7.74,1.68c2.51,0,4.94-0.55,7.23-1.66c2.28-1.09,4.41-2.75,6.36-4.98c6.07-6.96,5.81-13.47-0.91-21.86
							c-1.87-2.38-3.81-4.69-5.75-7c-5.45-6.55-6.31-9.4-3.69-12.73c2.72-3.46,7.49-3.21,12.28,0.64c5.94,4.72,7.05,9.98,3.55,14.74
							L1471.42,454.51z"/>
					</g>
				</g>
			</g>
			<g>
				<g>
					<g>
						<path class="st1" d="M1510.82,584.24c-9.5-11.59-19.28-22.96-29.58-33.86l-3.83-4.12c-1.28-1.37-2.61-2.69-3.91-4.04
							l-7.86-8.04c-5.39-5.21-10.65-10.55-16.2-15.59l68.26-73.08c6.37,5.81,12.45,11.94,18.64,17.95l9.04,9.25
							c1.5,1.55,3.03,3.07,4.5,4.65l4.41,4.73c11.84,12.55,23.11,25.63,34.04,38.97L1510.82,584.24z"/>
					</g>
					<g>
						<path d="M1592.62,521.59l-4.32-5.36c-1.45-1.78-2.95-3.51-4.43-5.27c-2.97-3.5-5.9-7.03-8.92-10.49l-9.14-10.3
							c-1.51-1.73-3.07-3.41-4.64-5.09l-4.69-5.04l-4.69-5.04c-1.58-1.66-3.2-3.29-4.8-4.94c-3.22-3.27-6.39-6.59-9.65-9.82
							l-9.85-9.62c-1.63-1.62-3.31-3.18-4.99-4.74l-5.04-4.69l-72.04,77.76l4.34,4.04c1.45,1.34,2.9,2.69,4.3,4.08l8.49,8.29
							c2.81,2.78,5.54,5.65,8.31,8.47c1.38,1.42,2.78,2.82,4.14,4.25l4.04,4.34l4.04,4.34c1.36,1.44,2.7,2.89,4,4.38l7.87,8.87
							c2.6,2.98,5.12,6.03,7.68,9.04c1.27,1.52,2.57,3.01,3.82,4.54l3.72,4.62L1592.62,521.59z M1517.91,449.81
							c2.98,2.73,5.86,5.56,8.75,8.38c2.88,2.83,5.8,5.62,8.64,8.49c5.62,5.8,11.36,11.49,16.8,17.46
							c11.1,11.74,21.63,24,31.97,36.41l-72.62,59.68c-9.07-10.87-18.27-21.63-28.01-31.9c-4.76-5.24-9.8-10.21-14.72-15.3
							c-2.49-2.51-5.06-4.95-7.58-7.44c-2.53-2.48-5.05-4.96-7.66-7.35L1517.91,449.81z"/>
					</g>
				</g>
				<g>
					<g>
						<path class="st1" d="M1517.77,516.23L1517.77,516.23z"/>
					</g>
				</g>
				<g>
					<g>
						<path d="M1510.02,549.7c8.94-4.56,17.97-9.06,27.03-13.44c9.04-4.36,18.14-8.65,27.32-12.85c-2.77-3.25-5.48-6.56-8.35-9.73
							c-12.92,7.41-25.72,14.96-38.41,22.63c4.44-5.98,8.85-12,13.22-18.06c4.36-6.04,8.67-12.09,12.96-18.19l-8.13-8.73
							c-12.63,7.81-25.22,15.82-37.63,23.92c8.43-12.2,16.74-24.53,24.93-36.98c-3.03-3.02-6.11-5.98-9.16-8.97
							c-9.58,17.85-19.37,35.3-29.68,52.66l7.01,7.18c13.03-8.41,26.07-16.56,39.31-24.64c-8.89,12.72-17.91,25.29-27.07,37.71
							L1510.02,549.7z"/>
					</g>
				</g>
			</g>
			<g>
				<g>
					<g>
						<path class="st1" d="M1562.74,657.57c-3.99-6.34-7.87-12.75-12.06-18.97c-4.05-6.3-8.38-12.42-12.64-18.59
							c-2.15-3.07-4.4-6.06-6.6-9.1l-3.31-4.54l-3.41-4.47l-6.85-8.92l-7.05-8.75l77.52-63.17l8.11,10.08l7.89,10.26l3.92,5.15
							l3.82,5.23c2.53,3.5,5.12,6.95,7.59,10.48c4.92,7.09,9.89,14.14,14.56,21.4c4.82,7.16,9.31,14.53,13.89,21.85L1562.74,657.57z
							"/>
					</g>
					<g>
						<path d="M1652.29,606.6c-9.56-15.68-19.57-31.09-30.17-46.08c-10.66-14.95-21.76-29.59-33.41-43.78l-81.89,67.3
							c10.04,12.23,19.59,24.84,28.78,37.71c9.14,12.91,17.74,26.19,25.98,39.68L1652.29,606.6z M1587.95,525.36
							c10.23,12.51,19.85,25.49,29.27,38.62c4.59,6.65,9.28,13.23,13.65,20.02c2.21,3.38,4.47,6.73,6.63,10.15l6.42,10.28
							l-80.05,49.27l-5.62-9c-1.88-3-3.88-5.92-5.81-8.88c-3.82-5.96-7.95-11.71-11.96-17.54c-8.25-11.49-16.67-22.88-25.64-33.83
							L1587.95,525.36z"/>
					</g>
				</g>
				<g>
					<g>
						<path class="st1" d="M1578.85,591.13L1578.85,591.13z"/>
					</g>
				</g>
				<g>
					<g>
						<path d="M1563.19,569.12c-7.04,5.4-11.51,12.13-13.06,19.01c-0.78,3.45-0.91,6.99-0.21,10.44c0.67,3.46,2.2,6.8,4.47,10.06
							c4.59,6.68,11.14,10.06,18.12,10.87c7.02,0.76,14.73-1.24,21.74-5.8c7.78-5.06,12.75-11.59,14.55-18.71
							c0.45-1.78,0.71-3.59,0.76-5.42c0.04-1.83-0.15-3.65-0.53-5.48c-0.77-3.66-2.36-7.31-4.79-10.81
							c-2.45-3.51-5.45-6.17-8.66-8.08c-3.23-1.9-6.69-3.05-10.33-3.36C1577.93,561.21,1570.23,563.72,1563.19,569.12z
							 M1595.91,579.25c5.6,8.08,2.52,17.66-7.99,24.71c-9.89,6.63-20.07,6.15-25.18-1.24c-2.61-3.72-3.25-7.92-1.94-12.18
							c1.3-4.25,4.47-8.51,9.39-12.15c4.92-3.64,9.92-5.41,14.42-5.26C1589.09,573.28,1593.14,575.3,1595.91,579.25z"/>
					</g>
				</g>
			</g>
			<g>
				<g>
					<g>
						<path class="st1" d="M1604.12,737.28c-11.9-27.49-25.85-54.08-41.38-79.71l85.37-52.07c17.9,29.51,33.97,60.16,47.69,91.85
							L1604.12,737.28z"/>
					</g>
					<g>
						<path d="M1699.8,699.01c-14.53-33.76-31.53-66.44-50.78-97.72l-90.27,55.56c16.57,26.93,31.2,55.05,43.69,84.08L1699.8,699.01
							z M1647.15,609.71c16.63,27.71,31.72,56.37,44.66,86l-86.03,37.89c-11.31-25.93-24.54-51.01-39.09-75.27L1647.15,609.71z"/>
					</g>
				</g>
				<g>
					<g>
						<path class="st1" d="M1629.16,673.66L1629.16,673.66L1629.16,673.66z"/>
					</g>
				</g>
				<g>
					<g>
						<path d="M1617.49,690.94c-4.86,2.44-6.3,3.5-8.18,6.01l2.66,5.35l1.33,2.68l1.26,2.71l1.95-0.93c0.21-2,1.01-3.13,3.32-4.24
							c15.38-7.73,15.97-8.34,15.64-16.19c2.56,2.27,5.26,3.61,8.12,4.01c2.83,0.41,5.84-0.14,9.05-1.67
							c2.92-1.39,6.17-3.8,7.96-7.27c1.77-3.46,2.1-8.03-0.72-13.7c-2.29-4.73-4.84-9.34-7.26-14c-1.24-2.32-2.43-4.66-3.71-6.96
							l-3.85-6.88l-50.89,28.47l2.72,4.86l1.36,2.43l1.3,2.46l20.36-10.95l6.17,11.68c2.27,4.45,1.33,7.33-3.02,9.5
							C1620.84,689.42,1621.35,689,1617.49,690.94z M1645.93,678.79c-6.09,3.03-8.46,0.38-10.63-3.93l-6.58-12.47l13.38-7.2
							l6.72,12.74C1651.07,672.41,1651.72,675.91,1645.93,678.79z"/>
					</g>
				</g>
			</g>
			<g>
				<g>
					<g>
						<path class="st1" d="M1634.26,821.85c-4.14-14.39-8.5-28.72-13.62-42.8l-1.86-5.3l-1.99-5.25l-4-10.5
							c-2.87-6.92-5.57-13.9-8.66-20.73l91.68-39.93c3.54,7.87,6.68,15.92,9.97,23.9l4.62,12.1l2.29,6.06l2.15,6.11
							c5.89,16.23,10.95,32.76,15.71,49.35L1634.26,821.85z"/>
					</g>
					<g>
						<path d="M1734.25,797.07c-4.92-17.7-10.34-35.28-16.58-52.56l-2.3-6.5l-2.45-6.44c-1.65-4.29-3.22-8.61-4.95-12.86
							l-5.21-12.76c-1.73-4.26-3.65-8.43-5.46-12.65l-97.01,42.73c1.56,3.63,3.22,7.22,4.7,10.88l4.48,10.97
							c1.49,3.66,2.83,7.38,4.25,11.06l2.11,5.54l1.97,5.59c5.38,14.86,10.02,29.98,14.26,45.19L1734.25,797.07z M1694.29,701.38
							c1.65,3.69,3.17,7.43,4.7,11.18c1.52,3.74,3.08,7.47,4.56,11.23l4.31,11.33c0.71,1.89,1.45,3.77,2.14,5.67l2.02,5.72
							l4.02,11.44l3.75,11.53l1.87,5.77l1.73,5.81l3.45,11.62l-90.41,25.74l-3.03-10.16l-1.51-5.08l-1.64-5.04l-3.27-10.09
							l-3.52-10.01l-1.76-5c-0.6-1.66-1.25-3.31-1.87-4.96l-3.77-9.92c-1.3-3.29-2.67-6.55-4-9.83c-1.33-3.28-2.65-6.55-4.11-9.78
							L1694.29,701.38z"/>
					</g>
				</g>
				<g>
					<g>
						<path class="st1" d="M1667.74,762.28L1667.74,762.28z"/>
					</g>
				</g>
				<g>
					<g>
						<path d="M1633.78,751.98l3.76,9.89c0.62,1.65,1.27,3.29,1.86,4.95l1.76,4.99c1.37,3.89,2.98,6.88,4.96,9.16
							c1.93,2.29,4.21,3.87,7.03,4.88c6.51,2.44,14.79,2.31,23.41-0.41c8.54-2.7,15.34-7.4,19.15-13.53
							c1.63-2.6,2.51-5.38,2.59-8.59c0.03-3.19-0.71-6.8-2.21-11.06l-1.91-5.42c-0.64-1.81-1.35-3.59-2.02-5.38l-4.09-10.75
							L1633.78,751.98z M1647.11,758.9l35.9-13.38c1.3,3.34,2.48,6.72,3.67,10.1c1.49,4.24,1.12,7.94-1.16,11.06
							c-2.28,3.12-6.53,5.7-12.62,7.74c-6.08,2.04-10.9,2.52-14.63,1.53c-3.72-0.99-6.27-3.47-7.68-7.48
							C1649.45,765.27,1648.34,762.06,1647.11,758.9z"/>
					</g>
				</g>
			</g>
			<g>
				<g>
					<g>
						<path class="st1" d="M1652.17,907.64c-4.06-29.69-10.43-59.03-18.48-87.88l96.2-27.3c9.3,33.25,16.61,67.09,21.31,101.29
							L1652.17,907.64z"/>
					</g>
					<g>
						<path d="M1754.61,896.42c-4.91-36.41-12.57-72.45-22.71-107.78l-101.85,29.36c8.71,30.37,15.31,61.36,19.53,92.7
							L1754.61,896.42z M1727.82,796.26c2.11,7.8,4.28,15.59,6.12,23.46c0.94,3.93,1.96,7.84,2.82,11.79l2.58,11.85
							c0.9,3.94,1.63,7.92,2.39,11.88c0.75,3.97,1.54,7.93,2.26,11.91l1.98,11.96l0.98,5.98l0.84,6l-93.03,13.44l-0.73-5.26
							l-0.87-5.23l-1.73-10.47c-0.63-3.48-1.32-6.95-1.98-10.42c-0.67-3.47-1.3-6.95-2.09-10.4l-2.26-10.36
							c-0.74-3.46-1.65-6.87-2.47-10.31c-1.6-6.89-3.52-13.7-5.35-20.52L1727.82,796.26z"/>
					</g>
				</g>
				<g>
					<g>
						<path class="st1" d="M1693.35,853.06L1693.35,853.06z"/>
					</g>
				</g>
				<g>
					<g>
						<path d="M1709.56,871.64c7.84-1.4,11.79-5.61,13.57-10.66c1.77-5.04,1.4-10.87,0.38-15.32c-1.53-6.9-4.23-12.02-8.16-14.97
							c-3.87-2.98-8.7-3.86-14.22-2.51c-4.39,1.07-7.39,2.96-9.23,6.01c-0.92,1.53-1.55,3.35-1.91,5.51
							c-0.4,2.17-0.57,4.69-0.51,7.59l0.11,8.01c0.11,3.91-0.41,6.69-1.38,8.58c-1,1.89-2.58,2.92-4.89,3.36
							c-2.4,0.46-4.52-0.21-6.2-1.82c-1.69-1.62-2.9-4.19-3.66-7.52c-1.63-7.48,0.82-12.42,6.81-14.2
							c-0.81-3.62-1.74-7.21-2.6-10.81c-5.98,1.83-10.14,5.1-12.41,9.55c-0.57,1.11-1.01,2.3-1.34,3.56
							c-0.35,1.27-0.6,2.6-0.71,4.01c-0.24,2.82,0,5.91,0.73,9.28c0.77,3.39,1.78,6.38,3.12,8.9c1.34,2.52,3.01,4.59,4.96,6.17
							c3.92,3.16,8.93,4.4,14.75,3.38c9.1-1.6,12.98-6.83,13.03-17.57l0.02-4.54l-0.08-4.53c-0.13-8.51,0.98-11.28,5.12-12.22
							c4.29-0.98,7.85,2.21,9.16,8.22c0.81,3.7,0.65,6.75-0.5,9.06c-1.12,2.31-3.15,3.88-6.01,4.64L1709.56,871.64z"/>
					</g>
				</g>
			</g>
		</g>
	</g>
</g>
</svg>
