<?xml version="1.0" encoding="utf-8"?>
<!-- Generator: Adobe Illustrator 26.0.3, SVG Export Plug-In . SVG Version: 6.00 Build 0)  -->
<svg version="1.1" id="Layer_1" xmlns="http://www.w3.org/2000/svg" xmlns:xlink="http://www.w3.org/1999/xlink" x="0px" y="0px"
	 viewBox="0 0 2000 2000" style="enable-background:new 0 0 2000 2000;" xml:space="preserve">
<style type="text/css">
	.st0{fill:none;}
	.st1{fill:#FFFFFF;}
</style>
<g>
	<g>
		<path class="st0" d="M1709.15,1000.05c0,391.38-317.27,708.65-708.65,708.65s-708.65-317.27-708.65-708.65
			S609.12,291.4,1000.5,291.4S1709.15,608.67,1709.15,1000.05z"/>
		<g>
			<g>
				<g>
					<path class="st1" d="M1652.39,1094.39c2.28-15.14,3.73-30.39,4.96-45.66c0.47-7.65,1.04-15.28,1.24-22.95l0.22-5.74l0.11-2.87
						l0.04-2.87l0.15-11.5l100,0.41l-0.17,13.21l-0.05,3.3l-0.12,3.3l-0.25,6.6c-0.25,8.81-0.88,17.6-1.44,26.39
						c-1.39,17.57-3.09,35.12-5.7,52.57L1652.39,1094.39z"/>
					<path d="M1753.91,1112.17l1.95-13.94c0.6-4.65,1.09-9.32,1.63-13.98l0.78-6.99l0.63-7.01c0.39-4.67,0.88-9.34,1.18-14.02
						c1.37-18.71,1.95-37.45,2.07-56.19h-106c-0.11,16.18-0.6,32.35-1.79,48.47c-0.25,4.03-0.69,8.05-1.02,12.08l-0.53,6.04
						l-0.68,6.02c-0.47,4.01-0.89,8.03-1.4,12.04l-1.68,12L1753.91,1112.17z M1756.07,1006.36l-0.16,12.37
						c-0.12,4.12-0.3,8.24-0.45,12.36c-0.23,8.25-0.87,16.47-1.37,24.71c-0.25,4.12-0.69,8.22-1.03,12.33l-0.55,6.16l-0.28,3.08
						l-0.35,3.08c-0.94,8.2-1.81,16.41-3.03,24.57l-93.1-12.95c1.08-7.15,1.83-14.34,2.66-21.52l0.31-2.69l0.24-2.7l0.48-5.4
						c0.29-3.6,0.7-7.2,0.91-10.81c0.42-7.22,1.01-14.43,1.2-21.67l0.4-10.85l0.13-10.86L1756.07,1006.36z"/>
				</g>
				<g>
					<rect x="1707.22" y="1052.38" class="st1" width="0" height="0"/>
				</g>
				<g>
					<path d="M1716.3,1067.34l-0.51,5.71l-0.64,5.7c6.55,0.19,12.09-1.94,16-5.93c3.9-3.98,6.36-9.81,6.93-16.8
						c0.52-8.48-1.91-15.55-7.01-20.5c-5.11-4.97-12.67-7.81-22.1-8.16c-9.35-0.35-17.06,1.85-22.5,5.96
						c-5.44,4.13-8.85,10.17-9.31,17.83c-0.55,6.83,0.99,12.69,4.4,17.17c3.37,4.47,8.43,7.55,15.05,8.63l0.64-5.67l0.5-5.68
						c-7.35-1.4-11.15-6.3-10.56-13.4c0.56-8.86,8.4-13.67,21.1-13.01c12.86,0.66,20.17,6.85,19.55,16.46
						C1726.97,1065.83,1719.3,1066.98,1716.3,1067.34z"/>
				</g>
			</g>
			<g>
				<g>
					<path class="st1" d="M1633.07,1184.07c4.21-14.71,8.09-29.52,11.23-44.5l1.22-5.61c0.42-1.87,0.73-3.75,1.11-5.63l2.16-11.27
						l1.88-11.32l0.93-5.66l0.79-5.69l98.99,14.19l-0.92,6.55l-1.07,6.53l-2.18,13.05l-2.49,12.99c-0.43,2.16-0.8,4.34-1.28,6.49
						l-1.4,6.46c-3.63,17.26-8.08,34.35-12.95,51.3L1633.07,1184.07z"/>
					<path d="M1731.07,1215.85l2-6.75l1.86-6.79c1.21-4.53,2.49-9.05,3.63-13.6l3.34-13.68c0.57-2.28,1.08-4.57,1.57-6.86l1.5-6.88
						l1.49-6.88c0.49-2.3,0.9-4.61,1.35-6.91c0.87-4.61,1.79-9.21,2.62-13.83c1.53-9.26,3.14-18.51,4.35-27.81l-104.99-14.6
						c-1.03,8.01-2.43,15.97-3.74,23.93c-0.71,3.97-1.51,7.93-2.26,11.9c-0.39,1.98-0.74,3.97-1.16,5.94l-1.29,5.92l-1.29,5.92
						c-0.42,1.97-0.85,3.95-1.35,5.9l-2.87,11.76c-0.98,3.91-2.09,7.8-3.13,11.7l-1.59,5.84l-1.73,5.8L1731.07,1215.85z
						 M1747.97,1111.29c-0.53,4.09-1.27,8.16-1.93,12.23c-0.7,4.07-1.3,8.15-2.08,12.21c-1.58,8.1-3.01,16.24-4.85,24.29
						c-3.38,16.17-7.57,32.16-12,48.07l-90.38-25.83c3.85-13.92,7.55-27.9,10.49-42.05c1.62-7.04,2.86-14.16,4.25-21.25
						c0.68-3.55,1.2-7.13,1.81-10.69c0.57-3.57,1.24-7.12,1.69-10.71L1747.97,1111.29z"/>
				</g>
				<g>
					<path class="st1" d="M1693.17,1150.11L1693.17,1150.11z"/>
				</g>
				<g>
					<path d="M1673.17,1156.2c-5.3-1.23-7.09-1.32-10.16-0.56l-2.9,11.87l2.09,0.53c1.42-1.45,2.75-1.82,5.23-1.21
						c16.76,3.85,17.61,3.76,22.46-2.63c0.95,6.88,4.75,11.21,11.66,12.96c6.26,1.59,16.07,0.78,19.07-11.85l3.43-15.75l3.05-15.82
						l-57.36-10.49l-2.14,11.18l22.67,4.54c-0.4,2.21-0.88,4.41-1.36,6.61l-1.44,6.59c-1.09,4.99-3.57,6.67-8.34,5.56
						C1676.72,1157.17,1677.38,1157.17,1673.17,1156.2z M1702.8,1165.03c-3.31-0.78-4.98-2.07-5.7-3.77c-0.74-1.71-0.53-3.82,0-6.23
						l1.53-7.04c0.52-2.34,1.03-4.69,1.46-7.05l14.9,2.98c-0.44,2.41-0.96,4.81-1.49,7.2l-1.56,7.19c-0.55,2.5-1.24,4.56-2.58,5.8
						C1707.97,1165.35,1705.95,1165.76,1702.8,1165.03z"/>
				</g>
			</g>
			<g>
				<g>
					<path class="st1" d="M1601.39,1270.15c6.24-13.97,12.03-28.14,17.36-42.48c1.33-3.59,2.55-7.21,3.84-10.81l1.91-5.41l1.77-5.46
						c1.17-3.64,2.39-7.27,3.52-10.92l3.27-11l96.03,27.89l-3.77,12.68c-1.31,4.21-2.71,8.4-4.06,12.59l-2.05,6.29l-2.19,6.24
						c-1.48,4.16-2.9,8.33-4.43,12.47c-6.14,16.54-12.82,32.87-20.02,48.98L1601.39,1270.15z"/>
					<path d="M1693.99,1315.34c7.72-17.11,14.91-34.46,21.42-52.08c6.42-17.64,12.3-35.48,17.48-53.53l-101.92-29.13
						c-4.46,15.52-9.52,30.85-15.03,46.03c-5.59,15.15-11.79,30.06-18.42,44.78L1693.99,1315.34z M1725.32,1214.15
						c-4.57,15.88-9.94,31.51-15.54,47.04c-2.96,7.71-5.77,15.48-8.98,23.09c-1.58,3.82-3.09,7.66-4.73,11.45l-4.96,11.35
						l-85.87-38.23l4.34-9.93c1.43-3.32,2.75-6.68,4.13-10.02c2.81-6.66,5.26-13.46,7.86-20.2c4.88-13.59,9.6-27.26,13.59-41.15
						L1725.32,1214.15z"/>
				</g>
				<g>
					<path class="st1" d="M1665.67,1244.95L1665.67,1244.95L1665.67,1244.95z"/>
				</g>
				<g>
					<path d="M1691.72,1261.04c1.47-3.85,2.95-7.7,4.28-11.6l-54.89-19.68c-1.22,3.59-2.59,7.13-3.94,10.68L1691.72,1261.04z"/>
				</g>
			</g>
			<g>
				<g>
					<path class="st1" d="M1557.93,1350.97l6.07-9.74l5.84-9.88c1.99-3.27,3.81-6.64,5.69-9.97l2.8-5.01l1.4-2.51l1.34-2.54
						l5.36-10.15c1.77-3.39,3.42-6.85,5.14-10.26l2.56-5.14l2.43-5.2c1.61-3.47,3.26-6.92,4.84-10.41l91.18,41.06
						c-1.81,4.02-3.71,8-5.57,12l-2.81,5.99l-2.94,5.92c-1.98,3.94-3.89,7.91-5.93,11.83l-6.17,11.7l-1.54,2.92l-1.61,2.89
						l-3.23,5.77c-2.16,3.85-4.27,7.71-6.55,11.49l-6.73,11.38l-6.99,11.22L1557.93,1350.97z"/>
					<path d="M1643.36,1408.63c10.1-15.82,19.51-32.06,28.45-48.56l6.57-12.45c2.13-4.18,4.19-8.4,6.29-12.6
						c2.13-4.18,4.09-8.45,6.07-12.7c1.97-4.26,4.02-8.48,5.86-12.8l-96.84-43.11c-1.57,3.72-3.35,7.34-5.04,11.01
						c-1.71,3.66-3.38,7.33-5.22,10.93l-5.4,10.84l-5.65,10.71c-7.7,14.19-15.79,28.19-24.49,41.8L1643.36,1408.63z
						 M1688.53,1312.86c-3.5,7.48-6.91,15-10.66,22.36c-1.86,3.69-3.63,7.42-5.57,11.06l-5.78,10.95
						c-7.87,14.52-16.06,28.86-24.88,42.82l-79.71-49.83c7.73-12.22,14.89-24.78,21.78-37.49l5.06-9.59
						c1.7-3.19,3.24-6.46,4.87-9.68c3.29-6.43,6.26-13.03,9.33-19.56L1688.53,1312.86z"/>
				</g>
				<g>
					<path class="st1" d="M1625.12,1334.98L1625.12,1334.98z"/>
				</g>
				<g>
					<path d="M1625.28,1360.03c6.91,4,12.7,3.27,17.34,0.47c4.62-2.81,8.2-7.59,10.32-11.74c1.69-3.19,2.83-6.24,3.44-9.09
						c0.3-1.42,0.47-2.8,0.51-4.12c0.01-1.33-0.11-2.6-0.36-3.82c-1.01-4.85-4.11-8.67-9.2-11.19c-4.05-2.01-7.57-2.48-10.96-1.28
						c-1.7,0.6-3.37,1.62-5.06,3.07c-1.73,1.43-3.51,3.3-5.36,5.61l-5.16,6.34c-5.1,6.18-8.51,7.57-12.61,5.27
						c-2.13-1.19-3.31-3.1-3.54-5.45c-0.11-1.18,0.01-2.47,0.38-3.85c0.38-1.37,0.97-2.85,1.77-4.4c3.65-6.91,8.74-9.2,14.48-6.7
						c1.76-3.36,3.39-6.78,5.09-10.16c-5.75-2.45-11.06-2.59-15.7-0.57c-1.16,0.5-2.28,1.15-3.36,1.92
						c-1.1,0.76-2.16,1.65-3.17,2.68c-2.02,2.05-3.87,4.63-5.51,7.75c-1.62,3.16-2.86,6.13-3.47,8.98c-0.62,2.85-0.7,5.55-0.25,8.06
						c0.94,5.03,3.86,9.2,8.99,12.19c3.97,2.31,7.58,3.1,11.1,2.26c3.47-0.86,6.84-3.36,10.37-7.55c2-2.35,3.99-4.72,5.9-7.13
						c5.47-6.76,8.12-8.2,11.89-6.25c3.91,2.01,4.54,6.83,1.61,12.38c-0.91,1.71-1.88,3.14-2.93,4.27
						c-1.08,1.12-2.21,1.95-3.39,2.49c-2.37,1.08-4.93,1-7.62-0.27C1628.96,1353.48,1627.16,1356.78,1625.28,1360.03z"/>
				</g>
			</g>
			<g>
				<g>
					<path class="st1" d="M1503.67,1425.01c5.01-5.79,9.74-11.82,14.56-17.77l7-9.11c1.16-1.52,2.34-3.03,3.48-4.57l3.38-4.64
						c9.12-12.31,17.65-25.03,25.85-37.96l84.57,53.36c-9.44,14.89-19.28,29.54-29.76,43.71l-3.9,5.34
						c-1.31,1.77-2.67,3.5-4.01,5.26l-8.06,10.48c-5.54,6.86-10.99,13.78-16.75,20.46L1503.67,1425.01z"/>
					<path d="M1580.26,1493.94c12.23-14.23,23.8-29.01,34.9-44.13l4.14-5.68c1.39-1.89,2.76-3.79,4.08-5.73l8.02-11.57
						c2.62-3.89,5.17-7.83,7.76-11.74c2.61-3.9,5.08-7.89,7.56-11.87l-89.88-56.19c-2.14,3.43-4.25,6.87-6.51,10.22
						c-2.23,3.37-4.42,6.76-6.68,10.11l-6.9,9.96c-1.13,1.67-2.32,3.31-3.52,4.93l-3.57,4.89c-9.56,13.02-19.52,25.76-30.06,38.01
						L1580.26,1493.94z M1638.29,1405.41c-8.94,13.87-18.13,27.6-27.97,40.86l-3.65,5c-1.21,1.67-2.5,3.28-3.74,4.93l-7.53,9.82
						l-7.75,9.65l-3.88,4.82l-3.99,4.73l-72.03-60.39l3.5-4.14l3.4-4.23l6.79-8.45l6.6-8.61c1.09-1.44,2.22-2.85,3.28-4.32
						l3.19-4.38c8.63-11.61,16.66-23.64,24.5-35.78L1638.29,1405.41z"/>
				</g>
				<g>
					<path class="st1" d="M1572.42,1418.48L1572.42,1418.48z"/>
				</g>
				<g>
					<path d="M1569.1,1443.31c6.27,4.9,12.1,4.99,17.11,2.88c2.5-1.06,4.8-2.64,6.8-4.45c1.97-1.83,3.67-3.86,5.04-5.74
						c2.13-2.92,3.7-5.76,4.7-8.49c0.95-2.77,1.35-5.4,1.2-7.86c-0.31-4.93-2.84-9.14-7.53-12.34c-3.73-2.55-7.15-3.51-10.7-2.8
						c-1.77,0.35-3.57,1.12-5.46,2.32c-1.88,1.2-3.85,2.83-6.05,4.84l-6.02,5.54c-1.46,1.36-2.78,2.44-3.99,3.26
						c-1.22,0.8-2.35,1.32-3.4,1.6c-2.11,0.54-3.93,0.06-5.81-1.37c-3.9-2.97-3.56-8.12,0.51-13.78c4.62-6.31,9.99-7.86,15.28-4.62
						l6.47-9.34c-5.35-3.23-10.61-4.11-15.5-2.77c-2.45,0.67-4.8,1.9-7.06,3.68c-2.3,1.74-4.5,4.03-6.58,6.88
						c-4.14,5.79-6.25,11.27-6.05,16.36c0.19,5.08,2.6,9.7,7.25,13.35c7.23,5.69,13.78,5.03,21.99-2.26
						c2.31-2.05,4.52-4.18,6.8-6.27c6.4-5.9,9.22-6.96,12.66-4.52c3.62,2.55,3.56,7.4-0.14,12.47c-2.28,3.12-4.69,5.09-7.17,5.85
						c-2.5,0.74-5.04,0.29-7.52-1.33L1569.1,1443.31z"/>
				</g>
			</g>
			<g>
				<g>
					<path class="st1" d="M1439.68,1490.85c11.39-10.24,22.51-20.78,33.14-31.81l4.01-4.11c1.33-1.38,2.61-2.8,3.92-4.19l7.81-8.42
						c5.07-5.74,10.22-11.41,15.1-17.31l76.36,64.56c-5.63,6.79-11.54,13.32-17.39,19.92c-2.97,3.25-5.99,6.46-8.99,9.69
						c-1.51,1.61-2.99,3.24-4.52,4.82l-4.62,4.73c-12.23,12.69-25.02,24.83-38.13,36.61L1439.68,1490.85z"/>
					<path d="M1506.01,1569.7c7.07-6.16,13.87-12.63,20.72-19.03l10.07-9.83c1.69-1.63,3.34-3.29,4.97-4.98l4.91-5.03
						c13.06-13.46,25.71-27.33,37.71-41.75l-81.23-68.1c-10.32,12.43-21.24,24.37-32.49,35.97l-4.23,4.34
						c-1.4,1.45-2.82,2.89-4.28,4.29l-8.67,8.47c-5.91,5.51-11.75,11.1-17.85,16.4L1506.01,1569.7z M1575.7,1490.05l-4,4.72
						l-4.11,4.63l-8.23,9.25l-8.43,9.06c-1.41,1.5-2.79,3.04-4.24,4.51l-4.32,4.43c-11.44,11.9-23.43,23.25-35.62,34.37l-63-69.77
						c10.67-9.76,21.2-19.68,31.21-30.12l3.79-3.88c1.27-1.29,2.47-2.64,3.71-3.95l7.39-7.94l7.21-8.1l3.6-4.05l3.5-4.14
						L1575.7,1490.05z"/>
				</g>
				<g>
					<path class="st1" d="M1508.67,1493.89L1508.67,1493.89z"/>
				</g>
			</g>
			<g>
				<g>
					<path d="M1364.91,1548.74c1.53-1.02,3.08-2,4.59-3.05l56.1,82.78c-1.74,1.21-3.53,2.34-5.29,3.51L1364.91,1548.74z"/>
				</g>
				<g>
					<polygon points="1437.61,1492.68 1441.74,1489.02 1508.76,1563.24 1504.01,1567.46 					"/>
				</g>
			</g>
			<g>
				<g>
					<path class="st1" d="M1287.65,1592.96c13.77-6.68,27.27-13.91,40.58-21.46c13.22-7.71,26.27-15.74,38.98-24.28l55.75,83.01
						c-14.64,9.83-29.66,19.08-44.89,27.96c-15.34,8.71-30.89,17.02-46.76,24.73L1287.65,1592.96z"/>
					<path d="M1329.76,1687.02c16.9-8.18,33.51-16.92,49.82-26.22c16.24-9.41,32.15-19.36,47.72-29.84l-59.47-87.75
						c-13.41,9.02-27.11,17.59-41.08,25.69c-14.03,8-28.33,15.52-42.86,22.56L1329.76,1687.02z M1418.66,1629.49l-10.34,6.81
						l-10.49,6.57l-5.25,3.28l-5.33,3.16l-10.66,6.3l-10.81,6.05l-5.41,3.01l-5.48,2.89l-10.96,5.76l-11.09,5.51l-41.39-84.4
						l9.71-4.82l9.59-5.05l4.79-2.53l4.73-2.64l9.46-5.29l9.33-5.52l4.67-2.76l4.6-2.87l9.19-5.75l9.06-5.96L1418.66,1629.49z"/>
				</g>
				<g>
					<path class="st1" d="M1353.16,1614.85L1353.16,1614.85z"/>
				</g>
				<g>
					<path d="M1335.2,1603.99c-2.64-4.75-3.77-6.14-6.38-7.89c-3.53,2.03-7.15,3.9-10.75,5.8l1.01,1.91c2.03,0.1,3.21,0.84,4.41,3.1
						c4.18,7.52,6.44,11.41,8.65,13.36c2.2,1.92,4.4,1.98,8.36,1.57c-2.2,2.73-3.52,5.41-3.83,8.3c-0.32,2.87,0.34,5.87,2.01,9.01
						c1.52,2.86,4.06,5.98,7.66,7.61c1.8,0.81,3.88,1.28,6.2,1.12c2.31-0.18,4.89-0.95,7.71-2.53l7.03-3.93
						c2.34-1.32,4.63-2.72,6.95-4.08c4.61-2.75,9.28-5.42,13.8-8.31l-30.63-49.62c-1.61,1-3.21,2.03-4.84,3l-4.9,2.9l11.81,19.87
						l-5.81,3.43l-2.9,1.72l-2.94,1.65c-4.46,2.49-7.38,1.75-9.75-2.52C1336.85,1607.28,1337.29,1607.77,1335.2,1603.99z
						 M1348.5,1631.92c-3.28-5.96-0.69-8.5,3.62-10.91c4.22-2.3,8.3-4.83,12.45-7.25l7.77,13.06c-4.24,2.47-8.41,5.05-12.72,7.4
						C1355.15,1636.73,1351.63,1637.6,1348.5,1631.92z"/>
				</g>
			</g>
			<g>
				<g>
					<path class="st1" d="M1367.22,1547.22c25.39-17.12,49.66-35.91,72.46-56.37l66.71,74.5c-26.24,23.54-54.17,45.19-83.42,64.89
						L1367.22,1547.22z"/>
					<path d="M1421.98,1634.48c31.25-20.77,60.92-43.9,88.79-69.01l-71.04-78.67c-24.02,21.63-49.56,41.56-76.48,59.44
						L1421.98,1634.48z M1502.02,1565.21c-24.63,21.98-50.83,42.18-78.1,60.78l-52.73-77.81c23.88-16.3,46.84-33.98,68.42-53.25
						L1502.02,1565.21z"/>
				</g>
				<g>
					<path d="M1430.11,1576.58l-9.26,6.76c4.26,5.01,9.48,7.61,15.1,7.89c5.65,0.33,11.53-1.85,17.1-6.11
						c1.68-1.3,3.19-2.65,4.46-4.13c1.27-1.48,2.34-3.03,3.22-4.63c1.75-3.2,2.71-6.62,2.87-10.15c0.17-3.52-0.51-7.19-1.98-10.87
						c-1.47-3.68-3.72-7.37-6.75-10.99c-3-3.59-6.2-6.44-9.48-8.56c-3.28-2.11-6.64-3.49-10.03-4.17c-3.38-0.67-6.74-0.6-10.01,0.24
						c-3.26,0.84-6.42,2.46-9.49,4.77c-5.44,4.16-8.67,9.35-9.8,14.77c-1.09,5.46,0.06,11.35,3.68,16.98l9.22-6.72
						c-3.86-6.37-2.82-12.54,2.84-16.87c3.56-2.68,7.45-3.44,11.52-2.26c4.06,1.18,8.28,4.28,12.28,9.22
						c4.05,5.01,6.18,9.89,6.33,14.3c0.08,2.2-0.33,4.28-1.23,6.19c-0.9,1.91-2.34,3.58-4.24,5.04
						C1438.37,1583.46,1432.4,1578.59,1430.11,1576.58z"/>
				</g>
			</g>
			<g>
				<g>
					<path class="st1" d="M1202.51,1627.09c29.15-9.32,57.58-20.84,85.14-34.14l43.66,89.97c-31.76,15.34-64.55,28.61-98.16,39.36
						L1202.51,1627.09z"/>
					<path d="M1231.04,1726.12c35.79-11.36,70.74-25.37,104.44-41.92l-46.68-95.17c-28.99,14.23-59.04,26.28-89.81,36.05
						L1231.04,1726.12z M1327.16,1681.61c-29.82,14.19-60.48,26.69-91.91,36.84l-29.18-89.36c27.5-8.87,54.31-19.82,80.41-32.23
						L1327.16,1681.61z"/>
				</g>
				<g>
					<path class="st1" d="M1264.3,1657.92L1264.3,1657.92L1264.3,1657.92z"/>
				</g>
				<g>
					<path d="M1289.9,1647.59c-3.63-8.1-9.21-14-15.65-17.1c-3.23-1.56-6.65-2.35-10.24-2.48c-3.59-0.13-7.3,0.52-11.05,2.05
						c-3.82,1.61-7.02,3.66-9.54,6.25c-2.52,2.59-4.39,5.65-5.61,9.03c-2.46,6.7-2.39,14.62,0.42,22.51
						c3.1,8.73,8.37,15.13,14.97,18.48c3.29,1.65,6.9,2.55,10.72,2.66c3.81,0.09,7.85-0.56,11.87-2.24
						c4.05-1.65,7.45-3.91,10.13-6.6c2.68-2.69,4.6-5.95,5.81-9.41C1294.13,1663.77,1293.53,1655.69,1289.9,1647.59z
						 M1271.9,1677.28c-4.62,1.94-9.21,1.45-13.11-0.87c-3.91-2.34-7.18-6.62-9.39-12.54c-2.09-5.58-2.36-10.83-1.06-15.07
						c1.29-4.27,4.19-7.44,8.44-9.23c4.3-1.76,8.64-1.35,12.53,0.9c3.9,2.26,7.31,6.24,9.72,11.88c2.4,5.61,2.96,10.97,1.7,15.31
						C1279.49,1672,1276.46,1675.41,1271.9,1677.28z"/>
				</g>
			</g>
			<g>
				<g>
					<path class="st1" d="M1113.44,1649.01c15.07-2.66,30.08-5.67,44.92-9.41c7.46-1.72,14.8-3.87,22.2-5.82l11-3.27
						c1.83-0.55,3.67-1.07,5.49-1.65l5.46-1.77l30.64,95.19l-6.29,2.04c-2.1,0.67-4.22,1.27-6.33,1.91l-12.69,3.76
						c-8.52,2.27-17,4.72-25.59,6.72c-17.11,4.3-34.42,7.78-51.78,10.84L1113.44,1649.01z"/>
					<path d="M1127.83,1751.03l6.94-1.15l6.92-1.31c4.61-0.9,9.23-1.73,13.82-2.69l13.76-2.99l3.44-0.76l3.42-0.83l6.84-1.67
						l6.84-1.67c2.28-0.56,4.54-1.21,6.8-1.81c4.53-1.24,9.07-2.42,13.58-3.71l13.5-4.01l3.37-1.01l3.35-1.08l6.7-2.17
						l-32.91-100.76l-5.76,1.87l-2.88,0.94l-2.9,0.86l-11.6,3.45c-3.88,1.11-7.79,2.12-11.68,3.19c-1.95,0.52-3.89,1.08-5.85,1.56
						l-5.88,1.43l-5.88,1.44l-2.94,0.72l-2.96,0.65l-11.83,2.58c-3.95,0.83-7.93,1.53-11.89,2.31l-5.95,1.13l-5.98,0.99
						L1127.83,1751.03z M1229.23,1720.4c-3.92,1.31-7.89,2.45-11.84,3.63c-3.96,1.16-7.9,2.4-11.89,3.48
						c-7.98,2.14-15.92,4.41-23.96,6.28c-16.02,4.05-32.22,7.28-48.46,10.28l-16.39-92.56c14.21-2.64,28.39-5.44,42.4-9
						c7.04-1.63,13.98-3.63,20.96-5.49c3.49-0.95,6.93-2.04,10.4-3.05c3.46-1.04,6.94-2.02,10.36-3.18L1229.23,1720.4z"/>
				</g>
				<g>
					<path class="st1" d="M1170.31,1688.16L1170.31,1688.16z"/>
				</g>
				<g>
					<path d="M1151.82,1705.05c1.65,7.79,6.08,11.61,11.28,13.23c1.3,0.41,2.65,0.67,4,0.83c1.35,0.13,2.72,0.15,4.06,0.08
						c2.69-0.13,5.3-0.59,7.56-1.14c7.03-1.65,12.1-4.82,15.03-8.76c2.93-3.96,3.69-8.81,2.16-14.28
						c-2.45-8.71-8.02-11.73-19.83-10.9l-8.18,0.35c-4,0.19-6.82-0.08-8.78-0.99c-1.96-0.93-3.05-2.48-3.58-4.78
						c-0.54-2.39,0.09-4.5,1.68-6.27c1.59-1.78,4.16-3.17,7.55-3.99c3.8-0.94,6.98-0.79,9.45,0.24c2.46,1.03,4.24,3.06,5.23,6.02
						l10.97-2.97c-2.04-5.91-5.5-9.97-10.12-12.1c-4.62-2.13-10.37-2.27-17.22-0.66c-3.45,0.84-6.45,2.03-8.97,3.51
						c-2.54,1.42-4.6,3.14-6.16,5.14c-3.12,3.99-4.24,9.07-3.03,14.86c1.88,8.99,7.35,12.77,18.31,12.43l9.24-0.44
						c8.71-0.35,11.52,0.52,12.61,4.64c1.13,4.25-2,8.05-8.11,9.49c-7.53,1.83-12.44-0.25-14.16-5.95L1151.82,1705.05z"/>
				</g>
			</g>
			<g>
				<g>
					<path class="st1" d="M1022.11,1658.3l11.49-0.43c3.82-0.2,7.64-0.48,11.47-0.71l5.73-0.36l5.72-0.5l11.44-1.01l11.41-1.31
						c1.9-0.22,3.81-0.42,5.7-0.66l5.68-0.8c3.79-0.55,7.59-1.03,11.37-1.62l11.32-1.88l17.02,98.54l-13.05,2.16
						c-4.36,0.68-8.73,1.25-13.09,1.87l-6.55,0.91c-2.19,0.29-4.38,0.51-6.57,0.77l-13.14,1.5l-13.17,1.17l-6.59,0.57l-6.59,0.42
						c-4.4,0.27-8.79,0.58-13.19,0.81l-13.2,0.5L1022.11,1658.3z"/>
					<path d="M1022.24,1761.37c18.74-0.53,37.46-1.82,56.13-3.61c18.66-1.99,37.26-4.53,55.75-7.77l-18.48-104.38
						c-15.91,2.78-31.92,4.96-47.98,6.69c-16.09,1.53-32.22,2.65-48.39,3.11L1022.24,1761.37z M1126.84,1745.12
						c-4.07,0.67-8.14,1.37-12.22,2l-12.26,1.72l-6.13,0.84l-6.15,0.71l-12.3,1.4l-12.33,1.1l-6.16,0.54
						c-2.06,0.16-4.12,0.27-6.17,0.41l-12.35,0.78c-4.12,0.23-8.24,0.34-12.36,0.51l-3.41-93.94c3.61-0.15,7.23-0.24,10.84-0.44
						l10.83-0.69c1.8-0.12,3.61-0.21,5.41-0.36l5.4-0.48l10.8-0.96l10.77-1.23l5.39-0.61l5.37-0.74l10.74-1.5
						c3.57-0.55,7.13-1.17,10.7-1.75L1126.84,1745.12z"/>
				</g>
				<g>
					<path class="st1" d="M1073.01,1705.03L1073.01,1705.03z"/>
				</g>
				<g>
					<path d="M1052.35,1719.13c1.07,15.98,15.53,17.54,24.83,16.65c7.18-0.82,12.65-3.1,16.1-6.57c3.45-3.53,4.88-8.28,4.12-13.9
						c-0.6-4.48-2.18-7.65-5.08-9.78c-2.9-2.13-7.12-3.36-13.04-3.8c-2.72-0.24-5.43-0.42-8.14-0.71
						c-7.98-0.82-11.04-2.79-11.43-7.5c-0.4-4.86,3.63-8.19,10.58-8.81c7.77-0.86,12.52,2.04,13.65,8.19l5.65-0.65l5.63-0.79
						c-1.19-6.14-4.05-10.58-8.32-13.31c-4.28-2.79-9.98-3.85-16.97-3.05c-7.09,0.63-12.56,2.88-16.21,6.46
						c-3.65,3.51-5.47,8.33-5.07,14.24c0.61,9.16,5.51,13.77,16.41,14.82l9.22,0.93c8.65,0.7,11.33,2.09,11.83,6.3
						c0.52,4.37-3.11,7.6-9.35,8.31c-7.71,0.77-12.29-2.1-13.19-7.94C1059.83,1718.55,1056.1,1718.94,1052.35,1719.13z"/>
				</g>
			</g>
			<g>
				<g>
					<path class="st1" d="M930.3,1654.97c15.23,1.53,30.51,2.77,45.83,3.23c7.65,0.39,15.32,0.35,22.99,0.48
						c3.83,0.02,7.66-0.08,11.5-0.11l5.75-0.07c1.92-0.01,3.83-0.13,5.74-0.19l3.22,99.95c-2.2,0.07-4.4,0.2-6.6,0.22l-6.6,0.09
						c-4.4,0.04-8.8,0.15-13.21,0.12c-8.8-0.14-17.61-0.12-26.41-0.55c-17.61-0.54-35.19-1.94-52.73-3.72L930.3,1654.97z"/>
					<path d="M916.3,1757.04l6.99,0.78l7.01,0.63c4.67,0.39,9.34,0.88,14.02,1.18l14.04,0.89c2.34,0.17,4.68,0.26,7.02,0.34
						l7.03,0.27l7.03,0.26c2.34,0.1,4.68,0.08,7.03,0.13l14.05,0.17l14.05-0.17c2.34-0.05,4.69-0.03,7.03-0.13l7.03-0.26
						l-3.85-105.93l-6.06,0.23c-2.02,0.09-4.04,0.07-6.06,0.11l-12.13,0.16l-12.13-0.16c-2.02-0.04-4.05-0.01-6.06-0.11l-6.06-0.23
						l-6.06-0.23c-2.02-0.07-4.04-0.14-6.06-0.3l-12.1-0.77c-4.03-0.25-8.05-0.69-12.08-1.02l-6.04-0.53l-6.02-0.68L916.3,1757.04z
						 M1022.08,1755.37c-32.97,0.92-65.99-0.35-98.84-3.58l9.51-93.52c28.78,2.82,57.76,3.95,86.7,3.14L1022.08,1755.37z"/>
				</g>
				<g>
					<rect x="974.32" y="1708.16" class="st1" width="0" height="0"/>
				</g>
			</g>
			<g>
				<g>
					<path class="st1" d="M839.96,1638.96l11.15,2.72l11.21,2.45l5.61,1.22l5.64,1.08c3.76,0.71,7.51,1.47,11.28,2.14
						c7.56,1.22,15.08,2.6,22.68,3.56l5.68,0.8c1.89,0.27,3.79,0.54,5.69,0.74l11.41,1.3l-10.53,99.44l-13.14-1.5
						c-2.19-0.23-4.37-0.54-6.56-0.85l-6.55-0.92c-8.75-1.13-17.43-2.69-26.13-4.11c-4.34-0.77-8.67-1.64-13-2.46l-6.5-1.25
						l-6.47-1.4l-12.92-2.83l-12.85-3.13L839.96,1638.96z"/>
					<path d="M811.84,1738.11c18.2,4.63,36.57,8.52,55.04,11.87c18.49,3.24,37.09,5.78,55.75,7.77l10.72-105.46
						c-16.07-1.72-32.08-3.9-47.98-6.69c-15.88-2.9-31.69-6.23-47.34-10.21L811.84,1738.11z M916.95,1751.07l-12.3-1.41l-12.26-1.7
						l-6.13-0.86c-2.04-0.3-4.07-0.66-6.11-0.99l-12.22-2.03c-16.24-3-32.44-6.23-48.46-10.28l22.45-91.28
						c14.01,3.55,28.19,6.36,42.4,9l10.69,1.77c1.78,0.29,3.56,0.61,5.35,0.87l5.37,0.75l10.74,1.5l10.77,1.23L916.95,1751.07z"/>
				</g>
				<g>
					<path class="st1" d="M876.12,1697.8L876.12,1697.8L876.12,1697.8z"/>
				</g>
				<g>
					<path d="M902.33,1673.38l-5.36-0.75l-5.33-0.88l-10.67-1.77c-8.28-1.54-13.87-0.53-18.5,3.4c-5.43,4.41-9.46,11.62-11.36,20.46
						c-1.88,8.75-1.13,17.04,2.41,23.43c2.99,5.37,8.2,8.44,17.28,10.12l11.58,1.92l5.79,0.95l5.81,0.82L902.33,1673.38z
						 M889.48,1681.52l-6.11,37.82l-10.83-1.79c-9.06-1.68-12.3-8.77-9.79-21.39c2.5-12.56,7.95-17.92,16.48-16.33L889.48,1681.52z"
						/>
				</g>
			</g>
			<g>
				<g>
					<path class="st1" d="M752.77,1610.48l5.31,2.17c1.77,0.73,3.57,1.37,5.36,2.06l10.73,4.08c7.23,2.5,14.4,5.19,21.7,7.46
						c14.52,4.83,29.26,8.96,44.09,12.71l-24.29,97c-17.1-4.33-34.1-9.1-50.84-14.66c-8.42-2.64-16.69-5.71-25.02-8.61l-12.37-4.7
						c-2.06-0.8-4.13-1.54-6.17-2.38l-6.12-2.5L752.77,1610.48z"/>
					<path d="M711.05,1704.7l6.52,2.66c2.17,0.9,4.34,1.77,6.55,2.59l13.16,5c4.4,1.63,8.85,3.14,13.27,4.71
						c2.22,0.77,4.42,1.58,6.65,2.31l6.7,2.18l6.7,2.17l3.35,1.08l3.37,1.01l13.5,4.01c4.51,1.29,9.06,2.47,13.58,3.71
						c2.27,0.6,4.53,1.25,6.8,1.81l6.84,1.67l25.32-102.93l-5.88-1.43c-1.96-0.48-3.9-1.05-5.85-1.56
						c-3.89-1.07-7.8-2.08-11.68-3.19l-11.6-3.45l-2.9-0.86l-2.88-0.94l-5.76-1.87l-5.76-1.87c-1.92-0.63-3.81-1.33-5.72-1.99
						c-3.8-1.36-7.62-2.65-11.41-4.05l-11.32-4.3c-1.89-0.7-3.76-1.46-5.63-2.23l-5.6-2.29L711.05,1704.7z M813.32,1732.3
						c-15.98-4.18-31.9-8.63-47.57-13.85c-7.88-2.47-15.64-5.32-23.43-8.05c-3.89-1.39-7.73-2.91-11.59-4.36
						c-3.86-1.47-7.73-2.91-11.54-4.51l35.01-87.24c3.33,1.41,6.72,2.66,10.09,3.94c3.38,1.27,6.74,2.61,10.14,3.82
						c6.82,2.37,13.6,4.89,20.5,7.03c13.7,4.58,27.63,8.45,41.61,12.12L813.32,1732.3z"/>
				</g>
				<g>
					<path class="st1" d="M780.35,1673.77L780.35,1673.77z"/>
				</g>
				<g>
					<path d="M806.59,1682.33c2.41-8.53,1.93-16.65-1.01-23.18c-1.47-3.27-3.57-6.14-6.26-8.48c-2.69-2.35-5.93-4.3-9.78-5.54
						c-3.94-1.27-7.76-1.62-11.33-1.3c-3.59,0.35-6.98,1.49-10.09,3.28c-6.21,3.62-11.24,9.72-14.15,17.57
						c-3.23,8.69-3.31,16.99-0.38,23.73c2.92,6.74,8.73,12.22,17.05,14.83c4.17,1.34,8.2,1.86,12,1.46c3.81-0.41,7.35-1.6,10.5-3.49
						C799.45,1697.44,804.17,1690.88,806.59,1682.33z M773.74,1693.49c-2.38-0.77-4.39-1.95-5.98-3.47
						c-1.59-1.53-2.76-3.44-3.51-5.6c-1.49-4.32-1.24-9.7,0.86-15.66c1.98-5.62,5.14-9.81,8.86-12.22c1.86-1.21,3.85-1.95,5.95-2.25
						c2.09-0.31,4.26-0.14,6.46,0.57c4.42,1.42,7.46,4.59,9.03,8.75c1.56,4.17,1.6,9.48-0.17,15.33
						c-1.77,5.86-4.76,10.27-8.53,12.85C782.92,1694.38,778.43,1695,773.74,1693.49z"/>
				</g>
			</g>
			<g>
				<g>
					<path class="st1" d="M670.39,1570.1c1.64,0.99,3.3,1.93,4.98,2.86l5.01,2.8c3.34,1.87,6.67,3.76,10.07,5.51l10.15,5.36
						l10.28,5.11c13.75,6.7,27.69,13.06,41.89,18.75l-37.64,92.65c-16.37-6.57-32.44-13.88-48.29-21.61l-11.84-5.89l-11.7-6.17
						c-3.92-2.02-7.76-4.19-11.6-6.35l-5.77-3.23c-1.93-1.07-3.85-2.16-5.73-3.29L670.39,1570.1z"/>
					<path d="M615.94,1657.56c16.21,9.45,32.69,18.46,49.58,26.65c4.18,2.13,8.45,4.09,12.7,6.07c4.26,1.97,8.48,4.02,12.8,5.86
						l12.9,5.64l13.03,5.33l39.48-98.37l-11.21-4.58l-11.09-4.86c-3.72-1.57-7.34-3.35-11.01-5.04c-3.66-1.71-7.33-3.38-10.93-5.22
						c-14.54-7.03-28.71-14.81-42.67-22.93L615.94,1657.56z M713.34,1699.15c-7.68-3.04-15.19-6.48-22.77-9.76
						c-3.76-1.69-7.49-3.48-11.24-5.21l-5.61-2.62c-1.87-0.88-3.7-1.82-5.56-2.73l-11.09-5.51l-10.96-5.76l-5.48-2.89l-5.41-3.01
						l-10.81-6.05l46.85-81.49l9.46,5.29l4.73,2.64l4.79,2.53l9.59,5.05l9.71,4.82c1.62,0.8,3.23,1.63,4.86,2.4l4.91,2.29
						c3.28,1.52,6.54,3.08,9.83,4.56c6.64,2.86,13.2,5.89,19.92,8.54L713.34,1699.15z"/>
				</g>
				<g>
					<polygon class="st1" points="688.86,1636.62 688.86,1636.62 688.86,1636.62 					"/>
				</g>
				<g>
					<path d="M674.24,1651.77c-5.2-2.52-10.27-5.26-15.38-7.95l-4.69,8.83l10.65,5.6l10.77,5.36c1.8,0.88,3.58,1.8,5.4,2.66
						l5.45,2.55c3.64,1.69,7.26,3.41,10.91,5.07l4.11-9.12l-16.29-7.58l20.93-43.54l-10.2-5.05L674.24,1651.77z"/>
				</g>
			</g>
			<g>
				<g>
					<path class="st1" d="M594.39,1518.62c12.09,9.4,24.45,18.44,37.1,27.07c3.17,2.14,6.39,4.22,9.58,6.33l4.8,3.15l4.87,3.04
						c3.26,2.01,6.47,4.09,9.76,6.05l9.88,5.84l-50.2,86.49l-11.38-6.73c-3.79-2.25-7.49-4.64-11.24-6.96l-5.61-3.5l-5.53-3.62
						c-3.68-2.43-7.38-4.83-11.03-7.29c-14.57-9.93-28.81-20.33-42.72-31.17L594.39,1518.62z"/>
					<path d="M528.33,1597.68c14.75,11.59,29.86,22.73,45.38,33.27c15.56,10.48,31.48,20.43,47.72,29.84l52.83-91.9
						c-13.97-8.11-27.67-16.67-41.08-25.69c-13.36-9.08-26.37-18.68-39.08-28.66L528.33,1597.68z M618.97,1652.38l-10.65-6.31
						l-10.5-6.55c-1.75-1.1-3.51-2.17-5.24-3.29l-5.17-3.4c-3.44-2.28-6.91-4.52-10.33-6.83c-6.77-4.72-13.62-9.32-20.24-14.25
						c-3.32-2.45-6.69-4.83-9.97-7.33l-9.82-7.53l57.7-74.21l8.61,6.6c2.87,2.2,5.83,4.27,8.74,6.42
						c5.79,4.33,11.81,8.34,17.73,12.49c2.99,2.03,6.03,3.98,9.05,5.98l4.53,2.98c1.52,0.98,3.06,1.92,4.59,2.88l9.2,5.74l9.33,5.52
						L618.97,1652.38z"/>
				</g>
				<g>
					<path class="st1" d="M603.44,1587.08L603.44,1587.08z"/>
				</g>
			</g>
			<g>
				<g>
					<path class="st1" d="M526.26,1457.07l8.02,8.22l8.21,8.03c1.38,1.33,2.73,2.69,4.12,4l4.21,3.91c2.82,2.59,5.57,5.26,8.44,7.79
						c11.36,10.28,23.14,20.07,35.13,29.6l-61.71,78.69c-13.81-10.95-27.36-22.24-40.43-34.06c-3.3-2.92-6.48-5.98-9.72-8.96
						l-4.84-4.51c-1.6-1.51-3.16-3.07-4.74-4.6l-9.44-9.25l-9.24-9.46L526.26,1457.07z"/>
					<path d="M449.88,1526.27c12.98,13.54,26.47,26.59,40.35,39.2c13.9,12.6,28.35,24.58,43.12,36.14l65.07-83.68
						c-12.72-9.97-25.17-20.28-37.15-31.13c-11.96-10.87-23.58-22.11-34.77-33.78L449.88,1526.27z M532.06,1592.98
						c-6.43-5.18-12.89-10.31-19.14-15.69c-6.35-5.27-12.49-10.79-18.66-16.27c-12.19-11.12-24.18-22.47-35.62-34.37l67.41-65.52
						c10.01,10.44,20.54,20.37,31.21,30.12c5.41,4.79,10.78,9.64,16.35,14.25c5.47,4.73,11.15,9.21,16.77,13.75L532.06,1592.98z"/>
				</g>
				<g>
					<path class="st1" d="M525.75,1526.13L525.75,1526.13z"/>
				</g>
				<g>
					<path d="M510.25,1552.58c3.1,2.71,6.12,5.52,9.29,8.14l37.98-44.24c-2.43-2.01-4.76-4.15-7.13-6.23l-7.09-6.28l-6.94-6.45
						c-2.29-2.17-4.66-4.26-6.9-6.49l-6.92,7.21c3.2,3.13,6.54,6.13,9.8,9.2c1.65,1.52,3.26,3.08,4.94,4.56l5.03,4.46
						L510.25,1552.58z"/>
				</g>
			</g>
			<g>
				<g>
					<path class="st1" d="M467.29,1386.7c2.28,3.08,4.46,6.22,6.81,9.25l6.99,9.11c2.32,3.04,4.79,5.98,7.17,8.97l3.6,4.47
						c1.21,1.48,2.47,2.93,3.7,4.39c9.77,11.8,20.13,23.09,30.71,34.16l-72,69.4c-12.18-12.74-24.09-25.75-35.34-39.32
						c-1.42-1.69-2.86-3.36-4.25-5.06l-4.15-5.15c-2.75-3.45-5.57-6.83-8.25-10.33l-8.04-10.49c-2.7-3.49-5.23-7.1-7.84-10.64
						L467.29,1386.7z"/>
					<path d="M382.08,1444.67l8.3,11.36l8.56,11.17c2.82,3.75,5.83,7.35,8.75,11.02l4.41,5.48c1.47,1.82,3.01,3.59,4.52,5.39
						c11.99,14.42,24.65,28.29,37.71,41.75l76.01-73.88c-11.25-11.6-22.16-23.54-32.49-35.97c-1.3-1.55-2.63-3.07-3.9-4.64
						l-3.8-4.72c-2.51-3.16-5.12-6.25-7.54-9.49l-7.38-9.62l-7.14-9.79L382.08,1444.67z M454.22,1522.12
						c-2.85-2.99-5.63-6.03-8.45-9.04l-4.21-4.53l-4.12-4.62l-8.21-9.26l-8-9.45l-3.99-4.73l-3.88-4.82l-7.75-9.65l-7.53-9.82
						c-1.25-1.64-2.53-3.26-3.74-4.93l-3.65-5l75.82-55.57l3.19,4.38c1.06,1.46,2.19,2.88,3.28,4.32l6.6,8.61l6.79,8.45l3.4,4.23
						l3.5,4.14l7,8.28l7.2,8.11l3.61,4.05l3.7,3.97c2.47,2.64,4.91,5.31,7.4,7.93L454.22,1522.12z"/>
				</g>
				<g>
					<path class="st1" d="M457.24,1455.03L457.24,1455.03L457.24,1455.03z"/>
				</g>
				<g>
					<path d="M430.27,1469.68l7.97,9.44l44.37-37.84l-7.35-8.7L430.27,1469.68z"/>
				</g>
			</g>
			<g>
				<g>
					<path class="st1" d="M418.64,1308.88l2.68,5.08l2.8,5.01c1.88,3.33,3.7,6.7,5.63,10.01c3.91,6.58,7.74,13.21,11.86,19.66
						c3.98,6.54,8.29,12.87,12.47,19.28l6.54,9.44c1.1,1.57,2.16,3.16,3.29,4.71l3.39,4.64l-80.9,58.78l-3.89-5.34
						c-1.3-1.78-2.52-3.61-3.79-5.42l-7.52-10.88c-4.83-7.37-9.77-14.68-14.37-22.2c-4.74-7.43-9.17-15.06-13.66-22.65
						c-2.21-3.81-4.32-7.68-6.49-11.53l-3.22-5.77l-3.09-5.85L418.64,1308.88z"/>
					<path d="M326.22,1354.43c4.3,8.34,8.96,16.49,13.53,24.68c4.78,8.07,9.47,16.2,14.52,24.11c2.48,3.98,4.95,7.97,7.56,11.87
						c2.59,3.91,5.14,7.85,7.76,11.74l8.02,11.57c1.32,1.94,2.69,3.84,4.08,5.73l4.14,5.68l85.5-62.66l-3.57-4.89
						c-1.2-1.63-2.38-3.26-3.52-4.93l-6.9-9.96c-2.26-3.35-4.45-6.74-6.68-10.11c-2.26-3.35-4.37-6.79-6.51-10.22
						c-4.35-6.8-8.38-13.81-12.5-20.75c-3.92-7.06-7.95-14.06-11.64-21.25L326.22,1354.43z M386.95,1441.16
						c-2.46-3.31-4.79-6.72-7.14-10.11c-2.33-3.4-4.74-6.76-7.01-10.2c-4.53-6.9-9.14-13.75-13.44-20.8
						c-8.82-13.96-17.01-28.3-24.88-42.82l82.8-44.49c6.89,12.7,14.05,25.27,21.78,37.49c3.76,6.18,7.81,12.17,11.77,18.21
						c1.99,3.02,4.1,5.95,6.14,8.93c2.06,2.97,4.09,5.96,6.25,8.86L386.95,1441.16z"/>
				</g>
				<g>
					<path class="st1" d="M399.21,1375.13L399.21,1375.13z"/>
				</g>
				<g>
					<path d="M420.6,1356.08c-9.98,2.43-19.93,4.68-29.95,6.81c-10.03,2.14-20.12,4.16-30.28,6.06l6.33,10.71
						c14.73-3.75,29.52-7.84,44.1-12.1c-10.19,11.3-20.29,22.85-30.08,34.52l6.84,10.39c6.2-8.25,12.47-16.4,18.82-24.43
						c6.36-8.04,12.74-15.93,19.32-23.8L420.6,1356.08z"/>
				</g>
			</g>
			<g>
				<g>
					<path class="st1" d="M381.3,1225.08c10.52,28.73,22.91,56.79,37.34,83.8l-88.29,46.96c-16.61-31.12-30.92-63.46-43.03-96.59
						L381.3,1225.08z"/>
					<path d="M283.44,1257.27c12.67,35.35,28.01,69.73,45.75,102.8l93.37-50.17c-15.27-28.46-28.46-58.03-39.35-88.42
						L283.44,1257.27z M331.53,1351.64c-15.47-29.18-28.79-59.48-40.3-90.44l88.21-32.49c10.08,27.08,21.72,53.6,35.27,79.13
						L331.53,1351.64z"/>
				</g>
				<g>
					<path class="st1" d="M352.83,1287.96L352.83,1287.96L352.83,1287.96z"/>
				</g>
				<g>
					<path d="M359.07,1294.19c-1.98-4.13-3.74-8.35-5.6-12.54l-2.75-6.29c-0.9-2.1-1.74-4.23-2.61-6.35l-9.24,3.81
						c0.89,2.15,1.74,4.31,2.65,6.44l2.79,6.38c1.88,4.24,3.67,8.53,5.68,12.72l-11.99,5.51c-2.21-4.6-4.16-9.33-6.24-14
						c-1.01-2.34-2.07-4.67-3.05-7.03l-2.9-7.09l-9.25,3.79c5.4,13.43,11.41,26.61,17.59,39.71l52.57-25.23l-4.37-9.37l-2.19-4.68
						l-2.07-4.74l-4.14-9.47c-1.35-3.17-2.62-6.38-3.93-9.56l-9.26,3.77c1.92,4.69,3.8,9.4,5.88,14.02l3.05,6.97l1.53,3.48
						l1.61,3.44L359.07,1294.19z"/>
				</g>
			</g>
			<g>
				<g>
					<path class="st1" d="M356.12,1136.88l2.44,11.21l2.7,11.15l1.36,5.57l1.5,5.54c1.01,3.69,1.97,7.39,3.02,11.07
						c2.2,7.32,4.28,14.69,6.73,21.94c2.28,7.3,4.9,14.49,7.43,21.71l-93.98,34.16c-2.93-8.32-5.93-16.62-8.57-25.04
						c-2.81-8.36-5.23-16.85-7.76-25.3c-1.21-4.24-2.33-8.51-3.49-12.76l-1.72-6.39l-1.58-6.43c-1.04-4.29-2.11-8.56-3.11-12.86
						l-2.82-12.93L356.12,1136.88z"/>
					<path d="M254.67,1155.06c3.82,18.38,8.36,36.61,13.45,54.68c5.18,18.05,11.06,35.89,17.48,53.53l99.47-36.63
						c-5.51-15.17-10.57-30.51-15.03-46.03c-4.36-15.54-8.28-31.21-11.56-47.02L254.67,1155.06z M289.09,1255.24l-4.11-11.69
						c-1.33-3.91-2.57-7.85-3.86-11.77c-2.63-7.83-4.85-15.79-7.24-23.69c-4.42-15.91-8.62-31.9-12-48.07l91.89-19.81
						c2.94,14.15,6.63,28.13,10.49,42.05c2.1,6.91,4.02,13.88,6.33,20.72c1.13,3.43,2.2,6.88,3.37,10.3l3.6,10.22L289.09,1255.24z"
						/>
				</g>
				<g>
					<path class="st1" d="M319.07,1195.17L319.07,1195.17L319.07,1195.17z"/>
				</g>
			</g>
			<g>
				<g>
					<path class="st1" d="M343.48,1045.98c0.13,1.91,0.21,3.82,0.38,5.73l0.51,5.72c0.36,3.81,0.64,7.63,1.05,11.44
						c0.9,7.6,1.65,15.22,2.8,22.79l0.79,5.69c0.25,1.9,0.53,3.79,0.86,5.67l1.88,11.32c0.29,1.89,0.66,3.77,1.02,5.65l1.08,5.64
						c0.72,3.76,1.4,7.52,2.26,11.25l-97.84,20.67c-0.98-4.3-1.77-8.64-2.61-12.97l-1.24-6.5c-0.42-2.16-0.83-4.33-1.18-6.51
						l-2.16-13.05c-0.38-2.17-0.7-4.35-0.99-6.54l-0.92-6.55c-1.31-8.72-2.21-17.49-3.22-26.25c-0.47-4.38-0.81-8.78-1.21-13.16
						l-0.58-6.58c-0.19-2.19-0.3-4.4-0.45-6.59L343.48,1045.98z"/>
					<path d="M240.52,1049.88c0.49,9.36,1.47,18.7,2.27,28.04c1.09,9.32,2.02,18.65,3.42,27.93c1.21,9.31,2.82,18.55,4.35,27.81
						c0.83,4.62,1.75,9.22,2.62,13.83c0.45,2.3,0.86,4.61,1.35,6.91l1.49,6.88l103.62-22.34l-1.29-5.92
						c-0.42-1.97-0.77-3.96-1.16-5.94c-0.75-3.97-1.55-7.92-2.26-11.9c-1.31-7.97-2.71-15.92-3.74-23.93
						c-1.22-7.98-1.99-16.03-2.95-24.05c-0.67-8.05-1.54-16.09-1.95-24.16L240.52,1049.88z M260.54,1153.84
						c-3.24-16.19-6.22-32.44-8.39-48.81c-1.23-8.17-2.09-16.37-3.03-24.57l-0.35-3.08l-0.28-3.08l-0.55-6.16
						c-0.34-4.11-0.78-8.22-1.03-12.33l93.75-6.84c0.21,3.61,0.61,7.2,0.91,10.81l0.48,5.4l0.24,2.7l0.31,2.69
						c0.83,7.18,1.57,14.37,2.66,21.52c1.89,14.33,4.52,28.55,7.34,42.72L260.54,1153.84z"/>
				</g>
				<g>
					<path class="st1" d="M298.7,1098.55L298.7,1098.55L298.7,1098.55z"/>
				</g>
				<g>
					<path d="M268.5,1099.72c15.03,7.52,26.44,9.52,38.56,7.67c12.15-1.85,22.56-7.3,35.08-17.61c-0.33-2.45-0.72-4.89-0.97-7.35
						c-3.88,2.46-7.27,4.56-10.39,6.34c-3.12,1.78-5.98,3.26-8.72,4.47c-5.49,2.42-10.52,3.8-16.35,4.61
						c-5.78,0.81-11.02,0.87-16.99-0.08c-2.98-0.47-6.15-1.2-9.66-2.22c-3.51-1.02-7.36-2.34-11.64-4.01
						C267.71,1094.28,268.13,1097,268.5,1099.72z"/>
				</g>
			</g>
			<g>
				<g>
					<polygon class="st1" points="343.48,954.11 342.75,965.57 342.3,977.06 342.08,982.8 342,988.55 341.85,1000.05 342,1011.54 
						342.08,1017.29 342.3,1023.03 342.75,1034.52 343.48,1045.98 243.71,1052.85 242.88,1039.66 242.36,1026.46 242.11,1019.86 
						242.02,1013.25 241.85,1000.05 242.02,986.84 242.11,980.23 242.36,973.63 242.88,960.43 243.71,947.24 					"/>
					<path d="M240.92,943.86c-1.37,18.71-1.95,37.45-2.07,56.19c0.11,18.74,0.7,37.48,2.07,56.19l105.72-7.72
						c-1.18-16.12-1.67-32.29-1.79-48.47c0.11-16.18,0.6-32.35,1.79-48.47L240.92,943.86z M246.5,1049.49
						c-1.18-16.46-1.5-32.96-1.65-49.45c0.15-16.49,0.47-32.98,1.65-49.45l93.8,6.07c-1.05,14.43-1.3,28.91-1.45,43.38
						c0.15,14.47,0.41,28.95,1.45,43.38L246.5,1049.49z"/>
				</g>
				<g>
					<path class="st1" d="M291.85,1000.05L291.85,1000.05L291.85,1000.05z"/>
				</g>
				<g>
					<path d="M281.72,985.78c0.01-3.82,0.18-7.64,0.33-11.46c-6.57,0.29-11.86,2.82-15.55,7.08c-3.6,4.26-5.57,10.24-5.66,17.25
						c0.03,8.5,3.11,15.36,8.46,19.93c5.46,4.58,13.22,6.87,22.65,6.54c9.36-0.33,16.87-3.08,21.99-7.58
						c5.24-4.52,8.06-10.79,8.01-18.47c0.09-6.85-1.94-12.59-5.65-16.81c-3.61-4.21-8.95-6.92-15.61-7.51
						c-0.14,3.8-0.32,7.6-0.33,11.4c7.43,0.86,11.61,5.47,11.52,12.6c0.05,8.88-7.36,14.25-20.09,14.51
						c-6.44,0.12-11.59-1.2-15.16-3.78c-3.54-2.58-5.57-6.41-5.55-11.21C271.21,988.07,278.75,986.36,281.72,985.78z"/>
				</g>
			</g>
			<g>
				<g>
					<path class="st1" d="M356.12,863.21c-0.86,3.73-1.54,7.49-2.26,11.25l-1.08,5.64c-0.37,1.88-0.73,3.76-1.02,5.65l-1.88,11.32
						c-0.33,1.88-0.61,3.78-0.86,5.67l-0.79,5.69c-1.15,7.57-1.91,15.19-2.8,22.79c-0.41,3.81-0.69,7.63-1.05,11.44l-0.51,5.72
						c-0.17,1.91-0.25,3.82-0.38,5.73l-99.76-6.87c0.15-2.2,0.26-4.4,0.45-6.59l0.58-6.58c0.41-4.39,0.74-8.78,1.21-13.16
						c1.02-8.76,1.91-17.53,3.22-26.25l0.92-6.55c0.29-2.18,0.62-4.37,0.99-6.54l2.16-13.05c0.34-2.18,0.76-4.34,1.18-6.51l1.24-6.5
						c0.83-4.33,1.63-8.67,2.61-12.97L356.12,863.21z"/>
					<path d="M256.02,838.81l-1.49,6.88c-0.49,2.3-0.9,4.61-1.35,6.91c-0.87,4.61-1.79,9.21-2.62,13.83
						c-1.53,9.26-3.14,18.51-4.35,27.81c-1.4,9.28-2.33,18.62-3.42,27.93c-0.8,9.34-1.78,18.68-2.27,28.04l105.78,6.84
						c0.41-8.08,1.28-16.11,1.95-24.16c0.96-8.02,1.73-16.07,2.95-24.05c1.03-8.01,2.43-15.97,3.74-23.93
						c0.71-3.97,1.51-7.93,2.26-11.9c0.39-1.98,0.74-3.97,1.16-5.94l1.29-5.92L256.02,838.81z M246.9,944.29
						c0.25-4.12,0.69-8.22,1.03-12.33l0.55-6.16l0.28-3.08l0.35-3.08c0.94-8.2,1.81-16.41,3.03-24.57
						c2.18-16.37,5.15-32.62,8.39-48.81l92.05,19.04c-2.82,14.17-5.45,28.39-7.34,42.72c-1.08,7.15-1.83,14.34-2.66,21.52
						l-0.31,2.69l-0.24,2.7l-0.48,5.4c-0.29,3.6-0.7,7.2-0.91,10.81L246.9,944.29z"/>
				</g>
				<g>
					<path class="st1" d="M298.7,901.54L298.7,901.54z"/>
				</g>
				<g>
					<path d="M318.2,893.99c5.37,0.83,7.16,0.79,10.17-0.2l2-12.05l-2.13-0.37c-1.31,1.55-2.61,2.03-5.13,1.59
						c-17-2.6-17.84-2.44-22.2,4.29c-1.47-6.79-5.58-10.83-12.59-12.06c-6.37-1.13-16.07,0.42-18.14,13.24l-2.23,15.95
						c-0.69,5.32-1.25,10.67-1.87,16l57.98,6.22l1.29-11.31l-22.94-2.85c0.52-4.47,1.22-8.92,1.82-13.37
						c0.7-5.06,3.08-6.91,7.92-6.16C314.59,893.28,313.93,893.33,318.2,893.99z M288,887.38c3.36,0.53,5.13,1.7,5.96,3.34
						c0.85,1.64,0.81,3.77,0.46,6.21c-0.64,4.76-1.38,9.51-1.95,14.27l-15.08-1.87c0.58-4.87,1.33-9.72,1.99-14.58
						c0.36-2.53,0.88-4.64,2.15-5.97C282.82,887.45,284.8,886.88,288,887.38z"/>
				</g>
			</g>
			<g>
				<g>
					<path class="st1" d="M381.3,775.01c-2.53,7.22-5.15,14.41-7.43,21.71c-2.45,7.25-4.53,14.61-6.73,21.94
						c-1.05,3.68-2.01,7.38-3.02,11.07l-1.5,5.54l-1.36,5.57l-2.7,11.15l-2.44,11.21l-97.84-20.67l2.82-12.93
						c1-4.29,2.07-8.57,3.11-12.86l1.58-6.43l1.72-6.39c1.16-4.25,2.28-8.52,3.49-12.76c2.53-8.45,4.95-16.94,7.76-25.3
						c2.64-8.42,5.64-16.72,8.57-25.04L381.3,775.01z"/>
					<path d="M285.59,736.82c-6.42,17.64-12.3,35.48-17.48,53.53c-5.08,18.07-9.63,36.3-13.45,54.68l103.8,21.47
						c3.28-15.81,7.2-31.48,11.56-47.02c4.46-15.52,9.52-30.85,15.03-46.03L285.59,736.82z M261.88,840.07
						c3.38-16.17,7.57-32.16,12-48.07c2.39-7.91,4.6-15.87,7.24-23.69c1.29-3.92,2.52-7.86,3.86-11.77l4.11-11.69l88.48,31.74
						l-3.6,10.22c-1.17,3.42-2.24,6.87-3.37,10.3c-2.32,6.84-4.23,13.81-6.33,20.72c-3.85,13.92-7.55,27.9-10.49,42.05
						L261.88,840.07z"/>
				</g>
				<g>
					<path class="st1" d="M319.07,804.92L319.07,804.92L319.07,804.92z"/>
				</g>
				<g>
					<path d="M319.9,813.71l1.79-6.63l1.95-6.58l1.96-6.58c0.64-2.2,1.3-4.39,2.03-6.56l-9.53-3.01c-0.74,2.2-1.41,4.42-2.06,6.65
						l-1.99,6.68l-1.98,6.68l-1.82,6.72l-12.73-3.48l2.01-7.39l2.18-7.35c1.46-4.89,2.87-9.81,4.5-14.65l-9.52-3.04l-1.67,5.17
						l-1.55,5.2l-3.1,10.41c-1.04,3.47-1.92,6.98-2.88,10.47c-0.93,3.5-1.92,6.98-2.8,10.49l56.5,14.41
						c0.83-3.34,1.78-6.66,2.67-9.99l1.35-4.99c0.44-1.67,0.9-3.33,1.41-4.97c2-6.6,3.84-13.24,6.05-19.77l-9.52-3.06
						c-0.77,2.41-1.59,4.81-2.32,7.24l-2.17,7.29l-2.17,7.29c-0.7,2.44-1.33,4.89-2,7.33L319.9,813.71z"/>
				</g>
			</g>
			<g>
				<g>
					<path class="st1" d="M418.64,691.21c-14.42,27-26.82,55.06-37.34,83.8l-93.98-34.16c12.12-33.13,26.42-65.48,43.03-96.59
						L418.64,691.21z"/>
					<path d="M329.19,640.02c-17.75,33.07-33.09,67.45-45.75,102.8l99.77,35.79c10.89-30.39,24.08-59.96,39.35-88.42L329.19,640.02z
						 M291.22,738.9c11.51-30.96,24.83-61.26,40.3-90.44l83.17,43.8c-13.55,25.54-25.19,52.06-35.27,79.13L291.22,738.9z"/>
				</g>
				<g>
					<path class="st1" d="M352.83,712.13L352.83,712.13L352.83,712.13z"/>
				</g>
				<g>
					<path d="M372.37,709l12.21,1.65l2.47-5.29l2.59-5.23c-5.07-0.72-10.15-1.41-15.25-2.06c-5.1-0.66-10.15-1.25-15.25-1.83
						c-10.19-1.15-20.43-2.18-30.73-3.09l-1.44,3.1l-1.37,3.13l-2.74,6.27c14.91,14.24,30.33,28.1,45.88,41.39l4.39-10.75
						c-3.16-2.67-6.24-5.34-9.35-8.04C366.61,721.81,369.32,715.33,372.37,709z M361.94,707.7l-1.57,3.37l-1.49,3.41l-2.98,6.82
						c-5.98-5.29-11.93-10.66-17.84-16.1l11.93,1.18L361.94,707.7z"/>
				</g>
			</g>
			<g>
				<g>
					<path class="st1" d="M467.29,613.39l-3.39,4.64c-1.13,1.55-2.19,3.14-3.29,4.71l-6.54,9.44c-4.18,6.41-8.49,12.74-12.47,19.28
						c-4.13,6.45-7.96,13.08-11.86,19.66c-1.92,3.31-3.75,6.67-5.63,10.01l-2.8,5.01l-2.68,5.08l-88.29-46.96l3.09-5.85l3.22-5.77
						c2.16-3.84,4.27-7.71,6.49-11.53c4.49-7.59,8.92-15.21,13.66-22.65c4.59-7.53,9.54-14.83,14.37-22.2l7.52-10.88
						c1.26-1.8,2.49-3.64,3.79-5.42l3.89-5.34L467.29,613.39z"/>
					<path d="M385.83,550.28l-4.14,5.68c-1.39,1.89-2.76,3.79-4.08,5.73l-8.02,11.57c-2.62,3.89-5.17,7.83-7.76,11.74
						c-2.61,3.9-5.08,7.89-7.56,11.87c-5.05,7.91-9.74,16.04-14.52,24.11c-4.57,8.19-9.23,16.34-13.53,24.68l93.79,49.39
						c3.69-7.19,7.72-14.19,11.64-21.25c4.13-6.94,8.15-13.95,12.5-20.75c2.14-3.43,4.25-6.87,6.51-10.22
						c2.23-3.37,4.42-6.76,6.68-10.11l6.9-9.96c1.13-1.67,2.32-3.31,3.52-4.93l3.57-4.89L385.83,550.28z M334.48,642.86
						c7.87-14.52,16.06-28.86,24.88-42.82c4.3-7.05,8.91-13.9,13.44-20.8c2.27-3.45,4.68-6.8,7.01-10.2
						c2.35-3.39,4.68-6.8,7.14-10.11l76.28,54.93c-2.16,2.9-4.19,5.89-6.25,8.86c-2.04,2.98-4.16,5.91-6.14,8.93
						c-3.96,6.05-8.01,12.04-11.77,18.21c-7.73,12.22-14.89,24.78-21.78,37.49L334.48,642.86z"/>
				</g>
				<g>
					<path class="st1" d="M399.21,624.96L399.21,624.96L399.21,624.96z"/>
				</g>
				<g>
					<path d="M385.61,608.84c3.1-4.87,6.32-9.66,9.48-14.49l-8.3-5.57c-4.4,6.7-8.88,13.36-13.06,20.21
						c-2.1,3.42-4.3,6.77-6.32,10.24l-6.12,10.36l8.65,5.02l4.57-7.73c1.52-2.58,3.03-5.16,4.64-7.69l41.17,25.29l6.03-9.66
						L385.61,608.84z"/>
				</g>
			</g>
			<g>
				<g>
					<path class="st1" d="M526.26,543.03c-10.58,11.07-20.94,22.36-30.71,34.16c-1.23,1.47-2.49,2.91-3.7,4.39l-3.6,4.47
						c-2.38,3-4.84,5.93-7.17,8.97l-6.99,9.11c-2.35,3.02-4.53,6.17-6.81,9.25l-80.9-58.78c2.62-3.55,5.15-7.16,7.84-10.64
						l8.04-10.49c2.68-3.5,5.5-6.89,8.25-10.33l4.15-5.15c1.4-1.7,2.84-3.37,4.25-5.06c11.25-13.57,23.16-26.58,35.34-39.32
						L526.26,543.03z"/>
					<path d="M454.33,469.26c-13.06,13.46-25.71,27.33-37.71,41.75c-1.5,1.8-3.05,3.57-4.52,5.39l-4.41,5.48
						c-2.92,3.67-5.93,7.26-8.75,11.02l-8.56,11.17l-8.3,11.36l86.02,61.94l7.14-9.79l7.38-9.62c2.42-3.24,5.03-6.32,7.54-9.49
						l3.8-4.72c1.27-1.57,2.6-3.09,3.9-4.64c10.32-12.43,21.24-24.37,32.49-35.97L454.33,469.26z M390.67,553.82l3.65-5
						c1.21-1.67,2.5-3.28,3.74-4.93l7.53-9.82l7.75-9.65l3.88-4.82l3.99-4.73l8-9.45l8.21-9.26l4.12-4.62l4.21-4.53
						c2.82-3.01,5.61-6.05,8.45-9.04l67.95,64.95c-2.49,2.62-4.93,5.29-7.4,7.93l-3.7,3.97l-3.61,4.05l-7.2,8.11l-7,8.28l-3.5,4.14
						l-3.4,4.23l-6.79,8.45l-6.6,8.61c-1.09,1.44-2.22,2.85-3.28,4.32l-3.19,4.38L390.67,553.82z"/>
				</g>
				<g>
					<polygon class="st1" points="457.24,545.06 457.24,545.06 457.24,545.06 					"/>
				</g>
				<g>
					<path d="M454.37,553.4c1.42-1.8,2.9-3.54,4.38-5.29l4.43-5.24c1.49-1.74,2.94-3.51,4.45-5.23l4.56-5.14l-7.48-6.63l-4.62,5.21
						c-1.53,1.74-3.01,3.54-4.51,5.3l-4.5,5.32c-1.5,1.77-3.01,3.54-4.45,5.36l-10.21-8.36c6.51-7.87,13.08-15.69,19.92-23.28
						l-7.46-6.65l-7.2,8.13l-7.01,8.29c-4.73,5.48-9.17,11.19-13.74,16.81l45.72,36.19c4.35-5.35,8.59-10.79,13.1-16.01l6.69-7.89
						l6.87-7.74l-7.45-6.67c-6.79,7.54-13.34,15.28-19.8,23.1L454.37,553.4z"/>
				</g>
			</g>
			<g>
				<g>
					<path class="st1" d="M594.39,481.47c-11.99,9.52-23.77,19.32-35.13,29.6c-2.87,2.53-5.62,5.2-8.44,7.79l-4.21,3.91
						c-1.39,1.31-2.74,2.67-4.12,4l-8.21,8.03l-8.02,8.22l-72-69.4l9.24-9.46l9.44-9.25c1.58-1.53,3.14-3.09,4.74-4.6l4.84-4.51
						c3.24-2.98,6.41-6.04,9.72-8.96c13.07-11.83,26.62-23.11,40.43-34.06L594.39,481.47z"/>
					<path d="M533.35,398.48c-14.77,11.56-29.22,23.54-43.12,36.14c-13.88,12.61-27.37,25.66-40.35,39.2l76.62,73.25
						c11.19-11.67,22.81-22.9,34.77-33.78c11.98-10.86,24.43-21.17,37.15-31.13L533.35,398.48z M458.63,473.45
						c11.44-11.9,23.43-23.25,35.62-34.37c6.17-5.48,12.31-11,18.66-16.27c6.25-5.39,12.72-10.52,19.14-15.69l58.32,73.72
						c-5.63,4.54-11.3,9.02-16.77,13.75c-5.57,4.61-10.94,9.46-16.35,14.25c-10.67,9.76-21.2,19.68-31.21,30.12L458.63,473.45z"/>
				</g>
				<g>
					<polygon class="st1" points="525.75,473.96 525.75,473.96 525.75,473.96 					"/>
				</g>
				<g>
					<path d="M528.91,509.62c2.55-2.55,5.25-4.95,7.87-7.42c2.66-2.44,5.24-4.96,7.95-7.33c6.32-5.57,8.85-10.73,8.69-16.69
						c-0.15-7-3.39-14.63-9.2-21.55c-5.76-6.86-12.75-11.33-19.96-12.45c-6.16-1.05-11.68,1.3-18.6,7.41
						c-2.94,2.58-5.75,5.31-8.63,7.95c-2.85,2.68-5.77,5.29-8.54,8.06L528.91,509.62z M530.39,494.49l-26.1-28.05
						c2.69-2.47,5.32-5.02,8.07-7.43c6.89-6.11,14.44-4.36,22.87,5.37c8.38,9.67,9.3,17.31,2.81,23.07
						C535.42,489.73,532.94,492.15,530.39,494.49z"/>
				</g>
			</g>
			<g>
				<g>
					<path class="st1" d="M670.39,429.99l-9.88,5.84c-3.29,1.95-6.5,4.04-9.76,6.05l-4.87,3.04l-4.8,3.15
						c-3.19,2.11-6.41,4.19-9.58,6.33c-12.65,8.63-25.02,17.66-37.1,27.07l-61.71-78.69c13.91-10.83,28.15-21.24,42.72-31.17
						c3.65-2.47,7.35-4.86,11.03-7.29l5.53-3.62l5.61-3.5c3.75-2.32,7.46-4.71,11.24-6.96l11.38-6.73L670.39,429.99z"/>
					<path d="M621.43,339.29c-16.24,9.41-32.15,19.36-47.72,29.84c-15.52,10.54-30.63,21.68-45.38,33.27l65.76,83.13
						c12.71-9.98,25.72-19.57,39.08-28.66c13.41-9.02,27.11-17.59,41.08-25.69L621.43,339.29z M537.03,403.22l9.82-7.53
						c3.28-2.5,6.65-4.89,9.97-7.33c6.62-4.93,13.48-9.53,20.24-14.25c3.42-2.31,6.88-4.55,10.33-6.83l5.17-3.4
						c1.73-1.12,3.49-2.2,5.24-3.29l10.5-6.55l10.65-6.31l47.53,81.1l-9.33,5.52l-9.2,5.74c-1.53,0.96-3.08,1.9-4.59,2.88
						l-4.53,2.98c-3.01,2-6.05,3.95-9.05,5.98c-5.92,4.15-11.94,8.16-17.73,12.49c-2.91,2.15-5.87,4.23-8.74,6.42l-8.61,6.6
						L537.03,403.22z"/>
				</g>
				<g>
					<path class="st1" d="M603.44,413.01L603.44,413.01L603.44,413.01z"/>
				</g>
			</g>
			<g>
				<g>
					<path class="st1" d="M752.77,389.62c-14.21,5.68-28.14,12.04-41.89,18.75l-10.28,5.11l-10.15,5.36
						c-3.4,1.75-6.73,3.64-10.07,5.51l-5.01,2.8c-1.68,0.92-3.34,1.87-4.98,2.86l-50.2-86.49c1.89-1.14,3.81-2.23,5.73-3.29
						l5.77-3.23c3.85-2.15,7.69-4.32,11.6-6.35l11.7-6.17l11.84-5.89c15.85-7.73,31.92-15.05,48.29-21.61L752.77,389.62z"/>
					<path d="M716.96,292.98l-13.03,5.33l-12.9,5.64c-4.32,1.84-8.54,3.89-12.8,5.86c-4.25,1.99-8.52,3.95-12.7,6.07
						c-16.89,8.19-33.37,17.2-49.58,26.65l53.6,91.45c13.96-8.12,28.13-15.9,42.67-22.93c3.6-1.84,7.27-3.52,10.93-5.22
						c3.67-1.69,7.29-3.47,11.01-5.04l11.09-4.86l11.21-4.58L716.96,292.98z M624.42,344.5l10.81-6.05l5.41-3.01l5.48-2.89
						l10.96-5.76l11.09-5.51c1.85-0.91,3.69-1.85,5.56-2.73l5.61-2.62c3.75-1.74,7.47-3.52,11.24-5.21
						c7.58-3.28,15.09-6.72,22.77-9.76l35.75,86.94c-6.72,2.65-13.29,5.68-19.92,8.54c-3.29,1.48-6.55,3.05-9.83,4.56l-4.91,2.29
						c-1.64,0.77-3.24,1.6-4.86,2.4l-9.71,4.82l-9.59,5.05l-4.79,2.53l-4.73,2.64l-9.46,5.29L624.42,344.5z"/>
				</g>
				<g>
					<polygon class="st1" points="688.86,363.47 688.86,363.47 688.86,363.47 					"/>
				</g>
				<g>
					<path d="M715.36,363.65c-1.18-2.62-2.93-4.69-5.33-6.17c-2.39-1.47-5.43-2.37-9.18-2.73c3.63-5.75,4.29-9.78,2.25-14.28
						c-2.19-4.89-9.73-12.45-24.08-5.68l-11.99,5.96l-3,1.49l-2.96,1.56l-5.92,3.12l27.3,51.53l5.5-2.9l2.75-1.45l2.79-1.39
						l11.14-5.54C718.64,380.56,718.18,369.98,715.36,363.65z M670.63,350.12l11.87-5.9c5.04-2.48,8.79-1.58,10.61,2.31
						c1.81,3.86,0.09,7.14-4.85,9.56l-11.65,5.79L670.63,350.12z M681.14,370.8l12.62-6.27c5.19-2.48,9.04-1.32,11.13,3.17
						c2.07,4.43,0.52,8.03-4.55,10.45L688,384.27L681.14,370.8z"/>
				</g>
			</g>
			<g>
				<g>
					<path class="st1" d="M839.96,361.13c-14.83,3.76-29.57,7.89-44.09,12.71c-7.31,2.27-14.47,4.96-21.7,7.46l-10.73,4.08
						c-1.78,0.69-3.59,1.33-5.36,2.06l-5.31,2.17l-37.64-92.65l6.12-2.5c2.04-0.83,4.12-1.58,6.17-2.38l12.37-4.7
						c8.33-2.9,16.6-5.97,25.02-8.61c16.75-5.56,33.74-10.33,50.84-14.66L839.96,361.13z"/>
					<path d="M818.03,260.46l-6.84,1.67c-2.28,0.56-4.54,1.21-6.8,1.81c-4.53,1.24-9.07,2.42-13.58,3.71l-13.5,4.01l-3.37,1.01
						l-3.35,1.08l-6.7,2.17l-6.7,2.18c-2.23,0.73-4.43,1.54-6.65,2.31c-4.42,1.57-8.87,3.09-13.27,4.71l-13.16,5
						c-2.2,0.82-4.38,1.7-6.55,2.59l-6.52,2.66l40.31,98.04l5.6-2.29c1.86-0.77,3.73-1.53,5.63-2.23l11.32-4.3
						c3.79-1.4,7.61-2.69,11.41-4.05c1.91-0.66,3.8-1.36,5.72-1.99l5.76-1.87l5.76-1.87l2.88-0.94l2.9-0.86l11.6-3.45
						c3.88-1.11,7.79-2.12,11.68-3.19c1.95-0.52,3.89-1.08,5.85-1.56l5.88-1.43L818.03,260.46z M719.19,298.55
						c3.81-1.6,7.68-3.04,11.54-4.51c3.87-1.45,7.71-2.97,11.59-4.36c7.8-2.72,15.55-5.58,23.43-8.05
						c15.67-5.22,31.59-9.67,47.57-13.85l23.22,91.09c-13.97,3.67-27.9,7.54-41.61,12.12c-6.9,2.15-13.67,4.66-20.5,7.03
						c-3.4,1.21-6.76,2.55-10.14,3.82c-3.38,1.28-6.76,2.54-10.09,3.94L719.19,298.55z"/>
				</g>
				<g>
					<path class="st1" d="M780.35,326.32L780.35,326.32L780.35,326.32z"/>
				</g>
				<g>
					<path d="M788.77,330.57c1.01-6.8,2.15-13.48,3.34-20.23c1.2-6.74,2.47-13.5,3.82-20.29L782.66,294
						c-1.13,9.3-2.09,18.7-2.94,27.98c-6.41-6.93-12.98-13.9-19.62-20.61l-12.98,4.57c10.48,9.31,20.61,18.63,30.48,28.25
						l6.85,20.48l10.82-3.51L788.77,330.57z"/>
				</g>
			</g>
			<g>
				<g>
					<path class="st1" d="M930.3,345.12l-11.41,1.3c-1.9,0.2-3.8,0.47-5.69,0.74l-5.68,0.8c-7.59,0.97-15.12,2.35-22.68,3.56
						c-3.77,0.67-7.52,1.43-11.28,2.14l-5.64,1.08l-5.61,1.22l-11.21,2.45l-11.15,2.72l-24.29-97l12.85-3.13l12.92-2.83l6.47-1.4
						l6.5-1.25c4.33-0.82,8.66-1.69,13-2.46c8.7-1.42,17.38-2.98,26.13-4.11l6.55-0.92c2.18-0.31,4.37-0.62,6.56-0.85l13.14-1.5
						L930.3,345.12z"/>
					<path d="M922.63,242.34c-18.66,1.99-37.26,4.53-55.75,7.77c-18.47,3.36-36.84,7.24-55.04,11.87l26.18,102.72
						c15.65-3.98,31.45-7.31,47.34-10.21c15.91-2.78,31.92-4.96,47.98-6.69L922.63,242.34z M819.47,266.29
						c16.02-4.05,32.22-7.28,48.46-10.28l12.22-2.03c2.04-0.33,4.07-0.69,6.11-0.99l6.13-0.86l12.26-1.7l12.3-1.41l10.29,93.44
						l-10.77,1.23l-10.74,1.5l-5.37,0.75c-1.79,0.26-3.57,0.58-5.35,0.87l-10.69,1.77c-14.21,2.64-28.39,5.44-42.4,9L819.47,266.29z
						"/>
				</g>
				<g>
					<path class="st1" d="M876.12,302.29L876.12,302.29z"/>
				</g>
			</g>
			<g>
				<g>
					<path class="st1" d="M1659.11,997.29l-0.15-11.5l-0.04-2.87l-0.11-2.87l-0.22-5.74c-0.2-7.66-0.78-15.3-1.24-22.95
						c-1.22-15.26-2.68-30.52-4.96-45.66l98.99-14.19c2.61,17.44,4.31,35,5.7,52.57c0.55,8.79,1.19,17.58,1.44,26.39l0.25,6.6
						l0.12,3.3l0.05,3.3l0.17,13.21L1659.11,997.29z"/>
					<path d="M1762.15,1000.05c-0.11-18.74-0.7-37.48-2.07-56.19c-0.3-4.68-0.79-9.34-1.18-14.02l-0.63-7.01l-0.78-6.99
						c-0.54-4.66-1.04-9.32-1.63-13.98l-1.95-13.94l-104.86,15.48l1.68,12c0.51,4.01,0.93,8.02,1.4,12.04l0.68,6.02l0.53,6.04
						c0.33,4.03,0.77,8.04,1.02,12.08c1.18,16.12,1.67,32.29,1.79,48.47H1762.15z M1748.85,895.06c1.23,8.17,2.09,16.37,3.03,24.57
						l0.35,3.08l0.28,3.08l0.55,6.16c0.34,4.11,0.78,8.22,1.03,12.33c0.5,8.23,1.14,16.46,1.37,24.71
						c0.15,4.12,0.33,8.24,0.45,12.36l0.16,12.37l-94,0.77l-0.13-10.86l-0.4-10.85c-0.18-7.24-0.78-14.45-1.2-21.67
						c-0.21-3.61-0.61-7.2-0.91-10.81l-0.48-5.4l-0.24-2.7l-0.31-2.69c-0.83-7.18-1.57-14.37-2.66-21.52L1748.85,895.06z"/>
				</g>
				<g>
					<path class="st1" d="M1707.22,947.72L1707.22,947.72L1707.22,947.72z"/>
				</g>
			</g>
			<g>
				<g>
					<path class="st1" d="M1022.11,341.79c-1.91-0.06-3.83-0.18-5.74-0.19l-5.75-0.07c-3.83-0.03-7.66-0.14-11.5-0.11
						c-7.66,0.13-15.33,0.09-22.99,0.48c-15.32,0.46-30.6,1.7-45.83,3.23l-10.53-99.44c17.54-1.77,35.12-3.18,52.73-3.72
						c8.8-0.43,17.61-0.41,26.41-0.55c4.4-0.02,8.8,0.08,13.21,0.12l6.6,0.09c2.2,0.02,4.4,0.15,6.6,0.21L1022.11,341.79z"/>
					<path d="M1028.61,238.96l-7.03-0.26c-2.34-0.1-4.68-0.08-7.03-0.13l-14.05-0.17l-14.05,0.17c-2.34,0.05-4.69,0.03-7.03,0.13
						l-7.03,0.26l-7.03,0.27c-2.34,0.08-4.68,0.18-7.02,0.34l-14.04,0.89c-4.68,0.3-9.34,0.79-14.02,1.18l-7.01,0.63l-6.99,0.78
						l11.6,105.36l6.02-0.68l6.04-0.53c4.03-0.33,8.04-0.77,12.08-1.02l12.1-0.77c2.02-0.15,4.04-0.23,6.06-0.3l6.06-0.23l6.06-0.23
						c2.02-0.09,4.04-0.07,6.06-0.11l12.13-0.16l12.13,0.16c2.02,0.04,4.05,0.01,6.06,0.11l6.06,0.23L1028.61,238.96z M923.23,248.3
						c32.85-3.23,65.88-4.5,98.84-3.58l-2.64,93.96c-28.94-0.81-57.92,0.32-86.7,3.14L923.23,248.3z"/>
				</g>
				<g>
					<path class="st1" d="M974.32,291.93L974.32,291.93L974.32,291.93z"/>
				</g>
				<g>
					<path d="M988.43,279.96l11.32-0.14c-0.73-5.99-3.57-10.85-8.1-14.2c-4.52-3.34-10.72-5.21-17.97-4.88
						c-4.33,0.17-8.28,1.08-11.73,2.69c-3.45,1.67-6.4,3.97-8.75,6.81c-4.71,5.68-6.99,13.48-6.31,22.53
						c0.67,8.81,4.05,16.25,9.03,21.38c2.49,2.56,5.39,4.54,8.6,5.83c3.2,1.32,6.72,2.02,10.44,1.87c3.71-0.12,6.79-1,9.47-2.54
						c2.68-1.55,4.96-3.92,7.07-7.23l1.47,7.66l6.84-0.09l-0.03-31.52l-11.59,0.15l-5.8,0.07l-5.79,0.21l0.33,9.99
						c2.17-0.07,4.33-0.19,6.5-0.22l6.5-0.08c-0.43,5.53-3.25,8.8-6.28,10.7c-3.04,1.93-6.32,2.57-7.74,2.61
						c-4.64,0.18-8.73-1.81-11.77-5.28c-3.04-3.43-5.04-8.44-5.39-14.42c-0.37-6.27,0.87-11.4,3.53-15.04
						c2.65-3.62,6.72-5.64,11.88-5.85C982.59,270.6,986.67,275.04,988.43,279.96z"/>
				</g>
			</g>
			<g>
				<g>
					<path class="st1" d="M1113.45,351.08l-11.32-1.88c-3.78-0.59-7.58-1.07-11.37-1.62l-5.68-0.8c-1.9-0.25-3.8-0.44-5.7-0.66
						l-11.41-1.31l-11.44-1.01l-5.72-0.5l-5.73-0.36c-3.82-0.23-7.64-0.51-11.47-0.71l-11.49-0.43l3.22-99.95l13.2,0.5
						c4.4,0.23,8.79,0.54,13.19,0.81l6.59,0.42l6.59,0.57l13.17,1.17l13.14,1.5c2.19,0.26,4.38,0.49,6.57,0.77l6.55,0.91
						c4.36,0.63,8.74,1.19,13.09,1.87l13.05,2.16L1113.45,351.08z"/>
					<path d="M1134.12,250.1c-18.49-3.24-37.09-5.78-55.75-7.77c-18.67-1.79-37.39-3.08-56.13-3.61l-2.97,105.96
						c16.17,0.46,32.3,1.58,48.39,3.11c16.07,1.72,32.08,3.9,47.98,6.69L1134.12,250.1z M1028.39,244.96
						c4.12,0.17,8.24,0.28,12.36,0.51l12.35,0.78c2.06,0.14,4.12,0.25,6.17,0.41l6.16,0.54l12.33,1.1l12.3,1.4l6.15,0.71l6.13,0.84
						l12.26,1.72c4.08,0.63,8.15,1.33,12.22,2l-15.61,92.69c-3.57-0.58-7.13-1.2-10.7-1.75l-10.74-1.5l-5.37-0.74l-5.39-0.61
						l-10.77-1.23l-10.8-0.96l-5.4-0.48c-1.8-0.15-3.61-0.23-5.41-0.36l-10.83-0.69c-3.61-0.2-7.23-0.29-10.84-0.44L1028.39,244.96z
						"/>
				</g>
				<g>
					<path class="st1" d="M1073.02,295.06L1073.02,295.06z"/>
				</g>
				<g>
					<path d="M1082.11,265.84l-6.14-0.7l-6.15-0.55l-5.41,58.06l5.67,0.5l5.66,0.65L1082.11,265.84z"/>
				</g>
			</g>
			<g>
				<g>
					<path class="st1" d="M1202.51,373l-5.46-1.77c-1.82-0.58-3.66-1.1-5.49-1.65l-11-3.27c-7.4-1.95-14.74-4.1-22.2-5.82
						c-14.84-3.74-29.85-6.75-44.92-9.41l17.02-98.54c17.37,3.06,34.67,6.54,51.78,10.84c8.59,2,17.07,4.45,25.59,6.72l12.69,3.76
						c2.11,0.64,4.23,1.24,6.33,1.91l6.29,2.04L1202.51,373z"/>
					<path d="M1237.11,275.94l-6.7-2.17l-3.35-1.08l-3.37-1.01l-13.5-4.01c-4.51-1.29-9.06-2.47-13.58-3.71
						c-2.27-0.6-4.53-1.25-6.8-1.81l-6.84-1.67l-6.84-1.67l-3.42-0.83l-3.44-0.76l-13.76-2.99c-4.59-0.96-9.21-1.79-13.82-2.69
						l-6.92-1.31l-6.94-1.15l-17.6,104.53l5.98,0.99l5.95,1.13c3.96,0.78,7.94,1.48,11.89,2.31l11.83,2.58l2.96,0.65l2.94,0.72
						l5.88,1.44l5.88,1.43c1.96,0.48,3.9,1.04,5.85,1.56c3.89,1.07,7.8,2.08,11.68,3.19l11.6,3.45l2.9,0.86l2.88,0.94l5.76,1.87
						L1237.11,275.94z M1133.07,256.01c16.24,3,32.44,6.23,48.46,10.28c8.04,1.87,15.99,4.14,23.96,6.28
						c3.98,1.09,7.92,2.33,11.89,3.48c3.96,1.19,7.93,2.32,11.84,3.63l-28.43,89.6c-3.42-1.16-6.9-2.14-10.36-3.18
						c-3.47-1.01-6.91-2.1-10.4-3.05c-6.98-1.86-13.92-3.86-20.96-5.49c-14.01-3.55-28.19-6.36-42.4-9L1133.07,256.01z"/>
				</g>
				<g>
					<path class="st1" d="M1170.31,311.93L1170.31,311.93L1170.31,311.93z"/>
				</g>
				<g>
					<path d="M1181.38,293.97c5.59,1.45,11.15,3,16.72,4.49l2.71-9.62c-7.75-2.07-15.47-4.28-23.28-6.1
						c-3.9-0.94-7.79-1.94-11.7-2.81l-11.76-2.56l-2.07,9.78l8.78,1.91l4.39,0.96l4.36,1.06l-11.17,47l11.06,2.7L1181.38,293.97z"/>
				</g>
			</g>
			<g>
				<g>
					<path class="st1" d="M1287.65,407.13c-27.56-13.3-55.99-24.82-85.14-34.14l30.64-95.19c33.61,10.76,66.39,24.02,98.16,39.36
						L1287.65,407.13z"/>
					<path d="M1335.48,315.89c-33.7-16.54-68.65-30.55-104.44-41.92l-32.05,101.04c30.77,9.77,60.82,21.81,89.81,36.05
						L1335.48,315.89z M1235.24,281.64c31.44,10.16,62.09,22.65,91.91,36.84l-40.68,84.74c-26.1-12.4-52.91-23.35-80.41-32.23
						L1235.24,281.64z"/>
				</g>
				<g>
					<path class="st1" d="M1264.3,342.17L1264.3,342.17L1264.3,342.17z"/>
				</g>
				<g>
					<path d="M1253.71,345.99c4.58,1.68,9.05,3.62,13.58,5.44c2.42,1,4.82,1.44,7.11,1.44c2.28,0.02,4.48-0.46,6.53-1.41
						c4.1-1.89,7.64-5.65,10.03-11.07c2.36-5.34,2.64-10.15,0.87-14.26c-0.88-2.06-2.28-3.94-4.17-5.62
						c-1.91-1.63-4.33-3.05-7.23-4.24l-6.14-2.51l-3.07-1.25l-3.1-1.18l-12.4-4.72l-20.14,54.72l10.64,4.05L1253.71,345.99z
						 M1257.32,336.67l6.33-16.33c3.56,1.31,7.06,2.77,10.58,4.21c6.03,2.46,7.73,6.18,5.39,11.71c-2.3,5.45-6.11,6.92-11.98,4.52
						C1264.21,339.37,1260.79,337.95,1257.32,336.67z"/>
				</g>
			</g>
			<g>
				<g>
					<path class="st1" d="M1367.22,452.87c-12.71-8.54-25.76-16.56-38.98-24.28c-13.32-7.55-26.82-14.77-40.58-21.46l43.66-89.97
						c15.87,7.7,31.43,16.02,46.76,24.73c15.24,8.87,30.26,18.13,44.89,27.96L1367.22,452.87z"/>
					<path d="M1427.29,369.14c-15.56-10.48-31.48-20.43-47.72-29.84c-16.3-9.3-32.92-18.04-49.82-26.22l-45.88,95.56
						c14.53,7.04,28.83,14.56,42.86,22.56c13.97,8.11,27.67,16.67,41.08,25.69L1427.29,369.14z M1332.84,321.27l11.09,5.51
						l10.96,5.76l5.48,2.89l5.41,3.01l10.81,6.05l10.66,6.3l5.33,3.16l5.25,3.28l10.49,6.57l10.34,6.81l-52.08,78.25l-9.06-5.96
						l-9.19-5.75l-4.6-2.87l-4.67-2.76l-9.33-5.52l-9.46-5.29l-4.73-2.64l-4.79-2.53l-9.59-5.05l-9.71-4.82L1332.84,321.27z"/>
				</g>
				<g>
					<polygon class="st1" points="1353.16,385.24 1353.16,385.24 1353.16,385.24 					"/>
				</g>
				<g>
					<path d="M1338.42,411.47c4.01,2.37,9.23,4.25,14.56,3.8c5.32-0.44,10.71-3.08,15.06-10.09l20.8-33.59l-5.24-3.27l-5.32-3.15
						l-20.24,33.94c-3.61,6.04-8.31,7.17-14.52,3.49c-6.29-3.53-7.68-8.14-4.27-14.31l19.17-34.55l-5.4-3.01l-5.46-2.9l-18.59,34.87
						c-3.88,7.3-3.45,13.27-1.16,18.1C1330.11,405.63,1334.37,409.19,1338.42,411.47z"/>
				</g>
			</g>
			<g>
				<g>
					<path class="st1" d="M1439.68,509.24c-22.8-20.46-47.07-39.26-72.46-56.37l55.75-83.01c29.24,19.7,57.17,41.35,83.42,64.89
						L1439.68,509.24z"/>
					<path d="M1510.77,434.62c-27.87-25.11-57.53-48.24-88.79-69.01l-58.73,88.24c26.91,17.88,52.46,37.81,76.48,59.44
						L1510.77,434.62z M1423.92,374.1c27.27,18.6,53.47,38.8,78.1,60.78l-62.42,70.29c-21.58-19.27-44.54-36.95-68.42-53.25
						L1423.92,374.1z"/>
				</g>
				<g>
					<polygon class="st1" points="1435.11,440.32 1435.11,440.32 1435.11,440.32 					"/>
				</g>
				<g>
					<path d="M1459.84,444.34c5.1-6.15,5.34-11.96,3.35-17.01c-1.99-5.04-6.12-9.35-9.85-12.14c-11.43-8.89-22.12-8.36-28.75,0.83
						c-2.66,3.66-3.71,7.05-3.1,10.6c0.31,1.78,1.03,3.59,2.18,5.51c1.14,1.93,2.67,4,4.65,6.22l5.39,6.15
						c5.25,6.05,6.04,9.66,3.1,13.31c-1.53,1.9-3.6,2.75-5.97,2.57c-2.38-0.16-4.99-1.4-7.78-3.5c-6.21-4.76-7.61-10.17-4.18-15.4
						c-3.03-2.27-6.11-4.48-9.17-6.72c-3.38,5.26-4.4,10.48-3.19,15.39c1.25,4.87,4.56,9.67,10.16,13.93
						c2.85,2.14,5.57,3.83,8.28,4.92c2.7,1.09,5.35,1.62,7.9,1.59c5.11-0.08,9.73-2.27,13.53-6.83c2.94-3.53,4.33-6.97,4.07-10.56
						c-0.27-3.57-2.17-7.31-5.71-11.49l-2.99-3.54l-3.06-3.46c-5.75-6.52-6.72-9.38-4.17-12.77c2.64-3.52,7.49-3.33,12.47,0.49
						c1.53,1.18,2.78,2.38,3.72,3.6c0.93,1.24,1.56,2.5,1.89,3.76c0.67,2.52,0.16,5.03-1.54,7.47
						C1454,439.63,1456.94,441.96,1459.84,444.34z"/>
				</g>
			</g>
			<g>
				<g>
					<path class="st1" d="M1503.67,575.08c-4.88-5.9-10.04-11.57-15.1-17.31l-7.81-8.42c-1.31-1.4-2.6-2.82-3.92-4.19l-4.01-4.11
						c-10.62-11.04-21.75-21.58-33.14-31.82l66.71-74.5c13.11,11.78,25.9,23.92,38.13,36.61l4.62,4.73
						c1.53,1.59,3.01,3.22,4.52,4.82c3,3.23,6.02,6.44,8.99,9.69c5.84,6.6,11.76,13.13,17.39,19.92L1503.67,575.08z"/>
					<path d="M1584.38,511.01c-11.99-14.42-24.65-28.29-37.71-41.75l-4.91-5.03c-1.63-1.68-3.28-3.35-4.97-4.98l-10.07-9.83
						c-6.85-6.4-13.65-12.87-20.72-19.03l-70.38,79.26c6.1,5.3,11.94,10.89,17.85,16.4l8.67,8.47c1.46,1.4,2.88,2.84,4.28,4.29
						l4.23,4.34c11.25,11.6,22.16,23.54,32.49,35.97L1584.38,511.01z M1506.75,439.07c12.19,11.12,24.18,22.47,35.62,34.37
						l4.32,4.43c1.44,1.47,2.82,3.01,4.24,4.51l8.43,9.06l8.23,9.25l4.11,4.63l4,4.72l-71.53,60.99l-3.5-4.14l-3.6-4.05l-7.21-8.1
						l-7.39-7.94c-1.24-1.32-2.44-2.67-3.71-3.95l-3.79-3.88c-10.01-10.44-20.54-20.37-31.21-30.12L1506.75,439.07z"/>
				</g>
				<g>
					<path class="st1" d="M1508.67,506.2L1508.67,506.2L1508.67,506.2z"/>
				</g>
				<g>
					<path d="M1515.36,515.74l-19.28,18.14l7.76,8.33l43.12-39.25l-8.47-9.1l-15.9,14.97c-2.59-2.83-5.28-5.57-7.96-8.32
						c-2.69-2.74-5.34-5.51-8.06-8.22l15.41-15.47l-8.84-8.63l-40.47,41.98l8.15,7.96l18.69-18.75c2.69,2.68,5.32,5.42,7.98,8.13
						l3.98,4.08C1512.79,512.95,1514.06,514.36,1515.36,515.74z"/>
				</g>
			</g>
			<g>
				<g>
					<path class="st1" d="M1557.93,649.12c-8.2-12.93-16.73-25.65-25.85-37.96l-3.38-4.64c-1.14-1.54-2.32-3.04-3.48-4.57l-7-9.11
						c-4.82-5.95-9.55-11.98-14.56-17.77l76.36-64.56c5.76,6.68,11.21,13.6,16.75,20.46l8.06,10.48c1.33,1.75,2.69,3.49,4.01,5.26
						l3.9,5.34c10.48,14.17,20.33,28.82,29.76,43.71L1557.93,649.12z"/>
					<path d="M1646.73,596.86c-2.48-3.98-4.95-7.97-7.56-11.87c-2.59-3.91-5.14-7.85-7.76-11.74l-8.02-11.57
						c-1.32-1.94-2.69-3.84-4.08-5.73l-4.14-5.68c-11.1-15.12-22.67-29.9-34.9-44.13l-80.66,68.77
						c10.54,12.25,20.5,24.99,30.06,38.01l3.57,4.89c1.2,1.63,2.38,3.26,3.52,4.93l6.9,9.96c2.26,3.35,4.45,6.74,6.68,10.11
						c2.26,3.35,4.37,6.79,6.51,10.22L1646.73,596.86z M1579.78,514.87l3.99,4.73l3.88,4.82l7.75,9.65l7.53,9.82
						c1.25,1.64,2.53,3.26,3.74,4.93l3.65,5c9.84,13.26,19.03,26.98,27.97,40.86l-79.29,50.49c-7.84-12.14-15.87-24.17-24.5-35.78
						l-3.19-4.38c-1.06-1.46-2.19-2.88-3.28-4.32l-6.6-8.61l-6.79-8.45l-3.4-4.23l-3.5-4.14L1579.78,514.87z"/>
				</g>
				<g>
					<path class="st1" d="M1572.42,581.61L1572.42,581.61L1572.42,581.61z"/>
				</g>
				<g>
					<path d="M1546.99,597.79c3.31,4.56,7.21,7.21,11.31,8.03c4.1,0.82,8.52-0.27,12.98-3.38l35.35-24.67l-3.52-5.08l-3.63-5
						l-34.94,25.26c-3.57,2.57-6.83,2.18-9.18-1.04c-1.29-1.77-1.76-3.36-1.37-4.91c0.38-1.54,1.61-3.05,3.75-4.66l4.48-3.36
						l-7.15-9.32l-4.55,3.53c-5.59,4.35-7.58,9.01-7.63,13.3C1542.87,590.78,1544.8,594.71,1546.99,597.79z"/>
				</g>
			</g>
			<g>
				<g>
					<path class="st1" d="M1601.39,729.94c-1.57-3.49-3.23-6.94-4.84-10.41l-2.43-5.2l-2.56-5.14c-1.72-3.42-3.37-6.87-5.14-10.26
						l-5.36-10.15l-1.34-2.54l-1.4-2.51l-2.8-5.01c-1.87-3.34-3.7-6.7-5.69-9.97l-5.84-9.88l-6.07-9.74l84.57-53.36l6.99,11.22
						l6.73,11.38c2.28,3.77,4.4,7.64,6.55,11.49l3.23,5.77l1.61,2.89l1.55,2.92l6.17,11.7c2.03,3.91,3.95,7.89,5.93,11.83l2.94,5.92
						l2.81,5.99c1.86,4,3.76,7.98,5.57,12L1601.39,729.94z"/>
					<path d="M1696.59,690.57c-1.84-4.32-3.89-8.54-5.86-12.8c-1.99-4.25-3.95-8.52-6.07-12.7c-2.09-4.2-4.16-8.41-6.29-12.6
						l-6.57-12.45c-8.94-16.5-18.35-32.75-28.45-48.56l-89.41,56.94c8.7,13.61,16.79,27.61,24.49,41.8l5.65,10.71l5.4,10.84
						c1.84,3.6,3.52,7.27,5.22,10.93c1.69,3.67,3.47,7.29,5.04,11.01L1696.59,690.57z M1641.64,600.04
						c8.82,13.96,17.01,28.3,24.88,42.82l5.78,10.95c1.94,3.64,3.71,7.38,5.57,11.06c3.75,7.36,7.16,14.88,10.66,22.36l-85.55,38.95
						c-3.08-6.54-6.04-13.13-9.33-19.56c-1.63-3.22-3.16-6.5-4.87-9.68l-5.06-9.59c-6.89-12.7-14.05-25.27-21.78-37.49
						L1641.64,600.04z"/>
				</g>
				<g>
					<path class="st1" d="M1625.12,665.11L1625.12,665.11z"/>
				</g>
				<g>
					<path d="M1611.98,640.83c-7.65,4.51-12.86,10.69-15.19,17.42c-1.21,3.39-1.7,6.93-1.4,10.49c0.28,3.58,1.46,7.13,3.3,10.73
						c1.93,3.67,4.42,6.57,7.3,8.77c2.9,2.19,6.05,3.76,9.54,4.6c6.93,1.7,14.86,0.71,22.38-2.94c8.34-4.06,14.05-9.97,16.65-16.91
						c1.28-3.45,1.89-7.2,1.5-10.97c-0.36-3.79-1.53-7.68-3.57-11.53c-2-3.89-4.74-6.95-7.72-9.31c-3.01-2.35-6.37-3.94-9.93-4.77
						C1627.62,634.82,1619.63,636.33,1611.98,640.83z M1643.51,655.41c2.34,4.43,2.48,8.98,0.61,13.11
						c-1.85,4.13-5.8,7.88-11.42,10.73c-5.32,2.7-10.45,3.53-14.86,2.73c-4.39-0.81-7.98-3.27-10.13-7.35
						c-0.54-1.03-0.95-2.07-1.23-3.12c-0.3-1.04-0.47-2.09-0.52-3.14c-0.09-2.1,0.32-4.22,1.21-6.27c1.77-4.1,5.43-7.98,10.75-10.99
						c5.32-3.02,10.52-4.13,15.01-3.38c2.24,0.37,4.3,1.21,6.11,2.49c0.9,0.64,1.74,1.39,2.5,2.25
						C1642.27,653.34,1642.93,654.32,1643.51,655.41z"/>
				</g>
			</g>
			<g>
				<g>
					<path class="st1" d="M1633.07,816.02l-3.27-11c-1.14-3.65-2.35-7.28-3.52-10.92l-1.77-5.46l-1.91-5.41
						c-1.29-3.6-2.51-7.23-3.84-10.81c-5.33-14.34-11.12-28.51-17.36-42.48l91.18-41.06c7.2,16.11,13.88,32.44,20.02,48.98
						c1.53,4.14,2.95,8.31,4.43,12.47l2.19,6.24l2.05,6.29c1.35,4.2,2.75,8.38,4.06,12.59l3.77,12.68L1633.07,816.02z"/>
					<path d="M1732.89,790.35c-5.18-18.05-11.06-35.89-17.48-53.53c-6.5-17.61-13.7-34.96-21.42-52.08l-96.47,43.93
						c6.63,14.72,12.83,29.64,18.42,44.78c5.51,15.17,10.57,30.51,15.03,46.03L1732.89,790.35z M1691.11,693.01l4.96,11.35
						c1.64,3.79,3.15,7.63,4.73,11.45c3.2,7.61,6.02,15.38,8.98,23.09c5.6,15.54,10.97,31.17,15.54,47.04l-90.16,26.59
						c-3.99-13.89-8.71-27.55-13.59-41.15c-2.6-6.74-5.04-13.54-7.86-20.2c-1.38-3.34-2.7-6.7-4.13-10.02l-4.34-9.93L1691.11,693.01
						z"/>
				</g>
				<g>
					<path class="st1" d="M1665.67,755.14L1665.67,755.14L1665.67,755.14z"/>
				</g>
				<g>
					<path d="M1659.82,748.53c3.34,8.53,6.3,17.19,9.33,25.83l9.47-3.2c-3.07-8.76-6.08-17.55-9.46-26.2l12.33-4.71
						c1.81,4.78,3.67,9.54,5.32,14.37l2.55,7.23c0.85,2.41,1.71,4.81,2.48,7.25l9.48-3.17c-1.08-3.46-2.36-6.84-3.54-10.27
						l-3.62-10.24l-3.86-10.15c-1.28-3.39-2.56-6.77-3.96-10.11l-54.12,21.71c1.34,3.18,2.54,6.41,3.76,9.63l3.67,9.66l3.43,9.75
						c1.15,3.25,2.31,6.49,3.34,9.78l9.49-3.15l-1.17-3.62l-1.26-3.59l-2.53-7.17c-1.63-4.8-3.46-9.53-5.27-14.26L1659.82,748.53z"
						/>
				</g>
			</g>
			<g>
				<g>
					<path class="st1" d="M1652.39,905.7l-0.79-5.69l-0.93-5.66l-1.88-11.32l-2.16-11.27c-0.37-1.88-0.69-3.76-1.11-5.63l-1.22-5.61
						c-3.14-14.98-7.01-29.79-11.23-44.5l96.03-27.89c4.87,16.95,9.32,34.04,12.95,51.3l1.4,6.46c0.48,2.15,0.85,4.33,1.28,6.49
						l2.49,12.99l2.18,13.05l1.07,6.53l0.92,6.55L1652.39,905.7z"/>
					<path d="M1754.79,894.24c-1.21-9.31-2.82-18.55-4.35-27.81c-0.83-4.62-1.75-9.22-2.62-13.83c-0.45-2.3-0.86-4.61-1.35-6.91
						l-1.49-6.88l-1.5-6.88c-0.49-2.29-1-4.59-1.57-6.86l-3.34-13.68c-1.15-4.55-2.42-9.07-3.63-13.6l-1.86-6.79l-2-6.75
						l-101.67,29.99l1.73,5.8l1.59,5.84c1.04,3.9,2.15,7.78,3.13,11.7l2.87,11.76c0.5,1.96,0.93,3.93,1.35,5.9l1.29,5.92l1.29,5.92
						c0.42,1.97,0.77,3.96,1.16,5.94c0.75,3.97,1.55,7.92,2.26,11.9c1.31,7.97,2.71,15.92,3.74,23.93L1754.79,894.24z M1727.12,792
						c4.42,15.91,8.62,31.9,12,48.07c1.84,8.05,3.28,16.19,4.85,24.29c0.77,4.06,1.38,8.14,2.08,12.21
						c0.66,4.08,1.4,8.14,1.93,12.23l-92.99,13.73c-0.45-3.59-1.12-7.14-1.69-10.71c-0.61-3.56-1.13-7.14-1.81-10.69
						c-1.39-7.09-2.63-14.21-4.25-21.25c-2.94-14.15-6.63-28.13-10.49-42.05L1727.12,792z"/>
				</g>
				<g>
					<path class="st1" d="M1693.17,849.98L1693.17,849.98z"/>
				</g>
				<g>
					<path d="M1649.23,856.08c7.66,2.67,14.41,4.4,20.73,5.15c6.33,0.75,12.17,0.53,18.18-0.68c6.03-1.22,11.61-3.3,17.06-6.59
						c5.45-3.29,10.84-7.79,16.59-13.91c-0.6-2.68-1.14-5.38-1.79-8.05c-14.14,12.22-22.39,16.62-33.87,19.13
						c-11.42,2.5-20.88,1.71-38.51-2.29C1648.21,851.25,1648.69,853.67,1649.23,856.08z"/>
				</g>
			</g>
		</g>
	</g>
</g>
</svg>
